<svg xmlns="http://www.w3.org/2000/svg" xmlns:xlink="http://www.w3.org/1999/xlink" width="66.09631mm" height="87.99617mm" viewBox="0 0 187.35962 249.43797">
  <defs>
    <clipPath id="a">
      <circle cx="93.67981" cy="93.67981" r="93.47981" fill="#71c8ea" stroke="#fff" stroke-miterlimit="10" stroke-width="0.4"/>
    </clipPath>
    <clipPath id="b">
      <path d="M64.81591,96.58118a1.02353,1.02353,0,0,0,.17887.85553c2.11969,2.87408,6.47632,3.54487,8.92787,3.68595a44.02373,44.02373,0,0,0,7.93016-.91994.85439.85439,0,0,0,.07727-.04858.74949.74949,0,0,0,.41445-.64028.60825.60825,0,0,0-.06123-.36567,32.98241,32.98241,0,0,0-1.31575-3.32352c-1.30123-2.21925-4.32755-3.774-6.94785-4.29084a16.34776,16.34776,0,0,0-1.83888-.26051c-2.09644-.16833-4.40187.07331-5.7605,1.75876A10.6529,10.6529,0,0,0,64.81591,96.58118Z" fill="#010101"/>
    </clipPath>
    <clipPath id="c">
      <path d="M65.539,96.79014c.98028-2.537,1.85175-4.89389,5.34545-4.95139a14.40506,14.40506,0,0,1,8.72243,2.94317c.47437.53866,2.68367,4.0354,1.99443,4.66422a7.00018,7.00018,0,0,1-1.7469.708,24.073,24.073,0,0,1-5.00686.45551C71.79954,100.681,66.8372,100.01258,65.539,96.79014Z" fill="#f5e7dd"/>
    </clipPath>
    <clipPath id="d">
      <path d="M122.17136,96.39944a1.02353,1.02353,0,0,1-.17887.85553c-2.11969,2.87408-6.47632,3.54487-8.92787,3.686a44.02278,44.02278,0,0,1-7.93016-.91995.85432.85432,0,0,1-.07727-.04857.74949.74949,0,0,1-.41445-.64029.60823.60823,0,0,1,.06123-.36566,32.98241,32.98241,0,0,1,1.31575-3.32352c1.30123-2.21925,4.32755-3.774,6.94785-4.29084a16.34776,16.34776,0,0,1,1.83888-.26051c2.09644-.16834,4.40187.07331,5.7605,1.75876A10.6529,10.6529,0,0,1,122.17136,96.39944Z" fill="#010101"/>
    </clipPath>
    <clipPath id="e">
      <path d="M121.63932,96.74257c-.98028-2.537-1.85175-4.89389-5.34545-4.95139a14.40491,14.40491,0,0,0-8.72243,2.94317c-.47437.53866-2.68368,4.0354-1.99443,4.66421a6.99984,6.99984,0,0,0,1.7469.708,24.073,24.073,0,0,0,5.00686.45551C115.3788,100.63347,120.34114,99.965,121.63932,96.74257Z" fill="#f5e7dd"/>
    </clipPath>
    <clipPath id="f">
      <path d="M81.30844,125.98414a81.44615,81.44615,0,0,1,25.94378.17412S94.54151,139.04309,81.30844,125.98414Z" fill="#464034"/>
    </clipPath>
    <clipPath id="g">
      <path d="M75.39755,144.80011s-2.664,1.5223-1.71258,6.27947c0,0-3.04459-.57086-3.23488,6.27946a25.5013,25.5013,0,0,0-4.75717.38058,3.75025,3.75025,0,0,0-2.09316,1.52229s-3.61545-1.332-5.7086.19029v1.23686l-3.61545,1.42715s-1.5223-1.71258-1.71258,1.14173l-3.23488,3.5203-6.75518-.09514s-2.1883,1.61744-.38058,5.89889l17.69668,19.78983a36.59432,36.59432,0,0,1,2.8543,9.79977s10.18035,11.6075,17.50639,17.98211c0,0,1.998,9.32406,4.75717,15.223a56.43231,56.43231,0,0,1,4.56689,13.41522s.38057,1.04658,1.80772.47572c0,0,4.85232-4.47174,6.37461-7.04062,0,0,3.13974-5.7086,5.23289-7.70661a18.53729,18.53729,0,0,0,3.80574-2.1883,56.86636,56.86636,0,0,0,7.80176-13.89094s5.89889-5.70861,7.80176-7.04061c0,0,3.996-12.74922,15.03266-12.36865,0,0,4.18631-2.47373,5.51832-12.17836,0,0,.38057-6.85032,8.75319-13.51036,0,0,3.42517-3.61545-5.13774-8.37262,0,0-2.09316-2.85431-3.86917-.444h-1.776s.63429-2.53715-4.56688-2.02972l-1.01487,1.14172a5.40967,5.40967,0,0,1-3.93259-.76115,6.15875,6.15875,0,0,0-2.53716-.38057,16.99257,16.99257,0,0,0-5.45489-.50743l-1.26858-.76115s1.14172-2.53716-2.02972-1.26858l-2.91774-2.79087s1.01487-3.67888-.25371-5.07432a2.827,2.827,0,0,0-.38057-4.31317,24.99825,24.99825,0,0,1-4.8206,1.01487,33.52591,33.52591,0,0,1-8.7532-2.15659s-2.28344-1.26858-10.65606,3.67888a6.16715,6.16715,0,0,0-4.94746,1.26858,36.26479,36.26479,0,0,1-7.104-1.01486A19.28507,19.28507,0,0,1,75.39755,144.80011Z" fill="#474d57"/>
    </clipPath>
  </defs>
  <g>
    <circle cx="93.67981" cy="93.67981" r="93.47981" fill="#71c8ea"/>
    <g clip-path="url(#a)">
      <g>
        <g>
          <path d="M127.58818,92.202c-2.70224,7.5002-5.95819,13.8691-1.23358,17.00583s9.481.73752,18.99549-7.84574c4.93953-4.45495,1.46239-12.808-2.69538-16.7058C135.0695,77.54048,130.2572,84.82594,127.58818,92.202Z" fill="#c9b5a1"/>
          <ellipse cx="136.24922" cy="95.67584" rx="8.85186" ry="6.10778" transform="translate(26.2896 220.68224) rotate(-83.7411)" fill="#b7a492"/>
        </g>
        <g>
          <path d="M43.928,90.44015c-2.86934,5.38469-3.74422,14.80615,2.38455,17.18237,11.80581,4.57915,17.14138,5.04168,20.78883.17092S65.68144,98.042,60.81292,91.853C56.01382,85.771,49.16122,80.612,43.928,90.44015Z" fill="#c9b5a1"/>
          <ellipse cx="52.0662" cy="98.96278" rx="6.10778" ry="8.85186" transform="translate(-37.94029 32.60501) rotate(-25.85059)" fill="#b7a492"/>
        </g>
      </g>
      <g>
        <rect x="77.61342" y="133.85746" width="32.07595" height="50.07194" fill="#d2bda7"/>
        <path d="M77.61342,148.737a53.41109,53.41109,0,0,0,16.038,2.92778,53.78928,53.78928,0,0,0,16.038-2.92778V135.55007H77.61342Z" fill="#c7b29a"/>
      </g>
      <path d="M138.09112,81.75278c0,50.56225-31.11828,63.18011-43.99161,63.16661-12.85984,0-44.1516-12.60436-44.1516-63.16661,0-25.53076,19.72832-46.21716,44.07161-46.21716S138.09112,56.222,138.09112,81.75278Z" fill="#d2bda7"/>
      <path d="M93.89912,16.87605v.00875h-.02188v-.00439A.03957.03957,0,0,1,93.89912,16.87605Z" fill="#ea9217"/>
      <path d="M93.92539,16.88041v.00439h-.02627v-.00875A.05572.05572,0,0,1,93.92539,16.88041Z" fill="#ea9217"/>
      <g>
        <path d="M140.75858,66.31736c-.44274-.3156-.69263-.49973-1.13536-.81532-.51284.07451-1.02133.12272-1.53422.19726v.02191c-1.35443.18849-3.50679.46465-6.03607.75833a.0553.0553,0,0,1-.02627.00439c-.02627.00439-.04821.00439-.07454.00878h-.0175c-.114.01752-.22356.03066-.33753.04382-.11837.01317-.24106.0263-.36381.03947-.14908.02191-.2981.03943-.45152.057-.39891.04823-.75833.09206-1.0827.12713-.04388.00878-.08765.01314-.12714.01753-.04821.00439-.09643.01316-.1403.01755a.43656.43656,0,0,0-.0701.00875.5936.5936,0,0,0-.08765.00877c.03066-.00438.06571-.00877.10081-.01316.0701-.01314.14025-.02191.2104-.03066-4.44486.4997-9.52969,1.01694-13.39595,1.29749-.08765.00439-.18407.01317-.29366.02192-.1052.00877-.22356.01316-.34631.02193-.12714.00875-.25867.01753-.40325.0263q-.18412.01312-.38141.0263c-1.94625.13589-4.6246.28491-7.67988.4208A16.7759,16.7759,0,0,1,93.87724,75.4613v.00439a1.06646,1.06646,0,0,1-.11837-.00439h-.06143c-.06132.00439-.11831.00439-.17968.00439h-.03071v-.00878a16.785,16.785,0,0,1-13.089-6.86452q-.93371-.046-1.92-.1052c-.25422-.01317-.50845-.0263-.76272-.04385-6.02291-.32876-12.10713-.81971-17.91964-1.429a.59562.59562,0,0,0-.0877-.00877c-.03066,0-.06576-.00439-.10958-.00878a.03938.03938,0,0,0-.02189-.00439.056.056,0,0,0-.02633-.00436c-2.09093-.22356-4.15114-.46028-6.15-.71889-.51722-.06577-1.03449-.1315-1.54738-.19727-.33754-.04382-.67941-.08767-1.017-.13588-.25861-.03508-.52166-.07015-.78027-.1052-.263-.03508-.52166-.07454-.78461-.10959V65.6993c-.50849-.07454-1.02138-.12275-1.52983-.19726-.44273.31559-.697.49972-1.13975.81532-.4559,3.99335-1.88492,9.82337,5.07611,10.70446,1.58238.20165,3.16487.35067,4.7473.5348a24.51385,24.51385,0,0,0,5.32594,3.15172c2.96763,1.20107,9.66122,1.84982,16.28022,2.19613,6.31666.32877,12.56752.39011,15.45617.3945h.39019c2.893-.00439,9.14388-.06573,15.46055-.3945,6.61461-.34631,13.30381-.99506,16.27583-2.19613a24.71894,24.71894,0,0,0,5.32156-3.15172C142.66977,76.20211,141.666,74.20763,140.75858,66.31736Zm-12.208.583c-.17529.02191-.32876.03944-.45584.0526C128.22177,66.93542,128.37524,66.91789,128.55053,66.90037Zm2.08216,7.99986-1.6482.96437c-.19284.10081-.39008.19285-.59609.2893l-2.88876,1.06079c-.36381.10959-.78466.21043-1.24928.30685-.32876.06577-.68379.13589-1.06521.19726-.04377.00878-.08765.01753-.13586.0263-.2104.03508-.42957.07013-.65752.10082-.07015.01316-.14464.02191-.21918.03507-.80215.11836-1.67885.22356-2.61692.32438-.07893.00877-.16219.01752-.24545.0263-.25428.02629-.50855.05259-.7715.07889-.09648.00878-.20167.01756-.30249.0263-.65752.06138-1.33693.12275-2.02955.17535-.46029.03944-.92491.07452-1.39831.1052-.24111.01753-.48661.03508-.73206.0526-.35942.02192-.72328.04822-1.09154.07015-1.1002.06574-2.218.12712-3.34015.1841-.97751.04822-1.95941.092-2.9282.1315-.07892.00439-.15779.00439-.24106.00878-.53043.02191-1.0521.03943-1.5737.057-.85037.03068-1.68325.057-2.49418.07889-.32437.01314-.64436.02192-.96435.03069-.77588.01753-1.52983.035-2.24439.04821-.31121.00878-.61365.01314-.91175.02192h-.07015c-.31121.00438-.60926.00877-.903.01316-1.33693.02191-2.49857.03066-3.4147.035h-.43835c-.91613-.00439-2.07338-.01314-3.406-.035-.30249-.00439-.60931-.00878-.9293-.01316H89.108c-.31121-.00878-.63559-.01314-.96435-.02192-.697-.01316-1.42463-.03068-2.17858-.04821-.34631-.00877-.7014-.01755-1.05643-.03069-.78022-.02191-1.578-.04821-2.389-.07453-.56982-.01753-1.14842-.03944-1.72707-.06574h-.04821c-.49972-.01752-1.00378-.03946-1.508-.06138-.37692-.01752-.75833-.03507-1.13525-.05259-.75839-.03508-1.51233-.07452-2.26633-.11837-.37692-.02191-.74956-.04382-1.12215-.06573-1.99006-.12275-3.91886-.263-5.68975-.434a.65425.65425,0,0,1-.09209-.00878c-.34187-.03069-.675-.06576-.9994-.10081-.25422-.0263-.50411-.057-.754-.08329-.12708-.01316-.24978-.0263-.37253-.04385-.24111-.0263-.47784-.057-.71017-.08767-.21918-.0263-.42958-.057-.64-.08765-.12713-.01755-.24988-.03508-.37258-.0526-.28933-.03947-.56982-.08329-.83726-.13153q-.60487-.09859-1.13092-.2104c-.469-.09642-.88547-.19726-1.24928-.30685h-.00439c-.17535-.0526-.3507-.10958-.53039-.16657q-.2631-.08548-.53916-.1841c-.36386-.1315-.73211-.27616-1.09587-.42957-.3507-.14905-.7014-.31124-1.0521-.4822-.02188-.00875-.03943-.02191-.06132-.03069q-.53263-.263-1.05205-.56546a15.61931,15.61931,0,0,1-1.52111-.99067c-.25855-.18849-.50844-.38575-.74955-.59615A9.852,9.852,0,0,1,53.948,72.44107c-.18407-.22353-.35948-.45587-.54355-.68382.33315.206.67507.4033,1.04327.59617q.217.11178.44713.22357c.07892.03943.15779.07451.23667.10958.2981.13589.60936.26739.9469.3945.11392.04385.22351.08329.34187.12711h.00439c.114.04385.23228.08329.35064.12275.12275.04383.2455.08329.377.12275.12714.03944.25422.07451.38131.11834h.00877c.13153.03507.26306.07451.399.114h.00872c.55671.14905,1.16164.29369,1.82355.42958.092.01755.18846.03946.28488.057.11836.02192.24111.04824.36386.07016s.24989.04382.377.06573c.25422.04385.51288.08768.78466.13153.13586.02191.27177.04382.41207.06573.1402.02192.2805.04385.42519.06138.28927.04382.583.08329.88986.12272q.36816.046.74956.09207c.38569.04382.789.08767,1.20107.13149a.01992.01992,0,0,0,.02194,0c.36375.03508.73639.07015,1.12214.10959.13586.01316.27616.0263.41641.03508q.3945.03286.80216.06576c.00439.00436.00877.00436.01755,0,.27183.02191.55232.04382.83287.06574,2.03394.14466,4.35721.26738,7.018.36383,4.77363.171,10.66061.25861,17.9679.263h.43835c2.46352,0,4.85688,0,7.17137-.01752.60493-.00439,1.19669-.00878,1.78411-.01317a.57369.57369,0,0,0,.12275,0c.754-.00875,1.49912-.01313,2.22674-.02191.61375-.00875,1.21423-.01752,1.80605-.03069.1052,0,.206-.00438.31121-.00438.92491-.01753,1.82788-.035,2.709-.06135.3507-.00439.697-.01755,1.03894-.0263q1.51233-.046,2.95885-.10959c.26739-.01316.53477-.02194.79777-.03507.24545-.01317.491-.02192.73206-.03508.23234-.01314.469-.0263.697-.03944,6.88649-.4033,12.38773-1.20545,16.03038-2.79227.13153-.057.25866-.114.38141-.17535.114-.0526.23234-.10959.34193-.16658.11831-.06137.23228-.12272.35064-.1841q.1578-.08547.30249-.171c.10081-.057.19724-.114.29366-.17535A14.85531,14.85531,0,0,1,130.63269,74.90023Z" fill="#2e3d42"/>
        <g>
          <path d="M134.95733,70.8261a16.48452,16.48452,0,0,1-3.4066,3.74176l-1.6898,1.1481c-.19772.12-.39994.22959-.61115.34442l-2.96168,1.26289c-.373.13046-.80447.25051-1.28082.36531-.33706.07829-.70106.16177-1.09211.23484-.04487.01045-.08986.02086-.13929.03131-.21571.03654-.44041.07826-.67412.12-.07192.01567-.14828.02609-.22471.04176-.8224.13569-1.72123.26615-2.683.38617-.08092.01045-.16628.02086-.25164.03131-.2607.03131-.52139.06262-.791.09393-.09891.01045-.20677.0209-.31012.03131-.67412.07307-1.37068.14614-2.0808.20876-.4719.04695-.94825.08348-1.4336.12524-.2472.02086-.4989.04176-.75055.06262-.36849.02609-.74154.0574-1.11909.08352-1.128.07826-2.274.15132-3.42448.21917-1.00219.05739-2.00888.10957-3.00212.15655-.08092.00522-.16178.00522-.24714.01045-.54383.02608-1.07867.04695-1.61344.06784-.87184.03654-1.72574.06785-2.55715.09393-.33256.01042-.66512.02087-.98869.03654-.79547.02086-1.56845.04172-2.30106.05739-.31906.01045-.62913.01564-.93476.02609h-.07192c-.31907.00522-.62464.01045-.92582.01567-1.37068.02609-2.56165.0365-3.50091.04173h-.44941c-.93926-.00523-2.12573-.01564-3.492-.04173-.31013-.00522-.6247-.01045-.95276-.01567h-.018c-.31906-.01045-.65163-.01564-.98869-.02609-.71455-.01567-1.4606-.03653-2.23358-.05739-.35505-.01045-.7191-.0209-1.0831-.03654-.79992-.02608-1.61788-.05739-2.44935-.08874-.5842-.02086-1.17741-.04695-1.77066-.07826h-.04943c-.51234-.02086-1.02913-.047-1.546-.07306-.38643-.02087-.77748-.04176-1.16391-.06263-.77754-.04175-1.55052-.0887-2.32355-.14091-.38644-.02608-.76849-.05217-1.15048-.07826-2.0403-.14613-4.01779-.31313-5.83339-.51663a.58136.58136,0,0,1-.09442-.01045c-.3505-.04176-.69206-.08352-1.02462-.12-.26064-.03131-.51684-.06784-.773-.09915-.13029-.01568-.25609-.03131-.38193-.05221-.2472-.03131-.48991-.06784-.72811-.10438-.22471-.03131-.44042-.06781-.65613-.10434-.13035-.0209-.25619-.04176-.382-.06263-.29663-.0522-.58421-.10437-.8584-.15658q-.62013-.12522-1.15947-.25048a13.21317,13.21317,0,0,1-1.28082-.36531h-.0045c-.17977-.06262-.35955-.13047-.54377-.19831q-.26975-.10176-.55277-.21917c-.373-.15655-.7506-.32878-1.12354-.51142-.35956-.17744-.71911-.37053-1.07866-.57406-.02244-.01042-.04043-.02609-.06287-.03653-.36406-.20873-.72361-.43835-1.07861-.67319a15.99372,15.99372,0,0,1-1.55951-1.17941c-.26509-.2244-.52128-.45924-.76848-.70972a11.10236,11.10236,0,0,1-1.34375-1.58126c-.18872-.26612-.36855-.54272-.55727-.8141.34156.24529.69212.48014,1.06961.70976q.22243.13305.45841.26615c.08092.047.16179.08871.24265.13047.30563.16177.62475.31832.97081.46965.11679.05221.22915.09916.3505.15133h.0045c.11685.0522.23814.09915.3595.14613.12584.05218.25169.09916.38654.14614.13035.04695.26064.08871.39093.14088h.009c.13485.04176.26969.08871.409.13569h.00894c.56627.18264,1.18646.35486,1.86958.51141.09436.0209.19322.047.29208.06785.12135.02608.2472.05743.373.08351.22021.05218.44941.09916.68312.14088.11685.02612.2337.05221.355.06785.23821.0522.48535.09393.737.13569q.56632.10176,1.18652.18786.37747.05479.76848.1096c.39544.05217.80892.10438,1.2314.15655a.01808.01808,0,0,0,.02249,0c.37294.04176.755.08352,1.15047.13047.13929.01567.28314.03131.42692.04176q.40446.03912.82241.07829c.0045.00519.009.00519.018,0,.27869.02608.56627.05217.8539.07826,2.08529.17222,4.46721.31832,7.19514.43315,4.89413.20353,10.92974.30788,18.42151.3131h.44941c2.52571,0,4.9795,0,7.35242-.02086.6202-.00522,1.2269-.01045,1.82915-.01567a.50765.50765,0,0,0,.12585,0c.773-.01042,1.537-.01564,2.283-.02609.62924-.01041,1.24488-.02086,1.85164-.03653.10785,0,.21121-.00522.31907-.00522.94825-.02087,1.874-.04173,2.77735-.073.35955-.00522.71461-.0209,1.06516-.03131q1.55052-.05481,3.03356-.13047c.27413-.01567.54827-.02611.81791-.04175.25164-.01567.50334-.02609.75054-.04176.2382-.01564.48085-.03131.71455-.047,7.33893-.47491,12.7589-1.4247,16.43508-3.32425.13485-.06784.2652-.13569.391-.20876.11685-.06262.2382-.13046.35055-.19831.1213-.07306.23815-.1461.3595-.21917q.16179-.10176.31013-.20353C134.75961,70.967,134.85847,70.89917,134.95733,70.8261Z" fill="#36484d"/>
          <path d="M116.8993,27.97967c.50845-1.0345,1.23607-2.481,1.09149-2.68269-4.88765-5.00593-17.13508-7.8552-24.0654-7.97356h-.04815a.332.332,0,0,1-.06582-.00439,1.23,1.23,0,0,0-.12709.00439c-.04382-.00439-.0877-.00439-.13147-.00439a.33192.33192,0,0,1-.06581.00439c-6.92588.1052-19.2128,2.95885-24.11356,7.97356-.14458.20165.583,1.64819,1.09149,2.68269-15.22822,9.78394-21.1897,22.12785-21.19409,38.15825v.02192c.26295.035.52161.07451.78461.10958.25861.035.52166.07013.78027.1052.33754.04821.67941.09206,1.017.13589.51289.06576,1.03016.1315,1.54738.19726q2.229.27615,4.47114.52164c.0702.00875.1403.01313.21039.02191.16224.02191.32443.03943.491.057.09642.00877.19284.02191.28927.03068,6.62349.70574,13.19872,1.20985,18.85337,1.543.25427.01755.5085.03069.76272.04385q.98628.05916,1.92.1052c2.26623.11836,4.344.206,6.15876.27178,3.29639.1052,5.738.12275,6.93027.07012.07892-.00436.14907-.00875.21478-.01314.057.00439.114.00878.17541.01314,1.34131.06137,4.01962.00439,7.08806-.10081,1.07832-.03944,2.2049-.08329,3.33582-.13589.21045-.00877.42085-.01752.63564-.02191.05254-.00439.1052-.00878.16213-.00878.6663-.03068,1.337-.06137,1.99451-.092,3.03778-.14905,5.87388-.30246,7.6711-.41205q.19728-.01317.38141-.0263c.14458-.00878.27611-.01755.40325-.0263.12275-.00878.24111-.01316.34631-.02194.10959-.00875.206-.01752.29366-.02191,3.86626-.28055,8.95109-.7978,13.396-1.2975l.22356-.02632c.114-.01314.22357-.0263.33754-.03944.12708-.01316.24984-.0263.37253-.04382l.263-.02633c.15342-.01752.30244-.035.45152-.057.12275-.01316.24544-.0263.36381-.03946.0877-.00878.17535-.02192.263-.03508a.4337.4337,0,0,0,.07454-.00875h.0175c.02633-.00439.04827-.00439.07454-.00877a.0553.0553,0,0,0,.02627-.00439c2.52928-.29369,4.68164-.56985,6.03607-.75833v-.02192C138.08461,50.28284,132.28088,37.86006,116.8993,27.97967ZM83.25167,61.99114c-.53043-1.03889-1.11342-2.19613-1.74028-3.44542-.1929-.38136-.39014-.77588-.59176-1.17477-.092-.17973-.17974-.36383-.27616-.54793-.07015-.14466-.14464-.29371-.22356-.44274-.03066-.06576-.06138-.1315-.09643-.19287-.06137-.12275-.12275-.24986-.18851-.37261-.13153-.26739-.26739-.53478-.40325-.80655-.15785-.30685-.3156-.61809-.47345-.9293-.1578-.32-.32-.63561-.48217-.96-.14464-.28055-.28494-.5611-.42957-.84165-.30688-.60928-.62687-1.22737-.94685-1.8542-.21479-.41644-.42519-.82849-.64436-1.24929a.01612.01612,0,0,0-.00439-.01316c-.17535-.33315-.34631-.66627-.52161-.99942a.01612.01612,0,0,0-.00438-.01316q-.48-.914-.9644-1.84107c-.97751-1.8586-1.98129-3.726-2.99829-5.55387-.171-.30246-.33754-.60931-.5085-.91177-.21918-.39011-.43835-.78025-.66186-1.166-1.34137-2.3627-2.69152-4.61582-4.011-6.64535a.501.501,0,0,0,.06582-.06137c.06132-.057.15774-.14028.2761-.24548a1.663,1.663,0,0,1,.12714-.114c.97312-.86792,3.11227-2.73968,3.29639-2.83174.13592.32.31121.72767.46468,1.09148.15335.35945.28927.67069.46023,1.07835,1.6613,3.932,4.09416,9.88914,6.584,16.63971.12275.33751.2455.67066.36825,1.0082.31121.84162.6137,1.68763.91619,2.53364.00872.0263.02188.057.0306.08329.114.31562.228.62683.33315.93368.057.15344.10959.30685.16224.4559.08326.24109.16652.47779.24545.71012.42085,1.19669.80655,2.32763,1.166,3.41473.01317.03946.02633.08329.03944.12275.06576.19723.13152.39011.1929.583.07887.23673.1578.469.228.70138.10959.33315.21479.66191.32.98628.01316.03944.02627.08329.03943.12272.00878.03069.0175.057.02628.08768.00438.00877.00438.02191.00877.03069a.24663.24663,0,0,1,.01755.0526l.00439.00877c.1403.434.27177.85915.40325,1.28v.00439c.03071.10081.06581.20162.09209.30246.02188.06138.04382.12711.06137.18849.01755.0526.03066.10081.04821.15341.06577.21479.13147.4296.19729.64ZM119.16992,33.779c-.30244.48656-.60492.98628-.9118,1.49037-.12709.21917-.263.43835-.39447.66191-.2455.41643-.49539.83726-.74084,1.26244-.15341.25864-.30249.51725-.45146.78028-.13152.22353-.25866.45148-.39019.67943-.06132.10081-.11836.206-.17529.30685-.27183.4734-.53916.9556-.811,1.43777-1.109,1.99009-2.20924,4.03281-3.27006,6.058-.21918.40766-.434.81971-.64436,1.22737-.57865,1.10026-1.1397,2.19613-1.68763,3.27009-.13153.25425-.25861.50408-.38575.75394q-.17754.33536-.34193.67069a.088.088,0,0,0-.01755.03507h-.00438l-.13148.263c-.08331.16219-.16657.32876-.24983.491-.07893.1578-.16224.32-.24112.47781-.2455.47779-.48222.94682-.71451,1.41147-.15341.30685-.31126.6137-.46023.91616-.03071.057-.06143.11834-.0877.17533-.19729.39013-.39014.77588-.583,1.15285-.8723,1.74026-1.67013,3.32708-2.36714,4.69034.14469-.469.28938-.94246.43835-1.41586.06143-.19726.12714-.39891.18856-.59617l.02628-.0789a.85713.85713,0,0,1,.035-.114c.17535-.54793.3507-1.10023.53038-1.65255v-.00439h.00439a1.57,1.57,0,0,1,.04826-.15344c.11837-.3682.24106-.732.35943-1.09587a.08122.08122,0,0,0,.00877-.03066h.00434c.0351-.10959.0702-.22356.10958-.33315v-.00439l.06582-.19726.00439-.01752a.2113.2113,0,0,0,.01311-.03069c.06137-.1841.12275-.36384.18412-.54355.18407-.54794.37259-1.09587.5611-1.64381q.1183-.36162.24984-.72328c.33315-.96.67068-1.9112,1.01694-2.86679,2.61259-7.26344,5.532-14.47428,8.54341-21.6632,1.04332.86356,2.76161,2.297,3.48929,2.93694.1578.14027.263.23672.29371.26741C119.91509,32.59549,119.5425,33.18286,119.16992,33.779Z" fill="#36484d"/>
          <path d="M84.727,65.24435c-.58978-1.1551-1.238-2.4418-1.935-3.83084-.21448-.4289-.43378-.86268-.65795-1.30619-.10234-.19985-.19985-.40454-.30706-.60923-.078-.16085-.16082-.32657-.24857-.49227-.03409-.07312-.06824-.14621-.10721-.21445-.06824-.13648-.13648-.27781-.2096-.41429-.14624-.2973-.2973-.5946-.44836-.89678-.17063-.34117-.346-.68723-.52642-1.03325-.17545-.35581-.35578-.70672-.53611-1.06738-.15594-.31193-.31681-.619-.47763-.9358-.3412-.67744-.697-1.36468-1.05277-2.06163-.23393-.463-.47275-.92117-.71644-1.389a.01793.01793,0,0,0-.00488-.01464c-.19009-.37041-.38017-.7408-.58-1.11122a.01793.01793,0,0,0-.00488-.01464c-.3509-.67747-.71156-1.35979-1.07228-2.047-1.08686-2.06651-2.20294-4.14278-3.3337-6.17517-.18521-.34118-.3753-.67748-.56539-1.01377-.24369-.43375-.48738-.86753-.7359-1.29644-1.49142-2.627-2.99261-5.13218-4.45965-7.38875a.55853.55853,0,0,0,.07318-.06824c.06818-.06337.17539-.156.307-.27294.04391-.039.09257-.08288.14136-.12672,1.082-.965,3.46043-3.04616,3.66515-3.14853.15112.35582.346.80908.51666,1.21359.17051.39966.32163.74571.51172,1.199,1.84715,4.37187,4.55216,10.99542,7.32048,18.50117.13648.37527.273.74569.40945,1.121.346.94065.68235,1.87642,1.01868,2.81707.0097.02924.02433.06336.034.09261,1.28189,3.60666,2.51011,7.23769,3.64569,10.89309C84.50279,64.51815,84.61488,64.87882,84.727,65.24435Z" fill="#2e3d42"/>
          <path d="M102.85316,64.546l0-.00451h0a369.6476,369.6476,0,0,1,13.61-36.28591c.26993.12834,4.03832,3.31109,4.24693,3.5076C114.19246,41.69082,106.94817,56.58969,102.85316,64.546Z" fill="#2e3d42"/>
        </g>
        <g>
          <path d="M110.624,58.84971a16.73133,16.73133,0,0,1-3.235,9.91544c0,.00436-.00877.00875-.00877.00875A16.77982,16.77982,0,0,1,93.81339,75.656h-.07887a16.79427,16.79427,0,0,1-13.47921-6.8733c-.00439-.00438-.00878-.00877-.00878-.01316a16.83332,16.83332,0,0,1-1.91125-16.48189v-.00439A16.85061,16.85061,0,0,1,93.73452,42.04342h.07887a16.80256,16.80256,0,0,1,14.37785,8.09192c.01755.03066.03944.06135.05694.09643.00438,0,.00438.00438.00438.00877a15.28553,15.28553,0,0,1,.98629,1.92436h.00439A16.73007,16.73007,0,0,1,110.624,58.84971Z" fill="#29373a"/>
          <path d="M106.56314,58.65852A12.60548,12.60548,0,1,1,93.9578,46.05291,12.60625,12.60625,0,0,1,106.56314,58.65852Z" fill="#3f4f59"/>
          <path d="M100.78555,58.65852a6.82789,6.82789,0,1,1-6.82775-6.828A6.8285,6.8285,0,0,1,100.78555,58.65852Z" fill="#ffef8b"/>
        </g>
      </g>
      <path d="M93.75628,116.515a30.26724,30.26724,0,0,1-6.117-1.27943c-.01785-.0218-.03164-.04066-.05152-.06338a44.28191,44.28191,0,0,1,5.41289.811c1.632.28718,3.268-.507,4.90089-.63784-.19206-3.83928-1.32394-13.65-1.59327-16.17618a.20461.20461,0,0,0,.01085.02078,16.40023,16.40023,0,0,1,1.03483,4.53249c.19409,1.26665,1.45476,9.80189,1.7686,11.22987.14856.67728-1.05258.98525-1.14668.94469-2.42226,1.6102-3.04813,1.85378-4.97918,1.90529-1.58242.04452-2.70243.26832-4.478-1.56163.9893.62384,1.60625,1.32292,5.18513.99812a7.84127,7.84127,0,0,0,2.38463-.85261A14.02414,14.02414,0,0,0,93.75628,116.515Z" fill="#9e8b7e"/>
      <g>
        <g>
          <path d="M64.81591,96.58118a1.02353,1.02353,0,0,0,.17887.85553c2.11969,2.87408,6.47632,3.54487,8.92787,3.68595a44.02373,44.02373,0,0,0,7.93016-.91994.85439.85439,0,0,0,.07727-.04858.74949.74949,0,0,0,.41445-.64028.60825.60825,0,0,0-.06123-.36567,32.98241,32.98241,0,0,0-1.31575-3.32352c-1.30123-2.21925-4.32755-3.774-6.94785-4.29084a16.34776,16.34776,0,0,0-1.83888-.26051c-2.09644-.16833-4.40187.07331-5.7605,1.75876A10.6529,10.6529,0,0,0,64.81591,96.58118Z" fill="#010101"/>
          <g clip-path="url(#b)">
            <path d="M64.26577,97.70015c1.10385-2.97091,2.08518-5.7308,6.01928-5.79813a15.81891,15.81891,0,0,1,9.822,3.44648c.53416.63078,3.022,4.7255,2.24584,5.46184a7.71183,7.71183,0,0,1-1.96711.82909,26.09923,26.09923,0,0,1-5.638.53341C71.31548,102.25643,65.7276,101.47366,64.26577,97.70015Z" fill="#e6a77c"/>
          </g>
        </g>
        <g>
          <path d="M65.539,96.79014c.98028-2.537,1.85175-4.89389,5.34545-4.95139a14.40506,14.40506,0,0,1,8.72243,2.94317c.47437.53866,2.68367,4.0354,1.99443,4.66422a7.00018,7.00018,0,0,1-1.7469.708,24.073,24.073,0,0,1-5.00686.45551C71.79954,100.681,66.8372,100.01258,65.539,96.79014Z" fill="#f5e7dd"/>
          <g clip-path="url(#c)">
            <g>
              <path d="M77.33355,96.29194c0,2.79513-1.68981,5.06179-3.77682,5.06179-2.08508,0-3.77406-2.26666-3.77406-5.06179,0-2.79429,1.689-5.06,3.77406-5.06C75.64374,91.23192,77.33355,93.49765,77.33355,96.29194Z" fill="#fff"/>
              <path d="M73.55673,91.58147c-1.90672,0-3.45313,2.07231-3.45313,4.62957s1.54641,4.6305,3.45313,4.6305c1.90948,0,3.455-2.07324,3.455-4.6305S75.46621,91.58147,73.55673,91.58147Z" fill="#327676"/>
              <path d="M75.89655,96.01492c0,1.76172-1.065,3.19109-2.38278,3.19109-1.31426,0-2.381-1.42937-2.381-3.19109,0-1.76358,1.06678-3.193,2.381-3.193C74.83152,92.822,75.89655,94.25134,75.89655,96.01492Z" fill="#3d1f14"/>
              <path d="M72.217,93.75876c-.12112.55841-.49707.95029-.83739.87282-.34033-.0749-.5175-.59008-.39638-1.14915.12105-.55907.49576-.95029.83739-.87407C72.16091,92.68518,72.338,93.20035,72.217,93.75876Z" fill="#fff"/>
            </g>
          </g>
        </g>
        <path d="M84.353,92.42363a9.76905,9.76905,0,0,1-1.278.37735c-4.4612-1.28861-9.08569-2.76684-14.51835-2.55622a26.05742,26.05742,0,0,0-8.22045,1.6322c-.0723-.03473-.15058-.063-.2238-.09628.13862-.72126,1.66114-.68175,2.7485-1.275a16.07737,16.07737,0,0,1,2.99854-.95779,40.14055,40.14055,0,0,1,7.51865.06641l.0447.00435c.59434.07373,1.19053.14193,1.781.22437,2.13063.29745,4.36411.582,6.38335,1.04479a3.7209,3.7209,0,0,1,.783.27714c.5417.26012,1.51761.73935,2.00843,1.04587A.11885.11885,0,0,1,84.353,92.42363Z" fill="#423e39"/>
      </g>
      <g>
        <g>
          <path d="M122.17136,96.39944a1.02353,1.02353,0,0,1-.17887.85553c-2.11969,2.87408-6.47632,3.54487-8.92787,3.686a44.02278,44.02278,0,0,1-7.93016-.91995.85432.85432,0,0,1-.07727-.04857.74949.74949,0,0,1-.41445-.64029.60823.60823,0,0,1,.06123-.36566,32.98241,32.98241,0,0,1,1.31575-3.32352c1.30123-2.21925,4.32755-3.774,6.94785-4.29084a16.34776,16.34776,0,0,1,1.83888-.26051c2.09644-.16834,4.40187.07331,5.7605,1.75876A10.6529,10.6529,0,0,1,122.17136,96.39944Z" fill="#010101"/>
          <g clip-path="url(#d)">
            <path d="M122.7215,97.51841c-1.10385-2.97091-2.08518-5.7308-6.01928-5.79813a15.81885,15.81885,0,0,0-9.822,3.44648c-.53416.63078-3.022,4.7255-2.24584,5.46184a7.71183,7.71183,0,0,0,1.96711.82909,26.09986,26.09986,0,0,0,5.638.53341C115.67179,102.07469,121.25967,101.29192,122.7215,97.51841Z" fill="#e6a77c"/>
          </g>
        </g>
        <g>
          <path d="M121.63932,96.74257c-.98028-2.537-1.85175-4.89389-5.34545-4.95139a14.40491,14.40491,0,0,0-8.72243,2.94317c-.47437.53866-2.68368,4.0354-1.99443,4.66421a6.99984,6.99984,0,0,0,1.7469.708,24.073,24.073,0,0,0,5.00686.45551C115.3788,100.63347,120.34114,99.965,121.63932,96.74257Z" fill="#f5e7dd"/>
          <g clip-path="url(#e)">
            <g>
              <path d="M109.66253,96.46323c0,2.79513,1.68981,5.06179,3.77682,5.06179,2.08508,0,3.77406-2.26666,3.77406-5.06179,0-2.79429-1.689-5.06-3.77406-5.06C111.35234,91.40321,109.66253,93.66894,109.66253,96.46323Z" fill="#fff"/>
              <path d="M113.43935,91.75276c1.90672,0,3.45313,2.07231,3.45313,4.62957s-1.54641,4.6305-3.45313,4.6305c-1.90948,0-3.455-2.07324-3.455-4.6305S111.52987,91.75276,113.43935,91.75276Z" fill="#327676"/>
              <path d="M111.09953,96.18621c0,1.76172,1.065,3.19109,2.38278,3.19109,1.31426,0,2.381-1.42937,2.381-3.19109,0-1.76358-1.06677-3.19294-2.381-3.19294C112.16456,92.99327,111.09953,94.42263,111.09953,96.18621Z" fill="#3d1f14"/>
              <path d="M114.77911,93.93005c.12112.55841.49708.95029.8374.87282.34033-.0749.5175-.59008.39638-1.14915-.121-.55907-.49577-.95029-.8374-.87407C114.83517,92.85647,114.65806,93.37164,114.77911,93.93005Z" fill="#fff"/>
            </g>
          </g>
        </g>
        <path d="M102.82534,92.37606a9.7686,9.7686,0,0,0,1.278.37735c4.4612-1.28861,9.08569-2.76684,14.51835-2.55622a26.05714,26.05714,0,0,1,8.22045,1.6322c.0723-.03473.15058-.06305.2238-.09628-.13862-.72126-1.66114-.68175-2.7485-1.275a16.07818,16.07818,0,0,0-2.99854-.9578,40.14084,40.14084,0,0,0-7.51865.06642l-.0447.00435c-.59434.07373-1.19053.14193-1.781.22436-2.13062.29746-4.3641.582-6.38334,1.04479a3.72129,3.72129,0,0,0-.783.27715c-.54171.26012-1.51761.73935-2.00844,1.04587A.11885.11885,0,0,0,102.82534,92.37606Z" fill="#423e39"/>
      </g>
      <g>
        <path d="M81.30844,125.98414a81.44615,81.44615,0,0,1,25.94378.17412S94.54151,139.04309,81.30844,125.98414Z" fill="#464034"/>
        <g clip-path="url(#f)">
          <path d="M87.06474,130.179s7.09537-3.12809,14.03837.20464A12.39721,12.39721,0,0,1,87.06474,130.179Z" fill="#ea4d70"/>
          <path d="M84.19177,125.33341a5.18925,5.18925,0,0,0,.84884,2.1112,133.95915,133.95915,0,0,1,18.02135,0,5.29485,5.29485,0,0,0,1.28413-2.02414A79.9905,79.9905,0,0,0,84.19177,125.33341Z" fill="#fff"/>
        </g>
      </g>
      <g>
        <path d="M75.39755,144.80011s-2.664,1.5223-1.71258,6.27947c0,0-3.04459-.57086-3.23488,6.27946a25.5013,25.5013,0,0,0-4.75717.38058,3.75025,3.75025,0,0,0-2.09316,1.52229s-3.61545-1.332-5.7086.19029v1.23686l-3.61545,1.42715s-1.5223-1.71258-1.71258,1.14173l-3.23488,3.5203-6.75518-.09514s-2.1883,1.61744-.38058,5.89889l17.69668,19.78983a36.59432,36.59432,0,0,1,2.8543,9.79977s10.18035,11.6075,17.50639,17.98211c0,0,1.998,9.32406,4.75717,15.223a56.43231,56.43231,0,0,1,4.56689,13.41522s.38057,1.04658,1.80772.47572c0,0,4.85232-4.47174,6.37461-7.04062,0,0,3.13974-5.7086,5.23289-7.70661a18.53729,18.53729,0,0,0,3.80574-2.1883,56.86636,56.86636,0,0,0,7.80176-13.89094s5.89889-5.70861,7.80176-7.04061c0,0,3.996-12.74922,15.03266-12.36865,0,0,4.18631-2.47373,5.51832-12.17836,0,0,.38057-6.85032,8.75319-13.51036,0,0,3.42517-3.61545-5.13774-8.37262,0,0-2.09316-2.85431-3.86917-.444h-1.776s.63429-2.53715-4.56688-2.02972l-1.01487,1.14172a5.40967,5.40967,0,0,1-3.93259-.76115,6.15875,6.15875,0,0,0-2.53716-.38057,16.99257,16.99257,0,0,0-5.45489-.50743l-1.26858-.76115s1.14172-2.53716-2.02972-1.26858l-2.91774-2.79087s1.01487-3.67888-.25371-5.07432a2.827,2.827,0,0,0-.38057-4.31317,24.99825,24.99825,0,0,1-4.8206,1.01487,33.52591,33.52591,0,0,1-8.7532-2.15659s-2.28344-1.26858-10.65606,3.67888a6.16715,6.16715,0,0,0-4.94746,1.26858,36.26479,36.26479,0,0,1-7.104-1.01486A19.28507,19.28507,0,0,1,75.39755,144.80011Z" fill="#474d57"/>
        <g clip-path="url(#g)">
          <path d="M82.06017,222.326a65.06053,65.06053,0,0,1,5.09284,8.33087c.14724.306.35563.66017.69507.67015a1.14627,1.14627,0,0,0-.18247-.98141q-1.20683-2.25864-2.47853-4.4818a19.36772,19.36772,0,0,0-4.67329-6.02866c-.29742-.22747-.79712-.2865-.68342.23963.07367.34088.357.31137.59881.47558A6.60274,6.60274,0,0,1,82.06017,222.326Z" fill="#3d4249"/>
          <path d="M76.96408,157.58468a11.74519,11.74519,0,0,0,1.10864,1.52692,12.97106,12.97106,0,0,0,3.96364,2.66667c.13626-.15395-.01047-.38961-.15806-.53272-.88177-.855-1.9637-1.4776-2.87365-2.30257-2.12955-1.93067-3.1316-4.76917-4.56053-7.2633-.12277-.21429-.99614-1.51463-1.25724-1.04312-.17648.31868.75466,1.69726.893,1.9633Q75.40909,155.15535,76.96408,157.58468Z" fill="#3d4249"/>
          <path d="M97.63046,159.2101a5.56649,5.56649,0,0,1,1.1918-.63641,4.7079,4.7079,0,0,1,1.05132-.17251c3.80416-.32992,7.7457-.642,11.09342-2.47869a26.658,26.658,0,0,0,3.12466-2.12112l1.77055-1.32835c.41071-.30813.99543-.618,1.392-.29191q-2.60991,2.01827-5.32738,3.8921a17.36764,17.36764,0,0,1-2.16471,1.33111,17.07722,17.07722,0,0,1-5.711,1.37422q-1.91193.21165-3.8314.34578a3.98041,3.98041,0,0,0-2.20883.65187c-1.613.88738-3.61725,2.03368-5.52058,2.02009-.72143-.00515-.83451-.36351-.15542-.54982.7457-.20458,1.48966-.28926,2.22546-.55238A15.96943,15.96943,0,0,0,97.63046,159.2101Z" fill="#3d4249"/>
          <path d="M82.97183,160.07742a7.27975,7.27975,0,0,1,1.74475,1.70411c.45807.52348.96092,1.00566,1.463,1.48706a11.35176,11.35176,0,0,0,3.90392,2.79683,8.258,8.258,0,0,0,6.40914-.862c1.96573-1.02629,3.669-2.48341,5.52978-3.6896.94891-.6151,1.93843-1.16466,2.927-1.71367a9.00067,9.00067,0,0,1,2.41857-1.04765c.15965-.0344.35875-.04564.45251.08807.14367.20487-.11755.44878-.34036.56267a59.591,59.591,0,0,0-5.61423,3.16c-.87065.57129-1.71471,1.183-2.59711,1.736a23.21546,23.21546,0,0,1-5.31289,2.45741,6.35746,6.35746,0,0,1-2.88268.38,7.157,7.157,0,0,1-2.01623-.75137,12.08282,12.08282,0,0,1-2.46162-1.48579c-1.1039-.92791-1.85942-2.19165-2.94422-3.138a9.82261,9.82261,0,0,1-1.1655-1.02483C81.98113,160.12614,82.38247,159.74509,82.97183,160.07742Z" fill="#3d4249"/>
          <path d="M72.92382,164.01908a11.088,11.088,0,0,0,2.63918,4.02679,18.4806,18.4806,0,0,1,1.97528,2.30025c.73564,1.0369,1.30256,2.30306,2.44512,2.86063a5.33642,5.33642,0,0,0,2.7295.17786,12.03945,12.03945,0,0,1,7.04852,1.70886c1.46829.89259,2.90251,2.15223,4.61936,2.08137a2.97324,2.97324,0,0,0-1.52441-1.12011,25.11873,25.11873,0,0,1-3.37083-1.79659,8.90978,8.90978,0,0,0-5.80824-1.55662,10.45638,10.45638,0,0,1-1.65856.10649,5.00285,5.00285,0,0,1-3.25466-1.92225c-.84442-.97992-1.49266-2.11689-2.34549-3.0895a26.10641,26.10641,0,0,1-1.993-2.21044c-1.20953-1.7471-1.33-3.9535-1.98236-5.92023-.11228-.33851-1.45125-2.95994-1.8504-2.63955-.48366.38821,1.25388,2.768,1.39,3.17361C72.40384,161.45427,72.48931,162.76844,72.92382,164.01908Z" fill="#3d4249"/>
          <path d="M114.39012,160.55173c-.89908.702-1.888,1.28385-2.77471,2.00144a22.99815,22.99815,0,0,0-3.434,3.74089l-6.22385,7.875a17.75128,17.75128,0,0,1-5.23937,5.02175,32.1345,32.1345,0,0,1-3.51618,1.39325,39.32168,39.32168,0,0,0-6.12638,3.25169c1.81863.04192,3.32255-1.30606,4.936-2.14628,2.12593-1.10711,4.65535-1.39213,6.60414-2.78767a13.74111,13.74111,0,0,0,2.65977-2.79238l7.79034-9.893a16.43584,16.43584,0,0,1,2.31989-2.55485c.87534-.727,1.89148-1.264,2.80661-1.94027a11.65469,11.65469,0,0,0,3.06826-4.14026.53266.53266,0,0,0-.15857-.69771c-.5715.24744-.53294,1.20879-.93558,1.68086A13.49253,13.49253,0,0,1,114.39012,160.55173Z" fill="#3d4249"/>
          <path d="M105.62549,177.67374c.99331-.73121,1.9115-1.55837,2.82783-2.384a38.11736,38.11736,0,0,0,6.32-6.695c.88106-1.30224,1.59667-2.70736,2.37047-4.076.75283-1.3316,1.56185-2.6305,2.37059-3.92891.2295-.36846.52107-.77672.95371-.81221a12.95422,12.95422,0,0,1-.91388,1.9654l-1.20149,2.24652c-.64012,1.19689-1.28089,2.39489-2.002,3.54478-3.36883,5.37167-8.40129,9.53427-13.8524,12.773-.2.11885-1.36373.77032-1.542.37492-.1448-.3212.99238-.77229,1.17267-.86818A28.14979,28.14979,0,0,0,105.62549,177.67374Z" fill="#3d4249"/>
          <path d="M117.78606,167.5978c-.62168.9653-1.32179,1.87729-2.021,2.788-2.64308,3.44255-5.4383,7.01028-9.36839,8.85184a1.45055,1.45055,0,0,0-.815.65033,1.33641,1.33641,0,0,0,1.12567-.31555c.75409-.4949,1.61693-.90585,2.371-1.40074a29.43379,29.43379,0,0,0,2.51826-1.94521,30.29856,30.29856,0,0,0,3.35685-3.5969c.87665-.99979,1.64122-2.06937,2.47372-3.09216a33.14885,33.14885,0,0,0,3.33035-5.40607c.25516-.47657,1.01211-1.89229,1.27618-2.364.17132-.306.45942-1.07672,0-.80872-.57086.333-2.05884,3.01682-2.40608,3.56739C118.9906,165.536,118.43272,166.59371,117.78606,167.5978Z" fill="#3d4249"/>
          <path d="M124.657,175.34875a50.27583,50.27583,0,0,1-4.24806,4.738c-2.97405,2.75737-6.66123,4.599-10.29344,6.40315-1.808.89808-3.618,1.79707-5.48723,2.55973a41.21046,41.21046,0,0,1-12.07475,2.902c-.2292.44861.94578.5385,1.44456.46777,8.92611-1.26571,16.72381-4.97494,24.30914-9.84734a26.07689,26.07689,0,0,0,3.49088-2.72569,47.32489,47.32489,0,0,0,4.18578-5.04233c2.57972-3.1697,5.78374-5.78645,8.21616-9.08177.53485-.72458,1.63839-1.77317,1.85143-2.65461a7.04108,7.04108,0,0,0-1.5129,1.321q-1.22242,1.30617-2.445,2.61216c-1.62288,1.74407-3.23245,3.5008-4.80726,5.2885Q125.953,173.80287,124.657,175.34875Z" fill="#3d4249"/>
          <path d="M136.13817,167.4c-4.9222,3.23158-7.4796,8.93574-10.77864,13.813a23.12457,23.12457,0,0,1-3.39025,4.10086,24.07015,24.07015,0,0,1-5.00349,3.38949c-4.4122,2.37071-9.12818,4.129-13.58532,6.41414-.30419.156-.65848.48881-.46508.77068q5.71536-2.68608,11.41681-5.40165c3.153-1.50174,6.36725-3.05492,8.84568-5.51539,2.90847-2.8874,4.55938-6.776,6.88975-10.14729a29.50954,29.50954,0,0,1,8.772-8.31962,8.36345,8.36345,0,0,0,2.68131-2.12579c.0633-.09171-.48058-.13075-.53556-.11244a1.79753,1.79753,0,0,0-.55735.41909,8.3489,8.3489,0,0,1-1.33209.98128C138.11755,166.25712,137.09439,166.77224,136.13817,167.4Z" fill="#3d4249"/>
          <path d="M141.15346,170.826a7.27927,7.27927,0,0,1-.531,2.66949c-.68432,1.37814-2.22967,2.12027-3.09447,3.39294a7.46759,7.46759,0,0,0-.89778,2.13471c-.93477,3.19524-1.51473,6.58746-3.37183,9.35052-2.2783,3.38976-6.11187,5.31227-9.52052,7.56222-.22353.14755-.46918.44354-.28682.6397.14627.15734.40609.05.58731-.0654q3.62848-2.31011,7.06233-4.90848a12.43241,12.43241,0,0,0,2.603-2.42114,13.19325,13.19325,0,0,0,1.41177-2.70971,28.24826,28.24826,0,0,0,2.03251-5.96918,8.82839,8.82839,0,0,1,.85534-3.15586,18.88875,18.88875,0,0,1,2.38189-2.39389,8.63377,8.63377,0,0,0,1.826-4.86164,29.57484,29.57484,0,0,1,.739-5.21738,1.21123,1.21123,0,0,0,.037-.9587c-.35789-.60107-.62947.07275-.72283.29715a12.58536,12.58536,0,0,0-.44979,2.07509A37.16608,37.16608,0,0,0,141.15346,170.826Z" fill="#3d4249"/>
          <path d="M145.65988,164.61731c-.71782,2.4116-.97781,4.53821-1.69564,6.94982-.57295,1.92488-1.11522,4.18569-2.34687,5.772-.80749,1.04-1.776,1.653-2.53716,2.72745a18.70535,18.70535,0,0,0-2.28344,4.8206A25.85108,25.85108,0,0,1,125.22619,198.519c-2.83671,1.54959-6.05805,2.57922-8.31582,4.89236a7.78209,7.78209,0,0,1-2.63088,2.15365c-.07759.234-1.25442.654-1.332.888,2.06719-.05433,3.75727-1.97117,5.35279-3.28668a19.53708,19.53708,0,0,1,4.35183-2.67564,28.47387,28.47387,0,0,0,15.28284-16.42111,12.468,12.468,0,0,1,1.20876-2.9191,24.93018,24.93018,0,0,1,2.45058-2.64308c1.78485-2.00876,2.5313-4.70972,3.189-7.31514q.85628-3.39205,1.63458-6.80316c.05383-.23594-.01471-.60443-.24968-.54654C145.79709,164.0078,145.77576,164.228,145.65988,164.61731Z" fill="#3d4249"/>
          <path d="M114.49538,207.16029a19.14366,19.14366,0,0,1-7.63707,1.51277c-2.64729.104-5.56288.104-7.80272,1.51891-.1789.113-.37645.323-.26586.50345.04513.07363.5672-.15084.64739-.18292a10.8322,10.8322,0,0,1,1.71258-.57086c.37886-.08419,1.07315-.27415,1.45887-.31714,2.51075-.27987,4.20376-.15129,6.71693-.40859a14.33484,14.33484,0,0,0,7.10169-2.37505c1.61772-1.18958,3.16974-2.45249,4.70263-3.74955a10.33305,10.33305,0,0,1,2.69816-1.79424c-.98075-.81867-3.86379,1.76675-4.59065,2.3708A23.75914,23.75914,0,0,1,114.49538,207.16029Z" fill="#3d4249"/>
          <path d="M70.58888,170.04678a34.30866,34.30866,0,0,0,5.21316,3.6684l6.10122,3.75009a26.97775,26.97775,0,0,0,6.53515,3.24228,1.09309,1.09309,0,0,0,1.08481-.09892c-1.017-.97326-2.479-1.273-3.78818-1.79028a19.12593,19.12593,0,0,1-2.92427-1.53636c-1.31115-.80273-2.59518-1.64875-3.87893-2.49459l-7.16007-4.71765a12.70054,12.70054,0,0,1-1.70225-1.48378,15.96361,15.96361,0,0,1-1.7889-1.7614c-.905-1.17794-1.52029-2.25934-2.334-3.50321-.33449-.51131-1.97477-4.53989-2.47373-4.44-.91266.18267,1.26836,3.582,1.48761,3.99734a27.62585,27.62585,0,0,0,2.25469,3.5507A25.642,25.642,0,0,0,70.58888,170.04678Z" fill="#3d4249"/>
          <path d="M77.33743,180.85518a26.77105,26.77105,0,0,1,4.37916,5.07591c.49465.81761.90094,1.68718,1.41655,2.49174,1.99716,3.11636,5.41693,4.97315,8.69111,6.69946a8.825,8.825,0,0,0-2.92169-2.35066,27.97666,27.97666,0,0,1-2.655-2.01686,14.99133,14.99133,0,0,1-2.17468-2.08568,24.52614,24.52614,0,0,1-1.81318-2.91333c-1.80167-3.03709-4.67786-6.4037-7.96013-7.90068C75.1947,178.92834,76.33522,179.87331,77.33743,180.85518Z" fill="#3d4249"/>
          <path d="M67.02493,177.08545a30.78484,30.78484,0,0,1,2.72521,4.14819,47.56872,47.56872,0,0,1,1.96809,5.45452,40.91117,40.91117,0,0,0,7.26888,12.78546,26.58111,26.58111,0,0,0,4.95811,4.75725c1.70225,1.20916,3.6701,2.20185,4.7838,3.968a7.597,7.597,0,0,0-2.55179-3.6226c-.90923-.7042-1.96923-1.193-2.88428-1.88965a15.07416,15.07416,0,0,1-2.55311-2.69507c-3.16209-3.96878-6.20573-8.12817-8.01514-12.86907-.7744-2.029-1.31709-4.1514-2.27155-6.10223a36.99579,36.99579,0,0,0-3.12433-4.8903,111.38994,111.38994,0,0,1-7.90237-13.07938c-.19941-.3879-1.66215-3.7887-2.10615-3.979-.61618-.26407,1.05109,3.49364,1.20515,3.80574,1.13282,2.29492,2.57775,4.76762,3.86916,6.97719C63.835,172.319,65.39529,174.74177,67.02493,177.08545Z" fill="#3d4249"/>
          <path d="M83.27786,200.26314a49.09711,49.09711,0,0,0,4.96129,5.581l2.109,2.14272c.69693.70809,1.39442,1.41671,2.13424,2.07986a25.672,25.672,0,0,0,3.99841,2.92523,6.437,6.437,0,0,0,2.87912,1.07476c.11659-.16616-.09437-.36493-.27567-.45622a38.62185,38.62185,0,0,1-4.048-2.09132c-2.49653-1.65228-4.21058-4.22218-6.31984-6.34673-2.00316-2.01768-4.4276-3.704-5.83351-6.17527a18.792,18.792,0,0,1-1.112-2.48724l-1.366-3.5006c-.03784-.097-.15739.50938-.15855.55871a4.25377,4.25377,0,0,0,.23341,1.03255,14.32491,14.32491,0,0,0,.67023,1.9513A19.09929,19.09929,0,0,0,83.27786,200.26314Z" fill="#3d4249"/>
          <path d="M55.93719,172.54627a23.28839,23.28839,0,0,0,4.97558,7.99758c-.88088-1.87268-2.354-3.66475-3.3784-5.55949a18.45263,18.45263,0,0,1-1.11924-2.41718c-1.22077-3.29371-2.20245-6.86771-3.73437-10.02176-.63754.56166-.26192,1.17309.03094,1.79417.41539.8809.77092,1.79241,1.12221,2.70036C54.54289,168.87238,55.18891,170.72907,55.93719,172.54627Z" fill="#3d4249"/>
          <path d="M59.84815,176.74937c1.07288,2.4861,2.19577,5.04525,4.16176,6.90715-.7305-1.274-1.49506-2.53227-2.12925-3.85687-2.68128-5.60022-4.79822-10.54768-6.8438-16.08978a13.514,13.514,0,0,0-.78494-1.90287c.05064.09538-.27933.41039-.2477.59187a2.98166,2.98166,0,0,0,.24852.6056c.253.64121.48084,1.29306.72333,1.93874q.74387,1.98057,1.54388,3.93942C57.5916,171.52067,58.72,174.13515,59.84815,176.74937Z" fill="#3d4249"/>
          <path d="M60.77718,193.799a23.08679,23.08679,0,0,0,5.26018,5.71438c.99635.7051,2.10158,1.25,3.07118,1.99144,2.32093,1.77481,3.66553,4.49962,5.27448,6.93847a32.79262,32.79262,0,0,0,4.10523,5.04924q-2.574-3.66222-4.91764-7.4793c-1.28606-2.09468-2.57633-4.28617-4.57884-5.7115-.78458-.55845-1.6565-.98152-2.46834-1.49954-2.51715-1.60613-4.21176-4.08786-6.0634-6.43034a5.7575,5.7575,0,0,0-.97534-.868C59.38521,192.10417,60.41977,193.2943,60.77718,193.799Z" fill="#3d4249"/>
          <path d="M105.14189,227.45076a49.74075,49.74075,0,0,1,2.46626-7.431,13.80283,13.80283,0,0,1,4.8917-5.987,1.21543,1.21543,0,0,1,1.16554-.23181l-.989.80814a13.56076,13.56076,0,0,0-5.53681,8.29446c-.46552,1.39971-.93119,2.79991-1.33755,4.21792a30.67277,30.67277,0,0,1-2.1445,6.24565,10.1153,10.1153,0,0,1-.89058,1.38132c-.27637.35785-.72928.53307-.47557-.0378.21976-.49445.61565-1.04189.84552-1.53184.26371-.56209.50229-1.13577.72237-1.71626C104.35731,230.149,104.75914,228.80157,105.14189,227.45076Z" fill="#3d4249"/>
        </g>
      </g>
    </g>
    <circle cx="93.67981" cy="93.67981" r="93.47981" fill="none" stroke="#fff" stroke-miterlimit="10" stroke-width="0.4"/>
  </g>
</svg>
