<?xml version="1.0" encoding="utf-8"?>
<!-- Generator: Adobe Illustrator 26.0.3, SVG Export Plug-In . SVG Version: 6.00 Build 0)  -->
<svg version="1.1" id="Calque_1" xmlns="http://www.w3.org/2000/svg" xmlns:xlink="http://www.w3.org/1999/xlink" x="0px" y="0px"
	 viewBox="0 0 187.4 189.2" style="enable-background:new 0 0 187.4 189.2;" xml:space="preserve">
<style type="text/css">
	.st0{fill:#71C8EA;}
	.st1{clip-path:url(#SVGID_00000178906766296130147610000015818765065254382015_);}
	.st2{fill:#C9B5A1;}
	.st3{fill:#B7A492;}
	.st4{fill:#D2BDA7;}
	.st5{fill:#C7B29A;}
	.st6{fill:#EA9217;}
	.st7{fill:#2E3D42;}
	.st8{fill:#36484D;}
	.st9{fill:#29373A;}
	.st10{fill:#3F4F59;}
	.st11{fill:#FFEF8B;}
	.st12{fill:#9E8B7E;}
	.st13{fill:#010101;}
	.st14{clip-path:url(#SVGID_00000020370952709278763380000009233672738008434839_);}
	.st15{fill:#E6A77C;}
	.st16{fill:#F5E7DD;}
	.st17{clip-path:url(#SVGID_00000088846679022181550090000000970376302772294560_);}
	.st18{fill:#FFFFFF;}
	.st19{fill:#327676;}
	.st20{fill:#3D1F14;}
	.st21{fill:#423E39;}
	.st22{clip-path:url(#SVGID_00000011722693660661287690000012717335065257904826_);}
	.st23{clip-path:url(#SVGID_00000094583759731292069970000000917002070611662736_);}
	.st24{fill:#464034;}
	.st25{clip-path:url(#SVGID_00000071547438202608712800000004477099082591980689_);}
	.st26{fill:#EA4D70;}
	.st27{fill:#474D57;}
	.st28{clip-path:url(#SVGID_00000080886143909604427640000014003870059804461185_);}
	.st29{fill:#3D4249;}
	.st30{fill:none;stroke:#FFFFFF;stroke-width:0.4;stroke-miterlimit:10;}
</style>
<g>
	<circle class="st0" cx="93.7" cy="93.7" r="93.5"/>
	<g>
		<defs>
			<circle id="SVGID_1_" cx="93.7" cy="93.7" r="93.5"/>
		</defs>
		<clipPath id="SVGID_00000054967111295530719350000002923144891000774545_">
			<use xlink:href="#SVGID_1_"  style="overflow:visible;"/>
		</clipPath>
		<g style="clip-path:url(#SVGID_00000054967111295530719350000002923144891000774545_);">
			<g>
				<g>
					<path class="st2" d="M127.6,92.2c-2.7,7.5-6,13.9-1.2,17s9.5,0.7,19-7.8c4.9-4.5,1.5-12.8-2.7-16.7
						C135.1,77.5,130.3,84.8,127.6,92.2z"/>
					<ellipse transform="matrix(0.109 -0.994 0.994 0.109 26.2896 220.6823)" class="st3" cx="136.2" cy="95.7" rx="8.9" ry="6.1"/>
				</g>
				<g>
					<path class="st2" d="M43.9,90.4c-2.9,5.4-3.7,14.8,2.4,17.2c11.8,4.6,17.1,5,20.8,0.2s-1.4-9.8-6.3-15.9
						C56,85.8,49.2,80.6,43.9,90.4z"/>
					<ellipse transform="matrix(0.8999 -0.436 0.436 0.8999 -37.9403 32.605)" class="st3" cx="52.1" cy="99" rx="6.1" ry="8.9"/>
				</g>
			</g>
			<g>
				<rect x="77.6" y="133.9" class="st4" width="32.1" height="50.1"/>
				<path class="st5" d="M77.6,148.7c5.2,1.8,10.6,2.8,16,2.9c5.5-0.2,10.9-1.1,16-2.9v-13.2H77.6V148.7z"/>
			</g>
			<path class="st4" d="M138.1,81.8c0,50.6-31.1,63.2-44,63.2c-12.9,0-44.2-12.6-44.2-63.2c0-25.5,19.7-46.2,44.1-46.2
				S138.1,56.2,138.1,81.8z"/>
			<path class="st6" d="M93.9,16.9L93.9,16.9L93.9,16.9L93.9,16.9C93.9,16.9,93.9,16.9,93.9,16.9z"/>
			<path class="st6" d="M93.9,16.9L93.9,16.9L93.9,16.9L93.9,16.9C93.9,16.9,93.9,16.9,93.9,16.9z"/>
			<g>
				<path class="st7" d="M140.8,66.3c-0.4-0.3-0.7-0.5-1.1-0.8c-0.5,0.1-1,0.1-1.5,0.2v0c-1.4,0.2-3.5,0.5-6,0.8c0,0,0,0,0,0
					c0,0,0,0-0.1,0h0c-0.1,0-0.2,0-0.3,0c-0.1,0-0.2,0-0.4,0c-0.1,0-0.3,0-0.5,0.1c-0.4,0-0.8,0.1-1.1,0.1c0,0-0.1,0-0.1,0
					c0,0-0.1,0-0.1,0c0,0,0,0-0.1,0c0,0-0.1,0-0.1,0c0,0,0.1,0,0.1,0c0.1,0,0.1,0,0.2,0c-4.4,0.5-9.5,1-13.4,1.3c-0.1,0-0.2,0-0.3,0
					c-0.1,0-0.2,0-0.3,0c-0.1,0-0.3,0-0.4,0c-0.1,0-0.2,0-0.4,0c-1.9,0.1-4.6,0.3-7.7,0.4c-3.1,4.2-8,6.8-13.2,6.9v0
					c0,0-0.1,0-0.1,0h-0.1c-0.1,0-0.1,0-0.2,0h0v0c-5.2-0.1-10-2.7-13.1-6.9c-0.6,0-1.3-0.1-1.9-0.1c-0.3,0-0.5,0-0.8,0
					c-6-0.3-12.1-0.8-17.9-1.4c0,0-0.1,0-0.1,0c0,0-0.1,0-0.1,0c0,0,0,0,0,0c0,0,0,0,0,0c-2.1-0.2-4.2-0.5-6.2-0.7
					c-0.5-0.1-1-0.1-1.5-0.2c-0.3,0-0.7-0.1-1-0.1c-0.3,0-0.5-0.1-0.8-0.1c-0.3,0-0.5-0.1-0.8-0.1v0c-0.5-0.1-1-0.1-1.5-0.2
					c-0.4,0.3-0.7,0.5-1.1,0.8c-0.5,4-1.9,9.8,5.1,10.7c1.6,0.2,3.2,0.4,4.7,0.5c1.6,1.3,3.4,2.3,5.3,3.2c3,1.2,9.7,1.8,16.3,2.2
					c6.3,0.3,12.6,0.4,15.5,0.4h0.4c2.9,0,9.1-0.1,15.5-0.4c6.6-0.3,13.3-1,16.3-2.2c1.9-0.8,3.7-1.9,5.3-3.2
					C142.7,76.2,141.7,74.2,140.8,66.3z M128.6,66.9c-0.2,0-0.3,0-0.5,0.1C128.2,66.9,128.4,66.9,128.6,66.9L128.6,66.9z
					 M130.6,74.9l-1.6,1c-0.2,0.1-0.4,0.2-0.6,0.3l-2.9,1.1c-0.4,0.1-0.8,0.2-1.2,0.3c-0.3,0.1-0.7,0.1-1.1,0.2c0,0-0.1,0-0.1,0
					c-0.2,0-0.4,0.1-0.7,0.1c-0.1,0-0.1,0-0.2,0c-0.8,0.1-1.7,0.2-2.6,0.3c-0.1,0-0.2,0-0.2,0c-0.3,0-0.5,0.1-0.8,0.1
					c-0.1,0-0.2,0-0.3,0c-0.7,0.1-1.3,0.1-2,0.2c-0.5,0-0.9,0.1-1.4,0.1c-0.2,0-0.5,0-0.7,0.1c-0.4,0-0.7,0-1.1,0.1
					c-1.1,0.1-2.2,0.1-3.3,0.2c-1,0-2,0.1-2.9,0.1c-0.1,0-0.2,0-0.2,0c-0.5,0-1.1,0-1.6,0.1c-0.9,0-1.7,0.1-2.5,0.1
					c-0.3,0-0.6,0-1,0c-0.8,0-1.5,0-2.2,0c-0.3,0-0.6,0-0.9,0h-0.1c-0.3,0-0.6,0-0.9,0c-1.3,0-2.5,0-3.4,0h-0.4c-0.9,0-2.1,0-3.4,0
					c-0.3,0-0.6,0-0.9,0h0c-0.3,0-0.6,0-1,0c-0.7,0-1.4,0-2.2,0c-0.3,0-0.7,0-1.1,0c-0.8,0-1.6,0-2.4-0.1c-0.6,0-1.1,0-1.7-0.1h0
					c-0.5,0-1,0-1.5-0.1c-0.4,0-0.8,0-1.1-0.1c-0.8,0-1.5-0.1-2.3-0.1c-0.4,0-0.7,0-1.1-0.1c-2-0.1-3.9-0.3-5.7-0.4c0,0-0.1,0-0.1,0
					c-0.3,0-0.7-0.1-1-0.1c-0.3,0-0.5-0.1-0.8-0.1c-0.1,0-0.2,0-0.4,0c-0.2,0-0.5-0.1-0.7-0.1c-0.2,0-0.4-0.1-0.6-0.1
					c-0.1,0-0.2,0-0.4-0.1c-0.3,0-0.6-0.1-0.8-0.1c-0.4-0.1-0.8-0.1-1.1-0.2c-0.5-0.1-0.9-0.2-1.2-0.3h0c-0.2-0.1-0.4-0.1-0.5-0.2
					c-0.2-0.1-0.4-0.1-0.5-0.2c-0.4-0.1-0.7-0.3-1.1-0.4c-0.4-0.1-0.7-0.3-1.1-0.5c0,0,0,0-0.1,0c-0.4-0.2-0.7-0.4-1.1-0.6
					c-0.5-0.3-1-0.6-1.5-1c-0.3-0.2-0.5-0.4-0.7-0.6c-0.5-0.4-0.9-0.8-1.3-1.3c-0.2-0.2-0.4-0.5-0.5-0.7c0.3,0.2,0.7,0.4,1,0.6
					c0.1,0.1,0.3,0.1,0.4,0.2c0.1,0,0.2,0.1,0.2,0.1c0.3,0.1,0.6,0.3,0.9,0.4c0.1,0,0.2,0.1,0.3,0.1h0c0.1,0,0.2,0.1,0.4,0.1
					c0.1,0,0.2,0.1,0.4,0.1c0.1,0,0.3,0.1,0.4,0.1h0c0.1,0,0.3,0.1,0.4,0.1h0c0.6,0.1,1.2,0.3,1.8,0.4c0.1,0,0.2,0,0.3,0.1
					c0.1,0,0.2,0,0.4,0.1s0.2,0,0.4,0.1c0.3,0,0.5,0.1,0.8,0.1c0.1,0,0.3,0,0.4,0.1c0.1,0,0.3,0,0.4,0.1c0.3,0,0.6,0.1,0.9,0.1
					c0.2,0,0.5,0.1,0.7,0.1c0.4,0,0.8,0.1,1.2,0.1c0,0,0,0,0,0c0.4,0,0.7,0.1,1.1,0.1c0.1,0,0.3,0,0.4,0c0.3,0,0.5,0,0.8,0.1
					c0,0,0,0,0,0c0.3,0,0.6,0,0.8,0.1c2,0.1,4.4,0.3,7,0.4c4.8,0.2,10.7,0.3,18,0.3h0.4c2.5,0,4.9,0,7.2,0c0.6,0,1.2,0,1.8,0
					c0,0,0.1,0,0.1,0c0.8,0,1.5,0,2.2,0c0.6,0,1.2,0,1.8,0c0.1,0,0.2,0,0.3,0c0.9,0,1.8,0,2.7-0.1c0.4,0,0.7,0,1,0c1,0,2-0.1,3-0.1
					c0.3,0,0.5,0,0.8,0c0.2,0,0.5,0,0.7,0c0.2,0,0.5,0,0.7,0c6.9-0.4,12.4-1.2,16-2.8c0.1-0.1,0.3-0.1,0.4-0.2
					c0.1-0.1,0.2-0.1,0.3-0.2c0.1-0.1,0.2-0.1,0.4-0.2c0.1-0.1,0.2-0.1,0.3-0.2c0.1-0.1,0.2-0.1,0.3-0.2C133,73,131.9,74,130.6,74.9
					L130.6,74.9z"/>
				<g>
					<path class="st8" d="M135,70.8c-0.9,1.4-2.1,2.7-3.4,3.7l-1.7,1.1c-0.2,0.1-0.4,0.2-0.6,0.3l-3,1.3c-0.4,0.1-0.8,0.3-1.3,0.4
						c-0.3,0.1-0.7,0.2-1.1,0.2c0,0-0.1,0-0.1,0c-0.2,0-0.4,0.1-0.7,0.1c-0.1,0-0.1,0-0.2,0c-0.8,0.1-1.7,0.3-2.7,0.4
						c-0.1,0-0.2,0-0.3,0c-0.3,0-0.5,0.1-0.8,0.1c-0.1,0-0.2,0-0.3,0c-0.7,0.1-1.4,0.1-2.1,0.2c-0.5,0-0.9,0.1-1.4,0.1
						c-0.2,0-0.5,0-0.8,0.1c-0.4,0-0.7,0.1-1.1,0.1c-1.1,0.1-2.3,0.2-3.4,0.2c-1,0.1-2,0.1-3,0.2c-0.1,0-0.2,0-0.2,0
						c-0.5,0-1.1,0-1.6,0.1c-0.9,0-1.7,0.1-2.6,0.1c-0.3,0-0.7,0-1,0c-0.8,0-1.6,0-2.3,0.1c-0.3,0-0.6,0-0.9,0h-0.1
						c-0.3,0-0.6,0-0.9,0c-1.4,0-2.6,0-3.5,0h-0.4c-0.9,0-2.1,0-3.5,0c-0.3,0-0.6,0-1,0h0c-0.3,0-0.7,0-1,0c-0.7,0-1.5,0-2.2-0.1
						c-0.4,0-0.7,0-1.1,0c-0.8,0-1.6-0.1-2.4-0.1c-0.6,0-1.2,0-1.8-0.1h0c-0.5,0-1,0-1.5-0.1c-0.4,0-0.8,0-1.2-0.1
						c-0.8,0-1.6-0.1-2.3-0.1c-0.4,0-0.8-0.1-1.2-0.1c-2-0.1-4-0.3-5.8-0.5c0,0-0.1,0-0.1,0c-0.4,0-0.7-0.1-1-0.1
						c-0.3,0-0.5-0.1-0.8-0.1c-0.1,0-0.3,0-0.4-0.1c-0.2,0-0.5-0.1-0.7-0.1c-0.2,0-0.4-0.1-0.7-0.1c-0.1,0-0.3,0-0.4-0.1
						C64,78,63.8,78,63.5,77.9c-0.4-0.1-0.8-0.2-1.2-0.3c-0.4-0.1-0.9-0.2-1.3-0.4h0c-0.2-0.1-0.4-0.1-0.5-0.2
						c-0.2-0.1-0.4-0.1-0.6-0.2c-0.4-0.2-0.8-0.3-1.1-0.5c-0.4-0.2-0.7-0.4-1.1-0.6c0,0,0,0-0.1,0c-0.4-0.2-0.7-0.4-1.1-0.7
						c-0.5-0.4-1.1-0.8-1.6-1.2c-0.3-0.2-0.5-0.5-0.8-0.7c-0.5-0.5-0.9-1-1.3-1.6c-0.2-0.3-0.4-0.5-0.6-0.8c0.3,0.2,0.7,0.5,1.1,0.7
						c0.1,0.1,0.3,0.2,0.5,0.3c0.1,0,0.2,0.1,0.2,0.1c0.3,0.2,0.6,0.3,1,0.5c0.1,0.1,0.2,0.1,0.4,0.2h0c0.1,0.1,0.2,0.1,0.4,0.1
						c0.1,0.1,0.3,0.1,0.4,0.1c0.1,0,0.3,0.1,0.4,0.1h0c0.1,0,0.3,0.1,0.4,0.1h0c0.6,0.2,1.2,0.4,1.9,0.5c0.1,0,0.2,0,0.3,0.1
						c0.1,0,0.2,0.1,0.4,0.1c0.2,0.1,0.4,0.1,0.7,0.1c0.1,0,0.2,0.1,0.4,0.1c0.2,0.1,0.5,0.1,0.7,0.1c0.4,0.1,0.8,0.1,1.2,0.2
						c0.3,0,0.5,0.1,0.8,0.1c0.4,0.1,0.8,0.1,1.2,0.2c0,0,0,0,0,0c0.4,0,0.8,0.1,1.2,0.1c0.1,0,0.3,0,0.4,0c0.3,0,0.5,0.1,0.8,0.1
						c0,0,0,0,0,0c0.3,0,0.6,0.1,0.9,0.1c2.1,0.2,4.5,0.3,7.2,0.4c4.9,0.2,10.9,0.3,18.4,0.3h0.4c2.5,0,5,0,7.4,0c0.6,0,1.2,0,1.8,0
						c0,0,0.1,0,0.1,0c0.8,0,1.5,0,2.3,0c0.6,0,1.2,0,1.9,0c0.1,0,0.2,0,0.3,0c0.9,0,1.9,0,2.8-0.1c0.4,0,0.7,0,1.1,0
						c1,0,2-0.1,3-0.1c0.3,0,0.5,0,0.8,0c0.3,0,0.5,0,0.8,0c0.2,0,0.5,0,0.7,0c7.3-0.5,12.8-1.4,16.4-3.3c0.1-0.1,0.3-0.1,0.4-0.2
						c0.1-0.1,0.2-0.1,0.4-0.2c0.1-0.1,0.2-0.1,0.4-0.2c0.1-0.1,0.2-0.1,0.3-0.2C134.8,71,134.9,70.9,135,70.8z"/>
					<path class="st8" d="M116.9,28c0.5-1,1.2-2.5,1.1-2.7c-4.9-5-17.1-7.9-24.1-8h0c0,0,0,0-0.1,0c0,0-0.1,0-0.1,0c0,0-0.1,0-0.1,0
						c0,0,0,0-0.1,0c-6.9,0.1-19.2,3-24.1,8c-0.1,0.2,0.6,1.6,1.1,2.7c-15.2,9.8-21.2,22.1-21.2,38.2v0c0.3,0,0.5,0.1,0.8,0.1
						c0.3,0,0.5,0.1,0.8,0.1c0.3,0,0.7,0.1,1,0.1c0.5,0.1,1,0.1,1.5,0.2c1.5,0.2,3,0.4,4.5,0.5c0.1,0,0.1,0,0.2,0
						c0.2,0,0.3,0,0.5,0.1c0.1,0,0.2,0,0.3,0c6.6,0.7,13.2,1.2,18.9,1.5c0.3,0,0.5,0,0.8,0c0.7,0,1.3,0.1,1.9,0.1
						c2.3,0.1,4.3,0.2,6.2,0.3c3.3,0.1,5.7,0.1,6.9,0.1c0.1,0,0.1,0,0.2,0c0.1,0,0.1,0,0.2,0c1.3,0.1,4,0,7.1-0.1
						c1.1,0,2.2-0.1,3.3-0.1c0.2,0,0.4,0,0.6,0c0.1,0,0.1,0,0.2,0c0.7,0,1.3-0.1,2-0.1c3-0.1,5.9-0.3,7.7-0.4c0.1,0,0.3,0,0.4,0
						c0.1,0,0.3,0,0.4,0c0.1,0,0.2,0,0.3,0c0.1,0,0.2,0,0.3,0c3.9-0.3,9-0.8,13.4-1.3l0.2,0c0.1,0,0.2,0,0.3,0c0.1,0,0.2,0,0.4,0
						l0.3,0c0.2,0,0.3,0,0.5-0.1c0.1,0,0.2,0,0.4,0c0.1,0,0.2,0,0.3,0c0,0,0,0,0.1,0h0c0,0,0,0,0.1,0c0,0,0,0,0,0
						c2.5-0.3,4.7-0.6,6-0.8v0C138.1,50.3,132.3,37.9,116.9,28z M83.3,62c-0.5-1-1.1-2.2-1.7-3.4c-0.2-0.4-0.4-0.8-0.6-1.2
						c-0.1-0.2-0.2-0.4-0.3-0.5c-0.1-0.1-0.1-0.3-0.2-0.4c0-0.1-0.1-0.1-0.1-0.2c-0.1-0.1-0.1-0.2-0.2-0.4c-0.1-0.3-0.3-0.5-0.4-0.8
						c-0.2-0.3-0.3-0.6-0.5-0.9c-0.2-0.3-0.3-0.6-0.5-1c-0.1-0.3-0.3-0.6-0.4-0.8c-0.3-0.6-0.6-1.2-0.9-1.9
						c-0.2-0.4-0.4-0.8-0.6-1.2c0,0,0,0,0,0c-0.2-0.3-0.3-0.7-0.5-1c0,0,0,0,0,0c-0.3-0.6-0.6-1.2-1-1.8c-1-1.9-2-3.7-3-5.6
						c-0.2-0.3-0.3-0.6-0.5-0.9c-0.2-0.4-0.4-0.8-0.7-1.2c-1.3-2.4-2.7-4.6-4-6.6c0,0,0,0,0.1-0.1c0.1-0.1,0.2-0.1,0.3-0.2
						c0,0,0.1-0.1,0.1-0.1c1-0.9,3.1-2.7,3.3-2.8c0.1,0.3,0.3,0.7,0.5,1.1c0.2,0.4,0.3,0.7,0.5,1.1c1.7,3.9,4.1,9.9,6.6,16.6
						c0.1,0.3,0.2,0.7,0.4,1c0.3,0.8,0.6,1.7,0.9,2.5c0,0,0,0.1,0,0.1c0.1,0.3,0.2,0.6,0.3,0.9c0.1,0.2,0.1,0.3,0.2,0.5
						c0.1,0.2,0.2,0.5,0.2,0.7c0.4,1.2,0.8,2.3,1.2,3.4c0,0,0,0.1,0,0.1c0.1,0.2,0.1,0.4,0.2,0.6c0.1,0.2,0.2,0.5,0.2,0.7
						c0.1,0.3,0.2,0.7,0.3,1c0,0,0,0.1,0,0.1c0,0,0,0.1,0,0.1c0,0,0,0,0,0c0,0,0,0,0,0.1l0,0c0.1,0.4,0.3,0.9,0.4,1.3v0
						c0,0.1,0.1,0.2,0.1,0.3c0,0.1,0,0.1,0.1,0.2c0,0.1,0,0.1,0,0.2C83.1,61.6,83.2,61.8,83.3,62L83.3,62z M119.2,33.8
						c-0.3,0.5-0.6,1-0.9,1.5c-0.1,0.2-0.3,0.4-0.4,0.7c-0.2,0.4-0.5,0.8-0.7,1.3c-0.2,0.3-0.3,0.5-0.5,0.8
						c-0.1,0.2-0.3,0.5-0.4,0.7c-0.1,0.1-0.1,0.2-0.2,0.3c-0.3,0.5-0.5,1-0.8,1.4c-1.1,2-2.2,4-3.3,6.1c-0.2,0.4-0.4,0.8-0.6,1.2
						c-0.6,1.1-1.1,2.2-1.7,3.3c-0.1,0.3-0.3,0.5-0.4,0.8c-0.1,0.2-0.2,0.4-0.3,0.7c0,0,0,0,0,0h0l-0.1,0.3
						c-0.1,0.2-0.2,0.3-0.2,0.5c-0.1,0.2-0.2,0.3-0.2,0.5c-0.2,0.5-0.5,0.9-0.7,1.4c-0.2,0.3-0.3,0.6-0.5,0.9c0,0.1-0.1,0.1-0.1,0.2
						c-0.2,0.4-0.4,0.8-0.6,1.2c-0.9,1.7-1.7,3.3-2.4,4.7c0.1-0.5,0.3-0.9,0.4-1.4c0.1-0.2,0.1-0.4,0.2-0.6l0-0.1c0,0,0-0.1,0-0.1
						c0.2-0.5,0.4-1.1,0.5-1.7v0h0c0-0.1,0-0.1,0-0.2c0.1-0.4,0.2-0.7,0.4-1.1c0,0,0,0,0,0h0c0-0.1,0.1-0.2,0.1-0.3v0l0.1-0.2l0,0
						c0,0,0,0,0,0c0.1-0.2,0.1-0.4,0.2-0.5c0.2-0.5,0.4-1.1,0.6-1.6c0.1-0.2,0.2-0.5,0.2-0.7c0.3-1,0.7-1.9,1-2.9
						c2.6-7.3,5.5-14.5,8.5-21.7c1,0.9,2.8,2.3,3.5,2.9c0.2,0.1,0.3,0.2,0.3,0.3C119.9,32.6,119.5,33.2,119.2,33.8z"/>
					<path class="st7" d="M84.7,65.2c-0.6-1.2-1.2-2.4-1.9-3.8c-0.2-0.4-0.4-0.9-0.7-1.3c-0.1-0.2-0.2-0.4-0.3-0.6
						c-0.1-0.2-0.2-0.3-0.2-0.5c0-0.1-0.1-0.1-0.1-0.2c-0.1-0.1-0.1-0.3-0.2-0.4c-0.1-0.3-0.3-0.6-0.4-0.9c-0.2-0.3-0.3-0.7-0.5-1
						c-0.2-0.4-0.4-0.7-0.5-1.1c-0.2-0.3-0.3-0.6-0.5-0.9c-0.3-0.7-0.7-1.4-1.1-2.1c-0.2-0.5-0.5-0.9-0.7-1.4c0,0,0,0,0,0
						c-0.2-0.4-0.4-0.7-0.6-1.1c0,0,0,0,0,0c-0.4-0.7-0.7-1.4-1.1-2c-1.1-2.1-2.2-4.1-3.3-6.2c-0.2-0.3-0.4-0.7-0.6-1
						c-0.2-0.4-0.5-0.9-0.7-1.3c-1.5-2.6-3-5.1-4.5-7.4c0,0,0.1,0,0.1-0.1c0.1-0.1,0.2-0.2,0.3-0.3c0,0,0.1-0.1,0.1-0.1
						c1.1-1,3.5-3,3.7-3.1c0.2,0.4,0.3,0.8,0.5,1.2c0.2,0.4,0.3,0.7,0.5,1.2c1.8,4.4,4.6,11,7.3,18.5c0.1,0.4,0.3,0.7,0.4,1.1
						c0.3,0.9,0.7,1.9,1,2.8c0,0,0,0.1,0,0.1c1.3,3.6,2.5,7.2,3.6,10.9C84.5,64.5,84.6,64.9,84.7,65.2z"/>
					<path class="st7" d="M102.9,64.5L102.9,64.5L102.9,64.5c3.9-12.3,8.4-24.4,13.6-36.3c0.3,0.1,4,3.3,4.2,3.5
						C114.2,41.7,106.9,56.6,102.9,64.5z"/>
				</g>
				<g>
					<path class="st9" d="M110.6,58.8c0,3.6-1.1,7-3.2,9.9c0,0,0,0,0,0c-3.2,4.3-8.2,6.9-13.6,6.9h-0.1c-5.3,0-10.3-2.6-13.5-6.9
						c0,0,0,0,0,0c-3.5-4.8-4.2-11-1.9-16.5v0C81,46.1,87,42.1,93.7,42h0.1c5.9,0,11.3,3.1,14.4,8.1c0,0,0,0.1,0.1,0.1c0,0,0,0,0,0
						c0.4,0.6,0.7,1.3,1,1.9h0C110.2,54.3,110.6,56.6,110.6,58.8z"/>
					<path class="st10" d="M106.6,58.7c0,7-5.6,12.6-12.6,12.6c-7,0-12.6-5.6-12.6-12.6S87,46.1,94,46.1c0,0,0,0,0,0
						C100.9,46.1,106.6,51.7,106.6,58.7z"/>
					<path class="st11" d="M100.8,58.7c0,3.8-3.1,6.8-6.8,6.8c-3.8,0-6.8-3.1-6.8-6.8s3.1-6.8,6.8-6.8c0,0,0,0,0,0
						C97.7,51.8,100.8,54.9,100.8,58.7z"/>
				</g>
			</g>
			<path class="st12" d="M93.8,116.5c-2.1-0.2-4.1-0.6-6.1-1.3c0,0,0,0-0.1-0.1c1.8,0.2,3.6,0.4,5.4,0.8c1.6,0.3,3.3-0.5,4.9-0.6
				c-0.2-3.8-1.3-13.7-1.6-16.2c0,0,0,0,0,0c0.6,1.5,0.9,3,1,4.5c0.2,1.3,1.5,9.8,1.8,11.2c0.1,0.7-1.1,1-1.1,0.9
				c-2.4,1.6-3,1.9-5,1.9c-1.6,0-2.7,0.3-4.5-1.6c1,0.6,1.6,1.3,5.2,1c0.8-0.2,1.6-0.4,2.4-0.9C95.3,116.4,94.5,116.4,93.8,116.5z"
				/>
			<g>
				<g>
					<path class="st13" d="M64.8,96.6c-0.1,0.3,0,0.6,0.2,0.9c2.1,2.9,6.5,3.5,8.9,3.7c2.7-0.1,5.3-0.4,7.9-0.9c0,0,0.1,0,0.1,0
						c0.2-0.1,0.4-0.4,0.4-0.6c0-0.1,0-0.3-0.1-0.4c-0.4-1.1-0.8-2.2-1.3-3.3c-1.3-2.2-4.3-3.8-6.9-4.3c-0.6-0.1-1.2-0.2-1.8-0.3
						c-2.1-0.2-4.4,0.1-5.8,1.8C65.7,94.1,65.1,95.3,64.8,96.6z"/>
					<g>
						<defs>
							<path id="SVGID_00000034071311326937409760000001160765992992016000_" d="M64.8,96.6c-0.1,0.3,0,0.6,0.2,0.9
								c2.1,2.9,6.5,3.5,8.9,3.7c2.7-0.1,5.3-0.4,7.9-0.9c0,0,0.1,0,0.1,0c0.2-0.1,0.4-0.4,0.4-0.6c0-0.1,0-0.3-0.1-0.4
								c-0.4-1.1-0.8-2.2-1.3-3.3c-1.3-2.2-4.3-3.8-6.9-4.3c-0.6-0.1-1.2-0.2-1.8-0.3c-2.1-0.2-4.4,0.1-5.8,1.8
								C65.7,94.1,65.1,95.3,64.8,96.6z"/>
						</defs>
						<clipPath id="SVGID_00000057118413031030272440000001103198309860633492_">
							<use xlink:href="#SVGID_00000034071311326937409760000001160765992992016000_"  style="overflow:visible;"/>
						</clipPath>
						<g style="clip-path:url(#SVGID_00000057118413031030272440000001103198309860633492_);">
							<path class="st15" d="M64.3,97.7c1.1-3,2.1-5.7,6-5.8c3.6,0,7,1.2,9.8,3.4c0.5,0.6,3,4.7,2.2,5.5c-0.6,0.4-1.3,0.6-2,0.8
								c-1.9,0.4-3.7,0.6-5.6,0.5C71.3,102.3,65.7,101.5,64.3,97.7z"/>
						</g>
					</g>
				</g>
				<g>
					<path class="st16" d="M65.5,96.8c1-2.5,1.9-4.9,5.3-5c3.2,0,6.2,1,8.7,2.9c0.5,0.5,2.7,4,2,4.7c-0.5,0.3-1.1,0.6-1.7,0.7
						c-1.6,0.3-3.3,0.5-5,0.5C71.8,100.7,66.8,100,65.5,96.8z"/>
					<g>
						<defs>
							<path id="SVGID_00000068658572634309984920000004776934788082329248_" d="M65.5,96.8c1-2.5,1.9-4.9,5.3-5
								c3.2,0,6.2,1,8.7,2.9c0.5,0.5,2.7,4,2,4.7c-0.5,0.3-1.1,0.6-1.7,0.7c-1.6,0.3-3.3,0.5-5,0.5C71.8,100.7,66.8,100,65.5,96.8z"
								/>
						</defs>
						<clipPath id="SVGID_00000155108949548406082210000005776404253738096028_">
							<use xlink:href="#SVGID_00000068658572634309984920000004776934788082329248_"  style="overflow:visible;"/>
						</clipPath>
						<g style="clip-path:url(#SVGID_00000155108949548406082210000005776404253738096028_);">
							<g>
								<path class="st18" d="M77.3,96.3c0,2.8-1.7,5.1-3.8,5.1c-2.1,0-3.8-2.3-3.8-5.1c0-2.8,1.7-5.1,3.8-5.1
									C75.6,91.2,77.3,93.5,77.3,96.3z"/>
								<path class="st19" d="M73.6,91.6c-1.9,0-3.5,2.1-3.5,4.6s1.5,4.6,3.5,4.6c1.9,0,3.5-2.1,3.5-4.6S75.5,91.6,73.6,91.6z"/>
								<path class="st20" d="M75.9,96c0,1.8-1.1,3.2-2.4,3.2c-1.3,0-2.4-1.4-2.4-3.2c0-1.8,1.1-3.2,2.4-3.2
									C74.8,92.8,75.9,94.3,75.9,96z"/>
								<path class="st18" d="M72.2,93.8c-0.1,0.6-0.5,1-0.8,0.9C71,94.6,70.9,94,71,93.5c0.1-0.6,0.5-1,0.8-0.9
									C72.2,92.7,72.3,93.2,72.2,93.8z"/>
							</g>
						</g>
					</g>
				</g>
				<path class="st21" d="M84.4,92.4c-0.4,0.2-0.8,0.3-1.3,0.4c-4.5-1.3-9.1-2.8-14.5-2.6c-2.8,0.1-5.6,0.6-8.2,1.6
					c-0.1,0-0.2-0.1-0.2-0.1c0.1-0.7,1.7-0.7,2.7-1.3c1-0.4,2-0.7,3-1c2.5-0.2,5-0.2,7.5,0.1l0,0c0.6,0.1,1.2,0.1,1.8,0.2
					c2.1,0.3,4.4,0.6,6.4,1c0.3,0.1,0.5,0.2,0.8,0.3c0.5,0.3,1.5,0.7,2,1C84.4,92.2,84.5,92.3,84.4,92.4
					C84.4,92.4,84.4,92.4,84.4,92.4z"/>
			</g>
			<g>
				<g>
					<path class="st13" d="M122.2,96.4c0.1,0.3,0,0.6-0.2,0.9c-2.1,2.9-6.5,3.5-8.9,3.7c-2.7-0.1-5.3-0.4-7.9-0.9c0,0-0.1,0-0.1,0
						c-0.2-0.1-0.4-0.4-0.4-0.6c0-0.1,0-0.3,0.1-0.4c0.4-1.1,0.8-2.2,1.3-3.3c1.3-2.2,4.3-3.8,6.9-4.3c0.6-0.1,1.2-0.2,1.8-0.3
						c2.1-0.2,4.4,0.1,5.8,1.8C121.3,93.9,121.9,95.1,122.2,96.4z"/>
					<g>
						<defs>
							<path id="SVGID_00000154408907076020055010000010167847473598531504_" d="M122.2,96.4c0.1,0.3,0,0.6-0.2,0.9
								c-2.1,2.9-6.5,3.5-8.9,3.7c-2.7-0.1-5.3-0.4-7.9-0.9c0,0-0.1,0-0.1,0c-0.2-0.1-0.4-0.4-0.4-0.6c0-0.1,0-0.3,0.1-0.4
								c0.4-1.1,0.8-2.2,1.3-3.3c1.3-2.2,4.3-3.8,6.9-4.3c0.6-0.1,1.2-0.2,1.8-0.3c2.1-0.2,4.4,0.1,5.8,1.8
								C121.3,93.9,121.9,95.1,122.2,96.4z"/>
						</defs>
						<clipPath id="SVGID_00000163756218431801728940000012107075331278029757_">
							<use xlink:href="#SVGID_00000154408907076020055010000010167847473598531504_"  style="overflow:visible;"/>
						</clipPath>
						<g style="clip-path:url(#SVGID_00000163756218431801728940000012107075331278029757_);">
							<path class="st15" d="M122.7,97.5c-1.1-3-2.1-5.7-6-5.8c-3.6,0-7,1.2-9.8,3.4c-0.5,0.6-3,4.7-2.2,5.5c0.6,0.4,1.3,0.6,2,0.8
								c1.9,0.4,3.7,0.6,5.6,0.5C115.7,102.1,121.3,101.3,122.7,97.5z"/>
						</g>
					</g>
				</g>
				<g>
					<path class="st16" d="M121.6,96.7c-1-2.5-1.9-4.9-5.3-5c-3.2,0-6.2,1-8.7,2.9c-0.5,0.5-2.7,4-2,4.7c0.5,0.3,1.1,0.6,1.7,0.7
						c1.6,0.3,3.3,0.5,5,0.5C115.4,100.6,120.3,100,121.6,96.7z"/>
					<g>
						<defs>
							<path id="SVGID_00000117635349700456361750000002822184447650351526_" d="M121.6,96.7c-1-2.5-1.9-4.9-5.3-5
								c-3.2,0-6.2,1-8.7,2.9c-0.5,0.5-2.7,4-2,4.7c0.5,0.3,1.1,0.6,1.7,0.7c1.6,0.3,3.3,0.5,5,0.5
								C115.4,100.6,120.3,100,121.6,96.7z"/>
						</defs>
						<clipPath id="SVGID_00000022532252759167945890000012372785702592624307_">
							<use xlink:href="#SVGID_00000117635349700456361750000002822184447650351526_"  style="overflow:visible;"/>
						</clipPath>
						<g style="clip-path:url(#SVGID_00000022532252759167945890000012372785702592624307_);">
							<g>
								<path class="st18" d="M109.7,96.5c0,2.8,1.7,5.1,3.8,5.1c2.1,0,3.8-2.3,3.8-5.1c0-2.8-1.7-5.1-3.8-5.1
									C111.4,91.4,109.7,93.7,109.7,96.5z"/>
								<path class="st19" d="M113.4,91.8c1.9,0,3.5,2.1,3.5,4.6s-1.5,4.6-3.5,4.6c-1.9,0-3.5-2.1-3.5-4.6S111.5,91.8,113.4,91.8z"
									/>
								<path class="st20" d="M111.1,96.2c0,1.8,1.1,3.2,2.4,3.2c1.3,0,2.4-1.4,2.4-3.2c0-1.8-1.1-3.2-2.4-3.2
									C112.2,93,111.1,94.4,111.1,96.2z"/>
								<path class="st18" d="M114.8,93.9c0.1,0.6,0.5,1,0.8,0.9c0.3-0.1,0.5-0.6,0.4-1.1c-0.1-0.6-0.5-1-0.8-0.9
									C114.8,92.9,114.7,93.4,114.8,93.9z"/>
							</g>
						</g>
					</g>
				</g>
				<path class="st21" d="M102.8,92.4c0.4,0.2,0.8,0.3,1.3,0.4c4.5-1.3,9.1-2.8,14.5-2.6c2.8,0.1,5.6,0.6,8.2,1.6
					c0.1,0,0.2-0.1,0.2-0.1c-0.1-0.7-1.7-0.7-2.7-1.3c-1-0.4-2-0.7-3-1c-2.5-0.2-5-0.2-7.5,0.1l0,0c-0.6,0.1-1.2,0.1-1.8,0.2
					c-2.1,0.3-4.4,0.6-6.4,1c-0.3,0.1-0.5,0.2-0.8,0.3c-0.5,0.3-1.5,0.7-2,1C102.7,92.2,102.7,92.3,102.8,92.4
					C102.8,92.4,102.8,92.4,102.8,92.4z"/>
			</g>
			<g>
				<path class="st24" d="M81.3,126c8.6-1.3,17.4-1.3,25.9,0.2C107.3,126.2,94.5,139,81.3,126z"/>
				<g>
					<defs>
						<path id="SVGID_00000011729878970165624370000009699486018658707584_" d="M81.3,126c8.6-1.3,17.4-1.3,25.9,0.2
							C107.3,126.2,94.5,139,81.3,126z"/>
					</defs>
					<clipPath id="SVGID_00000039101324363310446510000010496115609898691464_">
						<use xlink:href="#SVGID_00000011729878970165624370000009699486018658707584_"  style="overflow:visible;"/>
					</clipPath>
					<g style="clip-path:url(#SVGID_00000039101324363310446510000010496115609898691464_);">
						<path class="st26" d="M87.1,130.2c0,0,7.1-3.1,14,0.2C96.8,133.2,91.3,133.1,87.1,130.2z"/>
						<path class="st18" d="M84.2,125.3c0.1,0.8,0.4,1.5,0.8,2.1c6-0.4,12-0.4,18,0c0.6-0.6,1-1.3,1.3-2
							C97.7,124.5,90.9,124.5,84.2,125.3z"/>
					</g>
				</g>
			</g>
			<g>
				<path class="st27" d="M75.4,144.8c0,0-2.7,1.5-1.7,6.3c0,0-3-0.6-3.2,6.3c-1.6,0-3.2,0.1-4.8,0.4c-0.9,0.2-1.6,0.8-2.1,1.5
					c0,0-3.6-1.3-5.7,0.2v1.2l-3.6,1.4c0,0-1.5-1.7-1.7,1.1l-3.2,3.5l-6.8-0.1c0,0-2.2,1.6-0.4,5.9l17.7,19.8
					c1.4,3.1,2.4,6.4,2.9,9.8c0,0,10.2,11.6,17.5,18c0,0,2,9.3,4.8,15.2c2.1,4.3,3.6,8.8,4.6,13.4c0,0,0.4,1,1.8,0.5
					c0,0,4.9-4.5,6.4-7c0,0,3.1-5.7,5.2-7.7c1.4-0.6,2.6-1.3,3.8-2.2c3.2-4.2,5.9-8.9,7.8-13.9c0,0,5.9-5.7,7.8-7
					c0,0,4-12.7,15-12.4c0,0,4.2-2.5,5.5-12.2c0,0,0.4-6.9,8.8-13.5c0,0,3.4-3.6-5.1-8.4c0,0-2.1-2.9-3.9-0.4h-1.8
					c0,0,0.6-2.5-4.6-2l-1,1.1c-1.4,0.3-2.8,0-3.9-0.8c-0.8-0.3-1.7-0.4-2.5-0.4c-1.8-0.5-3.6-0.6-5.5-0.5l-1.3-0.8
					c0,0,1.1-2.5-2-1.3l-2.9-2.8c0,0,1-3.7-0.3-5.1c1.1-1.1,1.1-2.9,0-4c-0.1-0.1-0.2-0.2-0.4-0.3c-1.6,0.5-3.2,0.8-4.8,1
					c-3-0.3-5.9-1-8.8-2.2c0,0-2.3-1.3-10.7,3.7c-1.8-0.3-3.6,0.2-4.9,1.3c-2.4-0.1-4.8-0.4-7.1-1C78.3,149,76.6,147,75.4,144.8z"/>
				<g>
					<defs>
						<path id="SVGID_00000145058021114696550530000005363628112643100069_" d="M75.4,144.8c0,0-2.7,1.5-1.7,6.3c0,0-3-0.6-3.2,6.3
							c-1.6,0-3.2,0.1-4.8,0.4c-0.9,0.2-1.6,0.8-2.1,1.5c0,0-3.6-1.3-5.7,0.2v1.2l-3.6,1.4c0,0-1.5-1.7-1.7,1.1l-3.2,3.5l-6.8-0.1
							c0,0-2.2,1.6-0.4,5.9l17.7,19.8c1.4,3.1,2.4,6.4,2.9,9.8c0,0,10.2,11.6,17.5,18c0,0,2,9.3,4.8,15.2c2.1,4.3,3.6,8.8,4.6,13.4
							c0,0,0.4,1,1.8,0.5c0,0,4.9-4.5,6.4-7c0,0,3.1-5.7,5.2-7.7c1.4-0.6,2.6-1.3,3.8-2.2c3.2-4.2,5.9-8.9,7.8-13.9
							c0,0,5.9-5.7,7.8-7c0,0,4-12.7,15-12.4c0,0,4.2-2.5,5.5-12.2c0,0,0.4-6.9,8.8-13.5c0,0,3.4-3.6-5.1-8.4c0,0-2.1-2.9-3.9-0.4
							h-1.8c0,0,0.6-2.5-4.6-2l-1,1.1c-1.4,0.3-2.8,0-3.9-0.8c-0.8-0.3-1.7-0.4-2.5-0.4c-1.8-0.5-3.6-0.6-5.5-0.5l-1.3-0.8
							c0,0,1.1-2.5-2-1.3l-2.9-2.8c0,0,1-3.7-0.3-5.1c1.1-1.1,1.1-2.9,0-4c-0.1-0.1-0.2-0.2-0.4-0.3c-1.6,0.5-3.2,0.8-4.8,1
							c-3-0.3-5.9-1-8.8-2.2c0,0-2.3-1.3-10.7,3.7c-1.8-0.3-3.6,0.2-4.9,1.3c-2.4-0.1-4.8-0.4-7.1-1C78.3,149,76.6,147,75.4,144.8z"
							/>
					</defs>
					<clipPath id="SVGID_00000164471618448947976470000013846906814776909720_">
						<use xlink:href="#SVGID_00000145058021114696550530000005363628112643100069_"  style="overflow:visible;"/>
					</clipPath>
					<g style="clip-path:url(#SVGID_00000164471618448947976470000013846906814776909720_);">
						<path class="st29" d="M82.1,222.3c1.9,2.6,3.6,5.4,5.1,8.3c0.1,0.3,0.4,0.7,0.7,0.7c0.1-0.3,0-0.7-0.2-1
							c-0.8-1.5-1.6-3-2.5-4.5c-1.1-2.3-2.7-4.3-4.7-6c-0.3-0.2-0.8-0.3-0.7,0.2c0.1,0.3,0.4,0.3,0.6,0.5
							C81.1,221,81.6,221.6,82.1,222.3z"/>
						<path class="st29" d="M77,157.6c0.3,0.5,0.7,1,1.1,1.5c1.1,1.1,2.5,2,4,2.7c0.1-0.2,0-0.4-0.2-0.5c-0.9-0.9-2-1.5-2.9-2.3
							c-2.1-1.9-3.1-4.8-4.6-7.3c-0.1-0.2-1-1.5-1.3-1c-0.2,0.3,0.8,1.7,0.9,2C75,154.3,75.9,156,77,157.6z"/>
						<path class="st29" d="M97.6,159.2c0.4-0.3,0.8-0.5,1.2-0.6c0.3-0.1,0.7-0.2,1.1-0.2c3.8-0.3,7.7-0.6,11.1-2.5
							c1.1-0.6,2.1-1.3,3.1-2.1l1.8-1.3c0.4-0.3,1-0.6,1.4-0.3c-1.7,1.3-3.5,2.6-5.3,3.9c-0.7,0.5-1.4,0.9-2.2,1.3
							c-1.8,0.8-3.7,1.2-5.7,1.4c-1.3,0.1-2.6,0.3-3.8,0.3c-0.8,0-1.6,0.2-2.2,0.7c-1.6,0.9-3.6,2-5.5,2c-0.7,0-0.8-0.4-0.2-0.5
							c0.7-0.2,1.5-0.3,2.2-0.6C95.6,160.3,96.7,159.8,97.6,159.2z"/>
						<path class="st29" d="M83,160.1c0.7,0.5,1.3,1,1.7,1.7c0.5,0.5,1,1,1.5,1.5c1.1,1.2,2.4,2.2,3.9,2.8c2.2,0.6,4.5,0.3,6.4-0.9
							c2-1,3.7-2.5,5.5-3.7c0.9-0.6,1.9-1.2,2.9-1.7c0.8-0.5,1.6-0.8,2.4-1c0.2,0,0.4,0,0.5,0.1c0.1,0.2-0.1,0.4-0.3,0.6
							c-1.9,1-3.8,2-5.6,3.2c-0.9,0.6-1.7,1.2-2.6,1.7c-1.7,1-3.4,1.9-5.3,2.5c-0.9,0.3-1.9,0.5-2.9,0.4c-0.7-0.1-1.4-0.4-2-0.8
							c-0.9-0.4-1.7-0.9-2.5-1.5c-1.1-0.9-1.9-2.2-2.9-3.1c-0.4-0.3-0.8-0.7-1.2-1C82,160.1,82.4,159.7,83,160.1z"/>
						<path class="st29" d="M72.9,164c0.6,1.5,1.5,2.9,2.6,4c0.7,0.7,1.4,1.5,2,2.3c0.7,1,1.3,2.3,2.4,2.9c0.9,0.3,1.8,0.4,2.7,0.2
							c2.5-0.2,4.9,0.4,7,1.7c1.5,0.9,2.9,2.2,4.6,2.1c-0.4-0.5-0.9-0.9-1.5-1.1c-1.2-0.5-2.3-1.1-3.4-1.8c-1.7-1.2-3.8-1.7-5.8-1.6
							c-0.5,0.1-1.1,0.1-1.7,0.1c-1.3-0.2-2.5-0.9-3.3-1.9c-0.8-1-1.5-2.1-2.3-3.1c-0.7-0.7-1.4-1.4-2-2.2c-1.2-1.7-1.3-4-2-5.9
							c-0.1-0.3-1.5-3-1.9-2.6c-0.5,0.4,1.3,2.8,1.4,3.2C72.4,161.5,72.5,162.8,72.9,164z"/>
						<path class="st29" d="M114.4,160.6c-0.9,0.7-1.9,1.3-2.8,2c-1.3,1.1-2.4,2.4-3.4,3.7l-6.2,7.9c-1.4,2-3.2,3.7-5.2,5
							c-1.1,0.5-2.3,1-3.5,1.4c-2.1,0.9-4.2,2-6.1,3.3c1.8,0,3.3-1.3,4.9-2.1c2.1-1.1,4.7-1.4,6.6-2.8c1-0.8,1.9-1.7,2.7-2.8
							l7.8-9.9c0.7-0.9,1.5-1.8,2.3-2.6c0.9-0.7,1.9-1.3,2.8-1.9c1.3-1.1,2.4-2.5,3.1-4.1c0.1-0.2,0.1-0.5-0.2-0.7
							c-0.6,0.2-0.5,1.2-0.9,1.7C115.6,159.3,115,159.9,114.4,160.6z"/>
						<path class="st29" d="M105.6,177.7c1-0.7,1.9-1.6,2.8-2.4c2.4-2,4.5-4.2,6.3-6.7c0.9-1.3,1.6-2.7,2.4-4.1
							c0.8-1.3,1.6-2.6,2.4-3.9c0.2-0.4,0.5-0.8,1-0.8c-0.2,0.7-0.6,1.3-0.9,2l-1.2,2.2c-0.6,1.2-1.3,2.4-2,3.5
							c-3.4,5.4-8.4,9.5-13.9,12.8c-0.2,0.1-1.4,0.8-1.5,0.4c-0.1-0.3,1-0.8,1.2-0.9C103.3,179.2,104.5,178.5,105.6,177.7z"/>
						<path class="st29" d="M117.8,167.6c-0.6,1-1.3,1.9-2,2.8c-2.6,3.4-5.4,7-9.4,8.9c-0.3,0.1-0.6,0.3-0.8,0.7
							c0.4,0.1,0.8,0,1.1-0.3c0.8-0.5,1.6-0.9,2.4-1.4c0.9-0.6,1.7-1.3,2.5-1.9c1.2-1.1,2.3-2.3,3.4-3.6c0.9-1,1.6-2.1,2.5-3.1
							c1.3-1.7,2.4-3.5,3.3-5.4c0.3-0.5,1-1.9,1.3-2.4c0.2-0.3,0.5-1.1,0-0.8c-0.6,0.3-2.1,3-2.4,3.6
							C119,165.5,118.4,166.6,117.8,167.6z"/>
						<path class="st29" d="M124.7,175.3c-1.3,1.7-2.7,3.2-4.2,4.7c-3,2.8-6.7,4.6-10.3,6.4c-1.8,0.9-3.6,1.8-5.5,2.6
							c-3.9,1.6-7.9,2.6-12.1,2.9c-0.2,0.4,0.9,0.5,1.4,0.5c8.9-1.3,16.7-5,24.3-9.8c1.2-0.8,2.4-1.7,3.5-2.7c1.5-1.6,2.9-3.3,4.2-5
							c2.6-3.2,5.8-5.8,8.2-9.1c0.5-0.7,1.6-1.8,1.9-2.7c-0.6,0.4-1.1,0.8-1.5,1.3c-0.8,0.9-1.6,1.7-2.4,2.6
							c-1.6,1.7-3.2,3.5-4.8,5.3C126.4,173.3,125.5,174.3,124.7,175.3z"/>
						<path class="st29" d="M136.1,167.4c-4.9,3.2-7.5,8.9-10.8,13.8c-1,1.5-2.1,2.9-3.4,4.1c-1.5,1.3-3.2,2.5-5,3.4
							c-4.4,2.4-9.1,4.1-13.6,6.4c-0.3,0.2-0.7,0.5-0.5,0.8c3.8-1.8,7.6-3.6,11.4-5.4c3.2-1.5,6.4-3.1,8.8-5.5
							c2.9-2.9,4.6-6.8,6.9-10.1c2.3-3.3,5.3-6.2,8.8-8.3c1-0.5,1.9-1.2,2.7-2.1c0.1-0.1-0.5-0.1-0.5-0.1c-0.2,0.1-0.4,0.2-0.6,0.4
							c-0.4,0.4-0.9,0.7-1.3,1C138.1,166.3,137.1,166.8,136.1,167.4z"/>
						<path class="st29" d="M141.2,170.8c0,0.9-0.2,1.8-0.5,2.7c-0.7,1.4-2.2,2.1-3.1,3.4c-0.4,0.7-0.7,1.4-0.9,2.1
							c-0.9,3.2-1.5,6.6-3.4,9.4c-2.3,3.4-6.1,5.3-9.5,7.6c-0.2,0.1-0.5,0.4-0.3,0.6c0.1,0.2,0.4,0.1,0.6-0.1
							c2.4-1.5,4.8-3.2,7.1-4.9c1-0.7,1.9-1.5,2.6-2.4c0.6-0.8,1-1.8,1.4-2.7c0.9-1.9,1.6-3.9,2-6c0.1-1.1,0.4-2.2,0.9-3.2
							c0.7-0.9,1.5-1.7,2.4-2.4c1.1-1.4,1.7-3.1,1.8-4.9c0.1-1.8,0.3-3.5,0.7-5.2c0.1-0.3,0.2-0.6,0-1c-0.4-0.6-0.6,0.1-0.7,0.3
							c-0.2,0.7-0.4,1.4-0.4,2.1C141.5,167.8,141.3,169.3,141.2,170.8z"/>
						<path class="st29" d="M145.7,164.6c-0.7,2.4-1,4.5-1.7,6.9c-0.6,1.9-1.1,4.2-2.3,5.8c-0.8,1-1.8,1.7-2.5,2.7
							c-1,1.5-1.8,3.1-2.3,4.8c-2.1,5.8-6.2,10.6-11.6,13.6c-2.8,1.5-6.1,2.6-8.3,4.9c-0.7,0.9-1.6,1.6-2.6,2.2
							c-0.1,0.2-1.3,0.7-1.3,0.9c2.1-0.1,3.8-2,5.4-3.3c1.3-1.1,2.8-2,4.4-2.7c7.1-3.2,12.7-9.1,15.3-16.4c0.3-1,0.7-2,1.2-2.9
							c0.8-0.9,1.6-1.8,2.5-2.6c1.8-2,2.5-4.7,3.2-7.3c0.6-2.3,1.1-4.5,1.6-6.8c0.1-0.2,0-0.6-0.2-0.5
							C145.8,164,145.8,164.2,145.7,164.6z"/>
						<path class="st29" d="M114.5,207.2c-2.4,1-5,1.5-7.6,1.5c-2.6,0.1-5.6,0.1-7.8,1.5c-0.2,0.1-0.4,0.3-0.3,0.5
							c0,0.1,0.6-0.2,0.6-0.2c0.6-0.2,1.1-0.4,1.7-0.6c0.4-0.1,1.1-0.3,1.5-0.3c2.5-0.3,4.2-0.2,6.7-0.4c2.5-0.1,5-1,7.1-2.4
							c1.6-1.2,3.2-2.5,4.7-3.7c0.8-0.7,1.7-1.3,2.7-1.8c-1-0.8-3.9,1.8-4.6,2.4C117.8,205,116.2,206.2,114.5,207.2z"/>
						<path class="st29" d="M70.6,170c1.6,1.4,3.4,2.6,5.2,3.7l6.1,3.8c2,1.4,4.2,2.5,6.5,3.2c0.4,0.2,0.8,0.1,1.1-0.1
							c-1-1-2.5-1.3-3.8-1.8c-1-0.4-2-0.9-2.9-1.5c-1.3-0.8-2.6-1.6-3.9-2.5l-7.2-4.7c-0.6-0.4-1.2-0.9-1.7-1.5
							c-0.6-0.5-1.2-1.1-1.8-1.8c-0.9-1.2-1.5-2.3-2.3-3.5c-0.3-0.5-2-4.5-2.5-4.4c-0.9,0.2,1.3,3.6,1.5,4c0.7,1.2,1.4,2.4,2.3,3.6
							C68.2,167.7,69.4,169,70.6,170z"/>
						<path class="st29" d="M77.3,180.9c1.7,1.5,3.1,3.2,4.4,5.1c0.5,0.8,0.9,1.7,1.4,2.5c2,3.1,5.4,5,8.7,6.7
							c-0.8-1-1.8-1.8-2.9-2.4c-0.9-0.6-1.8-1.3-2.7-2c-0.8-0.6-1.5-1.3-2.2-2.1c-0.7-0.9-1.3-1.9-1.8-2.9c-1.8-3-4.7-6.4-8-7.9
							C75.2,178.9,76.3,179.9,77.3,180.9z"/>
						<path class="st29" d="M67,177.1c1,1.3,1.9,2.7,2.7,4.1c0.8,1.8,1.4,3.6,2,5.5c1.6,4.7,4.1,9,7.3,12.8c1.4,1.8,3.1,3.4,5,4.8
							c1.7,1.2,3.7,2.2,4.8,4c-0.5-1.4-1.4-2.7-2.6-3.6c-0.9-0.7-2-1.2-2.9-1.9c-1-0.8-1.8-1.7-2.6-2.7c-3.2-4-6.2-8.1-8-12.9
							c-0.8-2-1.3-4.2-2.3-6.1c-0.9-1.7-2-3.3-3.1-4.9c-2.9-4.2-5.6-8.5-7.9-13.1c-0.2-0.4-1.7-3.8-2.1-4c-0.6-0.3,1.1,3.5,1.2,3.8
							c1.1,2.3,2.6,4.8,3.9,7C63.8,172.3,65.4,174.7,67,177.1z"/>
						<path class="st29" d="M83.3,200.3c1.5,2,3.2,3.8,5,5.6l2.1,2.1c0.7,0.7,1.4,1.4,2.1,2.1c1.2,1.1,2.6,2.1,4,2.9
							c0.9,0.6,1.8,1,2.9,1.1c0.1-0.2-0.1-0.4-0.3-0.5c-1.4-0.6-2.7-1.3-4-2.1c-2.5-1.7-4.2-4.2-6.3-6.3c-2-2-4.4-3.7-5.8-6.2
							c-0.4-0.8-0.8-1.6-1.1-2.5l-1.4-3.5c0-0.1-0.2,0.5-0.2,0.6c0,0.4,0.1,0.7,0.2,1c0.2,0.7,0.4,1.3,0.7,2
							C81.7,197.9,82.4,199.1,83.3,200.3z"/>
						<path class="st29" d="M55.9,172.5c1.1,3,2.8,5.7,5,8c-0.9-1.9-2.4-3.7-3.4-5.6c-0.4-0.8-0.8-1.6-1.1-2.4
							c-1.2-3.3-2.2-6.9-3.7-10c-0.6,0.6-0.3,1.2,0,1.8c0.4,0.9,0.8,1.8,1.1,2.7C54.5,168.9,55.2,170.7,55.9,172.5z"/>
						<path class="st29" d="M59.8,176.7c1.1,2.5,2.2,5,4.2,6.9c-0.7-1.3-1.5-2.5-2.1-3.9c-2.7-5.6-4.8-10.5-6.8-16.1
							c-0.2-0.7-0.5-1.3-0.8-1.9c0.1,0.1-0.3,0.4-0.2,0.6c0.1,0.2,0.1,0.4,0.2,0.6c0.3,0.6,0.5,1.3,0.7,1.9c0.5,1.3,1,2.6,1.5,3.9
							C57.6,171.5,58.7,174.1,59.8,176.7z"/>
						<path class="st29" d="M60.8,193.8c1.4,2.2,3.2,4.1,5.3,5.7c1,0.7,2.1,1.2,3.1,2c2.3,1.8,3.7,4.5,5.3,6.9
							c1.2,1.8,2.6,3.5,4.1,5c-1.7-2.4-3.4-4.9-4.9-7.5c-1.3-2.1-2.6-4.3-4.6-5.7c-0.8-0.6-1.7-1-2.5-1.5c-2.5-1.6-4.2-4.1-6.1-6.4
							c-0.3-0.3-0.6-0.6-1-0.9C59.4,192.1,60.4,193.3,60.8,193.8z"/>
						<path class="st29" d="M105.1,227.5c0.6-2.5,1.5-5,2.5-7.4c1-2.4,2.7-4.5,4.9-6c0.3-0.3,0.8-0.4,1.2-0.2l-1,0.8
							c-2.8,2-4.8,4.9-5.5,8.3c-0.5,1.4-0.9,2.8-1.3,4.2c-0.5,2.2-1.2,4.2-2.1,6.2c-0.3,0.5-0.6,0.9-0.9,1.4c-0.3,0.4-0.7,0.5-0.5,0
							c0.2-0.5,0.6-1,0.8-1.5c0.3-0.6,0.5-1.1,0.7-1.7C104.4,230.1,104.8,228.8,105.1,227.5z"/>
					</g>
				</g>
			</g>
		</g>
	</g>
	<circle class="st30" cx="93.7" cy="93.7" r="93.5"/>
</g>
</svg>
