<svg xmlns="http://www.w3.org/2000/svg" viewBox="0 0 239.2593 1080">
  <path d="M218.1866 897.3781c3.3237-5.3769 4.0351-9.2006 4.0351-9.2006v-40.4474c.7102-5.968 0-9.991 0-9.991s-1.4763-13.2062-17.0751-25.5311v-5.2868c.5863-4.9266 0-8.2477 0-8.2477s-.6442-5.7761-5.9585-12.8427V681.7726c9.8202-4.6308 19.87-10.4123 30.095-17.5417l-4.725-51.6705c.0604-.0945.1258-.1861.1855-.2811 11.0965-17.6534-2.0175-20.6798-2.0175-20.6798s-.025.0544-.0712.1482l-23.057-252.1391c4.062-1.3732 7.7221-2.8888 10.8711-4.5544 8.3229-4.4021 11.142-13.9853 6.1955-21.9966-5.5533-8.9939-15.0018-16.6818-25.3783-20.7283-19.8761-7.751-42.0142-11.2213-63.0107-11.7269v-35.0456c32.666-2.91 58.278-30.3366 58.278-63.7592V85.9449c0-35.3625-28.6665-64.0296-64.0292-64.0296S58.4949 50.5824 58.4949 85.9449v95.8527c0 33.4226 25.6125 60.8492 58.2782 63.7592v35.0507c-24.2973.6536-46.0884 5.1696-59.6532 11.3856-13.3436 6.1147-21.7488 15.7617-24.541 24.0448-3.032 8.9946 2.928 17.1161 8.821 20.3432 2.9136 1.5955 6.4018 3.0449 10.3514 4.3509L34.5972 589.0938l-.0065-.0162c-12.9759 5.989-1.7618 21.844-1.5241 22.1773l-3.5197 50.9584s8.0851 7.0798 22.361 14.9221v106.7992c-6.9982 7.8993-8.3122 14.7389-8.3122 14.7389s-.5862 3.107 0 7.7682v6.722c-14.6722 12.0418-17.075 24.5754-17.075 24.5754s-.7103 3.7637 0 9.4103v39.0105s.9844 4.4295 5.0438 10.521v97.4172s-9.6166 10.629-8.4146 26.509c.9308 12.296 8.5054 23.1125 19.1979 29.255 13.996 8.0401 41.8755 20.5607 85.0435 19.5494 42.7106-1.0006 57.3765-3.9676 79.7657-18.4658 8.3396-5.4003 13.3834-12.1255 17.4605-21.4145 4.0397-9.2039 4.1612-21.8146-6.431-33.4155v-98.7376Zm-72.4632-200.4017v64.5819c-.7049-.0817-1.4238-.157-2.1453-.231-2.0683-15.696-9.0034-27.2392-17.2454-27.2392-8.169 0-15.0533 11.3405-17.1885 26.8241-1.3417.1065-2.6517.23-3.9396.365V695.731c12.4005 2.0398 25.9925 2.7387 40.5188 1.2455Zm45.3946 80.6742c-7.3508-5.8278-18.5218-11.4205-35.475-14.6v-67.415c11.3553-1.9197 23.2195-5.2386 35.475-10.308v92.323ZM69.2306 181.0309V87.079c0-29.4336 23.8603-53.2941 53.2937-53.2941s53.2942 23.8605 53.2942 53.2942v93.9517c0 29.4333-23.8603 53.2939-53.2943 53.2939s-53.2936-23.8606-53.2936-53.294Zm26.0544 512.748v68.8861c-16.3512 2.92-27.5988 8.2557-35.3069 13.9432v-95.315c9.8057 4.7357 21.702 9.3478 35.3069 12.4857Z" fill="#d3aa2b"/>
  <path d="M203.2989 890.611c3.3237-5.3769 4.0351-9.2006 4.0351-9.2006V840.963c.7102-5.968 0-9.991 0-9.991s-1.4763-13.2063-17.0751-25.5311v-5.2869c.5863-4.9265 0-8.2477 0-8.2477s-.6442-5.776-5.9585-12.8427V675.0055c9.8202-4.6308 19.8699-10.4123 30.095-17.5417l-4.725-51.6705c.0604-.0945.1258-.1862.1855-.2811 11.0965-17.6535-2.0175-20.6798-2.0175-20.6798s-.025.0544-.0713.1482l-23.057-252.1392c4.062-1.3731 7.7222-2.8887 10.8712-4.5543 8.3228-4.4022 11.142-13.9854 6.1955-21.9966-5.5533-8.9939-15.0019-16.6818-25.3784-20.7283-19.876-7.751-42.0141-11.2213-63.0106-11.7269v-35.0456c32.666-2.9101 58.278-30.3367 58.278-63.7593V79.1778c0-35.3625-28.6665-64.0297-64.0292-64.0297S43.6072 43.8154 43.6072 79.1779v95.8526c0 33.4227 25.6125 60.8493 58.2782 63.7593v35.0507c-24.2973.6536-46.0884 5.1696-59.6532 11.3856-13.3436 6.1147-21.7488 15.7616-24.541 24.0448-3.032 8.9945 2.928 17.116 8.821 20.3432 2.9135 1.5955 6.4018 3.0448 10.3514 4.3508L19.7094 582.3266l-.0064-.0161c-12.976 5.9889-1.7618 21.844-1.5242 22.1773l-3.5196 50.9584s8.085 7.0798 22.361 14.9221v106.7992c-6.9982 7.8993-8.3122 14.7388-8.3122 14.7388s-.5863 3.107 0 7.7682v6.7221C14.0358 818.4383 11.633 830.972 11.633 830.972s-.7102 3.7637 0 9.4103v39.0106s.9845 4.4295 5.0438 10.521v97.4172s-9.6165 10.6289-8.4145 26.509c.9308 12.2959 8.5053 23.1125 19.1979 29.2549 13.996 8.0402 41.8755 20.5607 85.0435 19.5494 42.7106-1.0006 57.3765-3.9676 79.7657-18.4657 8.3395-5.4004 13.3834-12.1255 17.4605-21.4146 4.0396-9.2038 4.1612-21.8146-6.431-33.4154V890.611Zm-72.4632-200.4017v64.5819c-.7049-.0817-1.4238-.157-2.1453-.231-2.0683-15.6961-9.0034-27.2392-17.2455-27.2392-8.169 0-15.0532 11.3405-17.1884 26.824-1.3417.1066-2.6517.2301-3.9396.365v-65.5462c12.4004 2.0398 25.9924 2.7386 40.5188 1.2455Zm45.3946 80.6741c-7.3509-5.8277-18.5219-11.4205-35.475-14.5999v-67.415c11.3553-1.9197 23.2195-5.2387 35.475-10.308v92.323ZM54.3429 174.2637V80.312c0-29.4336 23.8603-53.2942 53.2936-53.2942s53.2943 23.8606 53.2943 53.2942v93.9517c0 29.4334-23.8603 53.294-53.2943 53.294S54.343 203.697 54.343 174.2636Zm26.0544 512.7481v68.886c-16.3512 2.92-27.5988 8.2558-35.307 13.9432v-95.315c9.8057 4.7357 21.702 9.3479 35.307 12.4858Z" fill="#7b9095"/>
</svg>
