<svg width="12" height="60" viewBox="0 0 12 60" fill="none" xmlns="http://www.w3.org/2000/svg">
<path d="M11.0858 49.761C11.2736 49.4565 11.315 49.2393 11.315 49.2393V46.9389C11.3551 46.6006 11.315 46.3723 11.315 46.3723C11.315 46.3723 11.2302 45.6223 10.345 44.922V44.6195C10.3781 44.3401 10.345 44.1518 10.345 44.1518C10.345 44.1518 10.3074 43.824 10.0065 43.423V37.5068C10.5644 37.2436 11.1353 36.9152 11.7162 36.5099L11.4477 33.5723C11.4511 33.567 11.455 33.5622 11.4583 33.557C12.0887 32.5535 11.3437 32.3815 11.3437 32.3815L11.3396 32.3897L10.0293 18.0527C10.2571 17.9753 10.4704 17.8928 10.6474 17.7992C11.1202 17.5489 11.2804 17.0042 10.9994 16.5488C10.6839 16.0376 10.1471 15.6006 9.55763 15.3706C8.42834 14.93 7.17097 14.7342 5.97801 14.7055V12.7109C7.83362 12.5453 9.28874 10.9875 9.28874 9.08786V3.63947C9.28874 1.62944 7.66022 0 5.65134 0C3.64245 0 2.01383 1.62943 2.01383 3.63947V9.08785C2.01383 10.9875 3.46896 12.5453 5.32457 12.7109V14.7044C3.94427 14.7416 2.70632 14.9982 1.93572 15.3515C1.17768 15.6991 0.700175 16.2474 0.541574 16.7182C0.369323 17.2295 0.707946 17.6912 1.04269 17.8746C1.20612 17.9641 1.4103 18.0428 1.63117 18.1163L0.656247 32.239L0.655852 32.2381C-0.085156 32.5803 0.562303 33.489 0.569277 33.4987L0.369332 36.3953C0.369332 36.3953 0.830099 36.7972 1.63965 37.2425V43.3182C1.24603 43.765 1.16743 44.1518 1.16743 44.1518C1.16743 44.1518 1.1344 44.328 1.16743 44.5923V44.9769C0.335461 45.661 0.197382 46.3723 0.197382 46.3723C0.197382 46.3723 0.157334 46.5858 0.197382 46.906V49.1246C0.197382 49.1246 0.253372 49.3764 0.483952 49.7227V55.26C0.483952 55.26 -0.0623419 55.8641 0.00589964 56.7668C0.058799 57.4657 0.48908 58.0805 1.09654 58.4296C1.89165 58.8867 3.47544 59.5983 5.92781 59.5409C8.35417 59.484 9.18733 59.3153 10.4592 58.4912C10.933 58.1843 11.2195 57.802 11.4512 57.274C11.6807 56.7509 11.6875 56.0341 11.0858 55.3746V49.761L11.0858 49.761ZM6.96923 38.3688V42.0424C6.63105 42.0031 6.25985 41.979 5.85084 41.9745C5.41414 41.9696 5.02719 41.9936 4.6674 42.0317V38.2984C5.372 38.4145 6.14379 38.4536 6.96923 38.3688ZM9.54807 42.9575C9.13054 42.6261 8.49613 42.3082 7.53276 42.1273V38.2916C8.17813 38.1825 8.85149 37.9953 9.54807 37.7071V42.9575ZM2.62374 9.04429V3.70396C2.62374 2.0309 3.97924 0.674639 5.65134 0.674639C7.32345 0.674639 8.67894 2.0309 8.67894 3.70396V9.04429C8.67894 10.7173 7.3234 12.0736 5.65134 12.0736C3.97929 12.0736 2.62374 10.7173 2.62374 9.04429V9.04429ZM4.10387 38.1894V42.1111C3.17626 42.2781 2.53468 42.5783 2.09812 42.9019V37.4789C2.65543 37.7483 3.33038 38.0108 4.10387 38.1894V38.1894Z" fill="#1E09B1"/>
</svg>
