<svg width="710" height="477" viewBox="0 0 710 477" fill="none" xmlns="http://www.w3.org/2000/svg">
<path d="M564.684 339.42C570.837 332.957 576.921 326.427 583.157 320.046C598.004 304.854 613.52 303.467 631.832 314.932C651.902 327.497 672.278 339.572 692.417 352.026C695.399 353.87 699.616 356.245 700.206 359.023C704.535 379.396 717.556 398.81 703.98 421.251C700.436 427.11 705.932 438.437 707.612 449.457C686.272 461.93 665.163 479.059 633.682 473.404C614.628 469.982 593.637 471.822 574.49 475.884C552.255 480.601 538.652 468.634 523.983 457.181C503.453 441.153 490.942 421.186 499.232 391.385C493.265 393.666 490.615 394.1 488.672 395.509C459.938 416.332 427.692 420.248 392.986 419.338C337.653 417.887 282.237 419.82 226.858 419.625C216.567 419.589 209.485 421.863 205.904 431.828C202.256 441.982 194.335 445.817 184.245 447.22C163.16 450.151 142.44 459.342 120.713 449.409C117.705 448.033 111.968 449.415 109.039 451.595C89.6115 466.054 67.8426 461.641 46.6233 459.575C26.7465 457.639 -0.831018 422.962 0.0191935 402.505C0.464346 391.797 19.3494 372.594 30.4308 373.471C42.2193 374.405 46.1048 368.827 48.2826 358.733C51.5877 343.415 52.9862 326.199 76.3849 325.333C70.6894 305.344 64.7828 287.444 60.7406 269.131C58.9521 261.03 58.9974 251.453 61.5745 243.658C69.5084 219.66 79.7965 196.44 87.7142 172.437C92.3569 158.362 99.8433 148.466 113.862 143.528C124.633 139.733 131.603 132.714 132.544 120.664C132.786 117.562 134.462 114.585 134.805 111.476C138.531 77.727 152.43 53.1902 189.942 49.333C192.845 49.0344 196.372 47.3043 198.188 45.0794C217.052 21.9597 245.359 20.1073 270.807 10.681C315.081 -5.71918 356.511 -3.01514 398.361 17.2917C413.431 24.6039 429.757 29.9003 446.045 33.9863C467.441 39.3539 482.245 50.3584 490.565 71.4028C499.644 94.3677 514.155 113.38 537.006 125.039C540.673 126.91 545.194 131.862 545.209 135.407C545.352 170.856 566.915 196.124 586.128 222.263C593.302 232.026 593.67 240.299 589.785 251.295C579.654 279.975 570.804 309.107 561.443 338.059L564.684 339.42L564.684 339.42Z" fill="black"/>
<mask id="mask0_12_1156" style="mask-type:alpha" maskUnits="userSpaceOnUse" x="0" y="0" width="710" height="477">
<path d="M564.684 339.42C570.837 332.957 576.921 326.427 583.157 320.046C598.004 304.854 613.52 303.467 631.832 314.932C651.902 327.497 672.278 339.572 692.417 352.026C695.399 353.87 699.616 356.245 700.206 359.023C704.535 379.396 717.556 398.81 703.98 421.251C700.436 427.11 705.932 438.437 707.612 449.457C686.272 461.93 665.163 479.059 633.682 473.404C614.628 469.982 593.637 471.822 574.49 475.884C552.255 480.601 538.652 468.634 523.983 457.181C503.453 441.153 490.942 421.186 499.232 391.385C493.265 393.666 490.615 394.1 488.672 395.509C459.938 416.332 427.692 420.248 392.986 419.338C337.653 417.887 282.237 419.82 226.858 419.625C216.567 419.589 209.485 421.863 205.904 431.828C202.256 441.982 194.335 445.817 184.245 447.22C163.16 450.151 142.44 459.342 120.713 449.409C117.705 448.033 111.968 449.415 109.039 451.595C89.6115 466.054 67.8426 461.641 46.6233 459.575C26.7465 457.639 -0.831018 422.962 0.0191935 402.505C0.464346 391.797 19.3494 372.594 30.4308 373.471C42.2193 374.405 46.1048 368.827 48.2826 358.733C51.5877 343.415 52.9862 326.199 76.3849 325.333C70.6894 305.344 64.7828 287.444 60.7406 269.131C58.9521 261.03 58.9974 251.453 61.5745 243.658C69.5084 219.66 79.7965 196.44 87.7142 172.437C92.3569 158.362 99.8433 148.466 113.862 143.528C124.633 139.733 131.603 132.714 132.544 120.664C132.786 117.562 134.462 114.585 134.805 111.476C138.531 77.727 152.43 53.1902 189.942 49.333C192.845 49.0344 196.372 47.3043 198.188 45.0794C217.052 21.9597 245.359 20.1073 270.807 10.681C315.081 -5.71918 356.511 -3.01514 398.361 17.2917C413.431 24.6039 429.757 29.9003 446.045 33.9863C467.441 39.3539 482.245 50.3584 490.565 71.4028C499.644 94.3677 514.155 113.38 537.006 125.039C540.673 126.91 545.194 131.862 545.209 135.407C545.352 170.856 566.915 196.124 586.128 222.263C593.302 232.026 593.67 240.299 589.785 251.295C579.654 279.975 570.804 309.107 561.443 338.059L564.684 339.42L564.684 339.42Z" fill="black"/>
</mask>
<g mask="url(#mask0_12_1156)">
<path d="M232.403 177.035C237.815 168.417 243.293 159.715 250.52 152.55C267.634 135.583 294.373 129.068 317.373 136.262C324.233 138.407 330.803 141.713 336.16 146.504C344.06 153.571 348.865 163.373 353.479 172.917C360.473 187.386 367.489 201.908 372.502 217.178C374.35 222.808 375.93 228.552 378.441 233.92C383.545 244.833 392.486 254.26 394.242 266.179C395.416 274.145 393.259 282.746 396.668 290.041C399.528 296.16 405.65 299.928 410.845 304.245C421.438 313.047 429.031 325.396 432.105 338.821C413.671 351.991 389.885 354.186 367.416 357.087C325.007 362.563 283.121 372.082 242.511 385.472C240.071 386.277 237.558 387.106 234.994 386.936C232.264 386.755 229.747 385.46 227.361 384.121C212.409 375.733 198.461 363.761 192.777 347.586C189.522 338.322 189.191 328.324 188.892 318.509C188.189 295.404 182.025 265.634 191.23 243.637C195.364 233.757 202.451 224.719 208.119 215.701C213.354 207.373 232.403 186.51 232.403 177.035V177.035Z" fill="#494949"/>
<path d="M529.202 249.426C533.11 246.107 535.085 241.105 536.915 236.314L544.266 217.063C547.556 208.448 550.878 199.699 551.713 190.515C552.549 181.332 550.595 171.496 544.437 164.632C540.474 160.215 535.114 157.349 530.432 153.703C521.142 146.469 514.473 136.114 504.56 129.762C495.979 124.265 484.796 122.256 475.378 126.148C465.96 130.041 459.188 140.503 461.093 150.514C462.007 155.316 464.67 159.567 467.023 163.851C475.889 179.994 480.897 198.239 481.513 216.646C481.772 224.384 481.324 232.434 484.42 239.531C486.228 243.673 489.427 250.004 492.552 253.312C497.942 259.018 494.506 257.114 502.285 256.902C509.896 256.695 523.26 254.471 529.202 249.426V249.426Z" fill="#494949"/>
<path d="M405.294 150.586C429.786 149.084 456.244 148.078 476.7 161.628C492.026 171.781 501.695 189.1 505.227 207.141C508.759 225.182 506.645 243.93 502.149 261.755C500.817 267.035 499.231 272.366 496.14 276.849C492.371 282.316 486.682 286.086 481.332 290.02C462.617 303.779 446.533 321.102 434.196 340.783C432.722 343.134 431.123 345.672 428.537 346.677C426.795 347.354 424.842 347.221 423.01 346.854C410.67 344.384 402.703 332.702 396.134 321.966C372.935 284.047 349.918 244.956 338.508 201.617C335.127 188.776 328.192 166.174 342.401 157.357C357.429 148.032 388.093 151.64 405.294 150.586L405.294 150.586Z" fill="#3A3A3A"/>
<path d="M193.441 241.145C190.167 244.5 185.301 248.067 181.271 245.673C178.107 243.792 177.76 239.445 177.615 235.767C176.413 205.119 163.79 175.051 142.756 152.729C134.711 144.192 125.211 136.334 121.077 125.356C116.059 112.026 120.075 97.1233 124.893 83.719C126.605 78.9548 128.725 73.8537 133.132 71.3626C140.023 67.4679 148.426 71.7725 155.533 75.2567C165.444 80.115 176.099 83.4493 187.011 85.1067C197.145 86.6459 208.053 86.946 216.451 92.8241C222.716 97.2093 226.337 103.993 231.488 109.45C237.479 115.798 244.568 119.359 251.527 124.369C263.472 132.969 266.609 142.922 260.865 156.587C247.682 187.947 216.813 217.189 193.441 241.145V241.145Z" fill="#323232"/>
<path d="M545.656 413.588C549.753 416.475 553.94 419.452 556.769 423.589C560.89 429.615 562.079 437.964 568.175 441.979C571.646 444.266 576.004 444.604 580.152 444.874C590.045 445.519 600.079 446.154 609.789 444.157C619.5 442.159 629.015 437.17 634.315 428.793C637.349 423.997 639.653 417.656 645.176 416.356C652.952 414.527 658.091 424.044 664.841 428.315C674.335 434.322 687.013 429.255 695.787 422.237C705.572 414.409 713.9 401.386 708.931 389.882C707.339 386.196 704.534 383.146 702.849 379.502C698.86 370.876 701.532 359.925 696.274 352.008C693.245 347.446 688.131 344.796 683.238 342.337L642.458 321.842C626.497 313.821 607.688 305.697 591.503 313.255C581.269 318.033 574.679 328.085 565.982 335.291C552.986 346.058 534.734 350.145 518.388 345.948C512.961 344.555 507.097 342.334 501.993 344.646C497.01 346.904 488.038 357.485 486.563 362.663C484.23 370.858 489.223 373.442 495.437 378.203C511.645 390.622 528.963 401.825 545.656 413.588L545.656 413.588Z" fill="#333333"/>
<path d="M162.89 256.97C153.689 256.925 143.964 255.273 135.683 255.943C107.888 258.194 82.5964 260.049 54.6747 257.037C52.284 256.779 49.7557 256.467 47.8617 254.986C43.6862 251.72 44.9532 245.183 46.7915 240.21C61.8257 199.549 88.7201 163.352 123.313 137.223C126.189 135.051 129.401 132.852 133.005 132.925C137.646 133.02 141.276 136.782 144.334 140.275C164.605 163.433 213.194 211.868 188.431 246.472C182.198 255.181 172.851 257.018 162.89 256.97Z" fill="#494949"/>
<path d="M469.004 284.495C472.138 279.609 475.324 274.66 479.636 270.774C484.476 266.412 490.486 263.609 496.398 260.87L512.784 253.279C520.998 249.473 529.476 245.472 535.371 238.603C544.674 227.762 545.61 212.279 546.098 198.002L546.864 175.607C546.941 173.357 547.233 170.723 549.169 169.574C550.961 168.511 553.246 169.289 555.133 170.171C575.218 179.554 590.021 199.45 593.237 221.384C598.92 260.15 570.961 295.395 563.481 333.854C562.405 339.389 561.749 345.03 560.031 350.4C553.597 370.511 533.771 383.078 514.355 391.375C494.939 399.672 473.853 405.839 458.363 420.189C454.111 424.128 446.933 428.542 443.585 423.81C442.841 422.758 442.557 421.459 442.29 420.198L433.874 380.427C431.932 371.255 424.531 353.65 427.825 344.771C428.834 342.052 433.802 338.827 435.664 336.481C439.699 331.393 442.84 325.285 446.35 319.813L469.004 284.495L469.004 284.495Z" fill="#110A08"/>
<path d="M222.266 98.2807C221.761 97.2463 221.241 96.1289 221.416 94.9909C221.592 93.8487 222.431 92.9346 223.265 92.1341C236.703 79.2281 257.38 77.1989 275.811 79.9307C294.242 82.6626 311.966 89.3749 330.5 91.2942C356.269 93.9628 382.009 87.2431 406.885 80.0057C433.414 72.2874 461.284 62.9113 478.881 41.6107C488.657 53.8165 497.931 66.4253 506.669 79.3943C511.32 86.2956 515.937 93.6114 516.986 101.867C519.382 120.715 502.784 136.517 486.113 145.633C442.136 169.682 388.403 171.257 339.876 158.709C332.607 156.829 325.305 154.601 318.996 150.532C306.45 142.441 300.605 140.275 285.52 143.349C276.84 145.118 266.722 148.35 257.932 145.316C239.723 139.032 230.682 113.429 222.266 98.2807L222.266 98.2807Z" fill="#171717"/>
<path d="M10.002 408.331C9.01605 406.651 8.00847 404.909 7.77928 402.975C7.54368 400.986 8.16109 398.987 9.02929 397.183C13.0906 388.744 23.2588 383.742 32.4228 385.675C36.9836 386.637 41.3749 389.117 46.0027 388.561C51.7222 387.873 55.9573 382.611 57.6213 377.096C59.2854 371.581 59.0049 365.7 59.4292 359.955C59.7705 355.333 60.7358 350.427 64.0111 347.149C66.3306 344.827 69.5131 343.627 72.592 342.491C88.6443 336.57 105.083 330.573 122.191 330.337C139.299 330.1 157.504 336.726 166.678 351.168C173.868 362.486 176.73 379.074 189.65 382.661C190.803 382.982 192.092 383.232 192.83 384.174C193.836 385.457 193.312 387.314 192.745 388.843L181.939 417.97C181.256 419.81 180.53 421.718 179.108 423.07C177.549 424.551 175.378 425.157 173.3 425.711C161.161 428.951 148.42 432.207 136.188 429.338C115.972 424.596 102.527 404.524 82.7743 398.123C80.9025 397.516 78.9346 397.035 76.9812 397.271C69.183 398.214 68.0651 407.386 65.796 413.243C62.3735 422.078 58.1379 428.947 49.7636 434.163C28.1704 447.611 19.3935 424.333 10.002 408.331H10.002Z" fill="#0F0F0F"/>
<path d="M124.436 410.082C124.951 415.217 130.155 418.884 135.295 419.345C140.435 419.805 145.458 417.816 150.138 415.642C158.428 411.793 167.338 405.888 168.293 396.799C169.013 389.94 164.878 383.618 160.928 377.965C153.999 368.048 146.966 358.016 137.772 350.153C128.578 342.291 116.832 336.706 104.751 337.344C95.8852 337.811 86.4047 342.681 84.0932 351.253C83.1695 354.678 83.4791 358.299 83.1891 361.835C82.2353 373.469 74.6662 383.808 65.1141 390.518C55.562 397.228 44.1694 400.775 32.8182 403.498C27.5616 404.758 20.8965 407.69 21.6416 413.044C22.2647 417.521 27.9611 419.326 32.434 418.669C43.546 417.038 51.2606 407.252 59.5344 399.657C65.9672 393.752 73.3297 388.862 81.2673 385.223C86.7143 382.726 93.2616 380.866 98.5128 383.753C103.365 386.42 105.406 392.161 108.006 397.049C115.024 410.242 128.935 419.511 143.813 420.908" fill="#484848"/>
<path d="M268.537 32.2122C288.182 29.1012 308.202 29.2925 327.966 27.0562C342.592 25.4012 357.244 22.412 371.906 23.7168C395.069 25.7783 415.821 38.2635 435.64 50.4285C433.101 57.561 425.02 60.8567 417.71 62.8282C389.613 70.4062 359.579 70.6818 331.348 63.6207C313.238 59.0914 294.899 51.5391 276.544 54.9396C250.825 59.7043 230.138 85.2514 204.16 82.2027C198.802 81.5739 192.394 77.546 193.996 72.3949C194.692 70.1546 196.745 68.6518 198.702 67.3575C221.798 52.0811 239.86 36.7534 268.537 32.2123L268.537 32.2122Z" fill="#494949"/>
</g>
</svg>
