<svg width="1015" height="493" viewBox="0 0 1015 493" fill="none" xmlns="http://www.w3.org/2000/svg">
<path d="M951.229 323.374C953.275 321.381 954.937 318.42 956.676 318.374C959.477 318.299 963.452 319.343 964.903 321.368C967.259 324.656 969.704 324.976 973.02 324.539C975.063 324.269 977.144 323.944 979.184 324.06C985.28 324.405 989.123 330.103 987.285 335.841C985.203 342.342 985.13 342.476 991.317 345.836C994.051 347.321 994.626 349.124 993.305 351.64C990.562 356.867 991.96 361.472 995.225 365.832C997.13 368.376 999.322 370.732 1000.98 373.421C1002.1 375.236 1003.67 377.995 1003.03 379.447C1001.08 383.866 1003.86 385.636 1006.55 387.514C1009.19 389.354 1009.66 391.453 1009.74 394.7C1009.87 399.603 1010.72 404.842 1012.73 409.27C1017.56 419.875 1013.83 426.17 1002.21 425.744C1000.31 425.674 998.407 425.387 996.503 425.381C991.759 425.366 989.154 427.547 988.194 432.176C987.969 433.262 987.801 434.367 987.478 435.425C985.541 441.784 983.034 442.849 976.832 440.563C971.051 438.432 965.163 436.574 959.268 434.775C955.47 433.616 953.064 434.557 953.288 439.234C953.452 442.666 952.454 445.431 948.347 446.152C944.416 446.842 941.461 445.919 939.556 442.279C938.746 440.732 938.041 439.1 937.031 437.691C934.285 433.861 928.404 433.123 925.248 436.095C922.034 439.12 922 445.06 925.373 448.062C927.139 449.633 929.433 450.629 931.124 452.262C932.135 453.238 933.102 455.08 932.854 456.277C932.664 457.195 930.616 457.942 929.269 458.367C925.72 459.485 922.138 460.572 918.493 461.266C917.308 461.491 915.621 460.771 914.634 459.931C913.253 458.756 912.312 457.063 909.884 453.899C908.758 455.963 908.23 457.55 907.208 458.696C903.271 463.108 898.255 465.258 892.335 464.783C884.931 464.189 881.116 459.225 882.754 451.979C883.401 449.117 884.758 446.262 886.405 443.817C888.533 440.659 887.402 438.646 884.404 438.31C880.429 437.866 876.33 438.413 872.294 438.672C868.275 438.93 864.188 440.028 860.272 439.566C852.986 438.708 852.001 438.983 850.408 445.799C849.518 449.606 846.106 451.924 842.019 450.085C837.833 448.202 834.072 445.095 830.585 442.005C826.459 438.349 823.089 433.818 818.86 430.307C816.858 428.646 813.628 427.804 810.939 427.769C805.185 427.694 802.502 432.736 805.44 437.673C807.547 441.215 810.426 444.348 812.169 448.038C813.192 450.203 813.618 453.684 812.521 455.476C811.706 456.805 807.938 456.918 805.609 456.616C798.26 455.664 792.425 451.678 786.858 446.93C783.049 443.683 778.727 440.788 774.188 438.712C769.29 436.472 767.579 438.053 767.686 443.368C767.858 452 764.145 454.96 755.823 452.614C752.588 451.702 750.291 452.352 748.62 455.376C747.627 457.173 746.454 458.912 745.122 460.473C741.301 464.949 736.826 464.334 734.247 458.967C733.082 456.543 732.38 453.895 731.2 451.48C728.74 446.444 725.204 445.371 720.224 447.967C719.523 448.332 718.778 448.701 718.22 449.241C712.253 455.017 705.428 457.721 696.843 457.705C688.281 457.689 686.081 462.119 689.246 470.043C692.643 478.551 691.439 481.105 682.616 484.097C670.316 488.268 655.477 484.116 647.081 474.15C646.671 473.664 646.284 473.159 645.889 472.66C637.649 462.245 634.093 462.161 625.431 471.913C623.774 473.778 621.764 475.492 619.598 476.706C615.703 478.887 611.398 479.875 607.455 476.975C603.598 474.138 602.733 469.95 603.773 465.427C604.815 460.898 603.941 456.923 600.842 453.462C595.92 447.966 589.174 448.341 585.26 454.606C583.255 457.816 581.912 461.439 580.277 464.879C576.555 472.705 573.07 474.698 564.757 472.675C558.283 471.099 553.246 471.501 548.998 477.667C545.401 482.888 536.967 483.388 532.774 479.642C528.109 475.475 528.094 469.689 532.317 463.898C533.465 462.323 534.645 459.483 533.968 458.178C533.06 456.425 530.477 454.825 528.413 454.523C522.791 453.699 517.73 455.666 513.593 459.55C510.738 462.232 510.412 465.573 511.766 469.21C512.871 472.175 514.141 475.152 514.683 478.238C515.479 482.769 512.93 485.769 508.822 484.238C500.04 480.966 491.618 481.234 482.89 483.89C480.375 484.655 479.061 483.578 478.079 480.444C476.664 475.931 474.189 471.374 471.015 467.883C467.028 463.501 460.322 465.453 458.434 471.125C457.138 475.018 456.452 479.132 455.702 483.186C454.963 487.178 452.583 488.75 448.701 488.844C439.943 489.055 435.245 484.239 435.871 475.524C436.208 470.839 433.6 468.551 428.765 469.289C421.582 470.387 419.276 468.857 417.554 461.851C416.212 456.389 412.659 453.151 407.438 452.631C401.938 452.083 398.35 454.308 395.868 459.817C395.542 460.541 395.27 461.289 394.948 462.014C392.18 468.252 389.841 468.513 385.809 463.068C384.299 461.028 382.906 458.861 381.15 457.052C376.1 451.85 370.222 452.159 365.566 457.688C359.554 464.828 354.768 465.082 347.979 458.446C346.057 456.566 344.349 454.439 342.725 452.288C340.211 448.956 336.642 447.893 333.521 450.065C328.809 453.346 324.498 457.349 320.616 461.594C319.378 462.948 319.675 466.085 319.922 468.335C320.328 472.038 319.047 474.556 315.388 474.75C311.491 474.956 307.495 474.609 303.639 473.943C298.64 473.081 294.012 473.035 289.339 475.572C283.973 478.485 276.872 476.64 273.014 471.883C270.111 468.304 270.623 464.814 274.517 462.166C275.959 461.185 277.723 460.592 278.96 459.421C280.115 458.328 281.646 456.534 281.42 455.354C281.126 453.818 279.264 451.435 278.071 451.432C274.442 451.421 270.674 451.965 267.225 453.098C264.762 453.908 262.73 456.023 260.496 457.54C255.807 460.726 251.151 461.325 246.514 457.402C245.792 456.791 244.959 456.277 244.107 455.864C240.382 454.061 236.228 455.442 234.343 459.06C232.587 462.429 233.723 466.626 237.38 468.414C240.197 469.79 243.382 470.398 246.372 471.438C248.942 472.332 252.325 473.377 251.13 476.692C250.439 478.609 247.46 480.399 245.221 480.871C242.741 481.394 239.918 480.425 237.268 479.966C232.817 479.196 229.327 480.435 227.464 484.735C224.823 490.833 219.797 493.408 213.7 492.948C207.595 492.488 201.366 491.461 195.577 489.527C186.94 486.641 183.354 476.149 192.651 469.526C199.997 464.294 200.672 458.302 195.57 452.65C192.216 448.936 187.89 448.001 183.533 450.546C181.104 451.965 178.768 453.81 176.94 455.936C173.026 460.489 168.139 463.079 162.315 462.66C146.267 461.503 133.132 468.474 120.046 476.417C113.592 480.334 106.537 483.495 99.4014 485.991C91.6039 488.718 86.952 486.709 82.1114 480.037C79.6655 476.666 76.8533 474.182 72.4566 473.873C68.2747 473.58 66.2797 471.031 66.0459 466.97C65.9272 464.907 65.708 462.838 65.7716 460.779C66.0351 452.253 68.2089 450.158 76.7197 450.638C79.9604 450.821 81.0454 449.397 81.0816 446.515C81.1526 440.875 77.0761 436.184 71.2997 436.49C66.6266 436.738 62.0316 438.351 57.3875 439.286C54.1441 439.94 50.8748 440.967 47.6199 440.957C40.6325 440.933 37.1269 436.25 38.3707 429.313C39.0762 425.379 36.7685 422.653 32.2469 423.118C28.8528 423.468 25.569 424.953 22.2543 425.99C19.086 426.982 16.0083 428.449 12.7709 428.992C7.40371 429.894 2.32207 426.346 0.640227 421.117C-1.03888 415.896 0.50191 412.753 6.24733 409.607C9.77538 407.675 14.2009 406.571 13.7014 400.983C13.6599 400.519 15.965 399.33 17.1568 399.361C22.5568 399.502 25.1517 397.222 25.2355 391.829C25.3886 381.966 26.709 380.221 36.0249 377.212C37.1744 376.84 38.6123 376.27 39.1674 375.343C41.3257 371.739 42.6333 367.397 47.9561 367.176C48.3619 367.159 48.7782 366.278 49.109 365.748C53.2113 359.178 56.1317 358.076 63.5931 360.312C64.5067 360.585 65.4184 361.112 66.326 361.101C67.6323 361.086 69.5824 361.1 70.0696 360.34C70.6451 359.443 70.1896 357.648 69.7373 356.404C69.3859 355.437 68.4228 354.642 67.6134 353.9C61.496 348.29 60.3082 342.578 63.5705 334.209C66.6664 326.267 72.8545 321.522 80.2684 321.439C82.0165 321.419 83.7684 321.564 85.5139 321.502C91.2847 321.297 92.9499 319.051 91.4931 313.562C90.9646 311.571 90.2786 309.598 89.9958 307.57C89.4842 303.901 91.5048 301.465 94.8955 302.66C103.663 305.752 109.487 302.417 115.07 295.864C119.248 290.959 122.223 292.038 124.55 298.228C127.148 305.138 131.689 306.458 136.65 301.745C140.235 298.339 139.943 295.048 136.281 291.616C134.743 290.173 133.949 287.936 132.816 286.06C134.911 285.214 137.084 283.516 139.084 283.701C143.018 284.065 143.202 282.074 143.274 279.224C143.511 269.715 143.552 269.716 153.241 267.985C160.752 266.643 164.4 261.116 162.19 253.886C161.287 250.932 161.919 248.88 164.347 247.334C167.094 245.584 167.949 243.316 167.553 240.057C166.485 231.257 169.664 229.011 177.948 226.888C182.444 225.736 186.613 225.735 190.936 225.135C195.422 224.512 198.755 223.933 200.288 229.157C204.735 229 205.462 225.989 205.916 222.712C207.167 213.681 209.678 212.04 218.231 215.554C225.714 218.629 227.351 216.438 229.169 209.978C230.842 204.033 231.66 197.851 232.968 191.798C233.47 189.477 234.172 187.184 234.986 184.952C236.373 181.15 238.892 179.509 243.145 180.435C248.592 181.621 250.379 180.182 251.067 174.714C251.186 173.77 251.149 172.808 251.229 171.858C251.717 166.008 253.54 164.644 259.248 165.841C266.341 167.328 269.176 165.629 270.894 158.49C271.634 155.414 272.159 152.236 272.32 149.08C272.552 144.54 274.921 143.411 278.939 144.103C281.44 144.535 283.96 144.958 286.488 145.117C289.645 145.315 291.499 144.16 291.513 140.47C291.534 134.858 292.036 134.5 297.178 136.03C300.12 136.906 301.756 135.934 302.835 133.367C303.327 132.197 303.596 130.914 304.205 129.814C305.224 127.973 306.434 126.238 307.564 124.458C309.094 125.661 310.502 127.093 312.191 127.998C313.68 128.796 315.704 129.695 317.077 129.256C318.17 128.906 319.108 126.652 319.26 125.157C319.427 123.508 318.608 121.762 318.237 120.055C317.107 114.85 317.588 109.17 322.383 106.959C326.572 105.028 332.072 105.876 337.001 105.674C337.817 105.641 338.641 106.828 339.514 106.915C341.731 107.136 344.308 107.716 346.088 106.834C347.112 106.327 347.459 103.13 347.081 101.366C346.09 96.7485 346.308 93.2448 351.709 91.6364C352.578 91.3776 353.216 88.8812 353.212 87.4213C353.199 82.7469 354.698 81.3715 359.336 80.947C362.988 80.6128 366.523 79.111 370.176 78.6458C372.173 78.3915 374.306 79.2131 376.378 79.5495C375.675 81.0731 375.132 82.7031 374.216 84.085C373.536 85.1095 372.018 85.6423 371.51 86.6999C370.854 88.0635 370.231 90.8523 370.644 91.0743C372.37 92.002 375.66 93.1909 376.256 92.4874C378.599 89.7219 380.715 86.4609 381.813 83.0309C382.902 79.6309 382.528 75.7866 383.045 72.1728C383.588 68.3788 385.71 65.9254 389.602 64.9216C395.976 63.278 397.808 59.2979 395.272 53.1232C392.66 46.762 395.148 43.6613 402.246 44.3777C405.402 44.6963 408.563 45.0456 411.73 45.1604C416.75 45.3423 420.201 42.9447 422.13 38.3305C423.354 35.4008 424.597 32.4778 425.771 29.5279C427.037 26.3483 429.331 25.2328 432.608 25.9518C433.85 26.2242 435.089 26.5081 436.331 26.7799C443.706 28.394 446.261 27.1409 449.622 20.3464C450.886 17.7912 451.991 15.1096 453.6 12.7841C456.212 9.00956 460.3 7.18072 464.436 8.93043C469.351 11.0095 471.888 9.0012 474.324 5.39392C475.034 4.34264 475.785 3.28835 476.677 2.39537C480.426 -1.35801 485.686 -0.520756 489.005 3.65343C491.392 6.6557 494.311 9.46093 497.526 11.5229C501.626 14.1532 505.798 13.6056 509.773 10.2305C514.27 6.41382 523.376 9.31291 524.62 15.0054C526.107 21.8082 530.21 25.6575 536.393 28.2069C538.316 28.9996 539.847 31.1778 541.1 33.0312C542.287 34.7877 542.875 36.9497 543.954 39.4641C545.197 38.2922 546.031 37.649 546.691 36.8599C550.795 31.9524 552.98 32.0129 556.386 37.2958C557.59 39.1622 558.61 41.1488 559.682 43.0983C561.303 46.0472 563.348 47.8265 567.115 48.0818C569.054 48.2132 570.878 50.5882 572.679 52.043C574.509 53.5214 576.065 55.563 578.129 56.4002C578.797 56.6713 580.632 53.8492 582.043 52.5626C583.564 51.1764 585.443 48.6601 586.758 48.8975C589.269 49.3511 591.579 51.2819 593.803 52.8422C595.388 53.9543 596.473 56.0032 598.165 56.6959C603.793 58.9993 604 59.1783 601.491 64.8598C601.114 65.713 600.771 66.5811 600.44 67.3768C600.766 67.7437 600.983 68.1855 601.175 68.1748C609.65 67.7016 613.503 73.7988 617.793 79.5146C618.597 80.5848 620.935 81.248 622.356 80.9819C629.074 79.724 634.217 82.9074 639.376 86.3325C640.631 87.1656 642.157 88.5725 643.33 88.3727C647.82 87.6078 649.4 89.6745 649.865 93.6973C650.395 98.2889 652.678 101.377 657.674 101.746C660.797 101.978 661.432 103.533 660.952 106.588C659.567 115.413 661.697 117.848 670.426 118.21C675.127 118.405 677.876 120.893 678.745 125.705C679.525 130.024 679.958 134.507 682.675 136.65C687.43 135.386 691.013 134.052 694.71 133.556C698.626 133.031 701.872 136.96 700.629 140.742C699.134 145.287 700.918 147.594 705.063 148.248C711.334 149.238 714.876 153.11 716.981 158.638C718.704 163.162 720.612 166.633 726.627 166.414C731.244 166.245 733.791 169.753 734.263 174.567C735.273 184.86 743.175 193.46 753.405 194.277C756.925 194.558 760.758 192.965 764.209 191.617C770.512 189.155 771.958 189.869 771.593 196.66C771.33 201.564 770.554 206.446 769.887 211.322C768.591 220.805 770.835 224.311 779.644 228.314C781.602 229.204 782.84 232.127 783.902 234.356C784.441 235.489 783.713 237.169 783.8 238.586C783.963 241.263 783.801 246.022 784.655 246.225C787.771 246.969 791.92 247.299 794.457 245.764C800.436 242.147 805.857 240.354 812.042 244.86C812.998 245.557 814.445 245.754 815.69 245.845C819.248 246.106 820.548 248.336 821.058 251.466C821.721 255.539 822.162 259.679 823.233 263.646C825.11 270.602 828.448 272.749 835.197 270.753C840.757 269.109 845.361 268.485 848.523 274.62C848.826 275.209 851.637 275.407 852.288 274.77C856.581 270.566 859.778 269.712 865.024 272.323C867.126 273.37 868.857 275.148 870.931 276.273C874.047 277.964 877.172 279.967 880.548 280.785C888.545 282.721 891.19 289.592 886.099 296.149C885.618 296.767 885.546 297.702 885.284 298.49C886.244 298.45 887.204 298.421 888.163 298.358C888.292 298.349 888.404 298.162 888.533 298.068C897.645 291.454 901.708 291.527 910.918 298.006C912.91 299.407 915.368 300.722 917.709 300.917C921.562 301.24 923.691 303.082 924.378 306.531C926.179 315.577 931.968 319.382 940.747 320.288C944.582 320.683 948.274 322.467 951.229 323.374L951.229 323.374Z" fill="black"/>
<mask id="mask0_12_1089" style="mask-type:alpha" maskUnits="userSpaceOnUse" x="0" y="0" width="1015" height="493">
<path d="M951.229 323.374C953.275 321.381 954.937 318.42 956.676 318.374C959.477 318.299 963.452 319.343 964.903 321.368C967.259 324.656 969.704 324.976 973.02 324.539C975.063 324.269 977.144 323.944 979.184 324.06C985.28 324.405 989.123 330.103 987.285 335.841C985.203 342.342 985.13 342.476 991.317 345.836C994.051 347.321 994.626 349.124 993.305 351.64C990.562 356.867 991.96 361.472 995.225 365.832C997.13 368.376 999.322 370.732 1000.98 373.421C1002.1 375.236 1003.67 377.995 1003.03 379.447C1001.08 383.866 1003.86 385.636 1006.55 387.514C1009.19 389.354 1009.66 391.453 1009.74 394.7C1009.87 399.603 1010.72 404.842 1012.73 409.27C1017.56 419.875 1013.83 426.17 1002.21 425.744C1000.31 425.674 998.407 425.387 996.503 425.381C991.759 425.366 989.154 427.547 988.194 432.176C987.969 433.262 987.801 434.367 987.478 435.425C985.541 441.784 983.034 442.849 976.832 440.563C971.051 438.432 965.163 436.574 959.268 434.775C955.47 433.616 953.064 434.557 953.288 439.234C953.452 442.666 952.454 445.431 948.347 446.152C944.416 446.842 941.461 445.919 939.556 442.279C938.746 440.732 938.041 439.1 937.031 437.691C934.285 433.861 928.404 433.123 925.248 436.095C922.034 439.12 922 445.06 925.373 448.062C927.139 449.633 929.433 450.629 931.124 452.262C932.135 453.238 933.102 455.08 932.854 456.277C932.664 457.195 930.616 457.942 929.269 458.367C925.72 459.485 922.138 460.572 918.493 461.266C917.308 461.491 915.621 460.771 914.634 459.931C913.253 458.756 912.312 457.063 909.884 453.899C908.758 455.963 908.23 457.55 907.208 458.696C903.271 463.108 898.255 465.258 892.335 464.783C884.931 464.189 881.116 459.225 882.754 451.979C883.401 449.117 884.758 446.262 886.405 443.817C888.533 440.659 887.402 438.646 884.404 438.31C880.429 437.866 876.33 438.413 872.294 438.672C868.275 438.93 864.188 440.028 860.272 439.566C852.986 438.708 852.001 438.983 850.408 445.799C849.518 449.606 846.106 451.924 842.019 450.085C837.833 448.202 834.072 445.095 830.585 442.005C826.459 438.349 823.089 433.818 818.86 430.307C816.858 428.646 813.628 427.804 810.939 427.769C805.185 427.694 802.502 432.736 805.44 437.673C807.547 441.215 810.426 444.348 812.169 448.038C813.192 450.203 813.618 453.684 812.521 455.476C811.706 456.805 807.938 456.918 805.609 456.616C798.26 455.664 792.425 451.678 786.858 446.93C783.049 443.683 778.727 440.788 774.188 438.712C769.29 436.472 767.579 438.053 767.686 443.368C767.858 452 764.145 454.96 755.823 452.614C752.588 451.702 750.291 452.352 748.62 455.376C747.627 457.173 746.454 458.912 745.122 460.473C741.301 464.949 736.826 464.334 734.247 458.967C733.082 456.543 732.38 453.895 731.2 451.48C728.74 446.444 725.204 445.371 720.224 447.967C719.523 448.332 718.778 448.701 718.22 449.241C712.253 455.017 705.428 457.721 696.843 457.705C688.281 457.689 686.081 462.119 689.246 470.043C692.643 478.551 691.439 481.105 682.616 484.097C670.316 488.268 655.477 484.116 647.081 474.15C646.671 473.664 646.284 473.159 645.889 472.66C637.649 462.245 634.093 462.161 625.431 471.913C623.774 473.778 621.764 475.492 619.598 476.706C615.703 478.887 611.398 479.875 607.455 476.975C603.598 474.138 602.733 469.95 603.773 465.427C604.815 460.898 603.941 456.923 600.842 453.462C595.92 447.966 589.174 448.341 585.26 454.606C583.255 457.816 581.912 461.439 580.277 464.879C576.555 472.705 573.07 474.698 564.757 472.675C558.283 471.099 553.246 471.501 548.998 477.667C545.401 482.888 536.967 483.388 532.774 479.642C528.109 475.475 528.094 469.689 532.317 463.898C533.465 462.323 534.645 459.483 533.968 458.178C533.06 456.425 530.477 454.825 528.413 454.523C522.791 453.699 517.73 455.666 513.593 459.55C510.738 462.232 510.412 465.573 511.766 469.21C512.871 472.175 514.141 475.152 514.683 478.238C515.479 482.769 512.93 485.769 508.822 484.238C500.04 480.966 491.618 481.234 482.89 483.89C480.375 484.655 479.061 483.578 478.079 480.444C476.664 475.931 474.189 471.374 471.015 467.883C467.028 463.501 460.322 465.453 458.434 471.125C457.138 475.018 456.452 479.132 455.702 483.186C454.963 487.178 452.583 488.75 448.701 488.844C439.943 489.055 435.245 484.239 435.871 475.524C436.208 470.839 433.6 468.551 428.765 469.289C421.582 470.387 419.276 468.857 417.554 461.851C416.212 456.389 412.659 453.151 407.438 452.631C401.938 452.083 398.35 454.308 395.868 459.817C395.542 460.541 395.27 461.289 394.948 462.014C392.18 468.252 389.841 468.513 385.809 463.068C384.299 461.028 382.906 458.861 381.15 457.052C376.1 451.85 370.222 452.159 365.566 457.688C359.554 464.828 354.768 465.082 347.979 458.446C346.057 456.566 344.349 454.439 342.725 452.288C340.211 448.956 336.642 447.893 333.521 450.065C328.809 453.346 324.498 457.349 320.616 461.594C319.378 462.948 319.675 466.085 319.922 468.335C320.328 472.038 319.047 474.556 315.388 474.75C311.491 474.956 307.495 474.609 303.639 473.943C298.64 473.081 294.012 473.035 289.339 475.572C283.973 478.485 276.872 476.64 273.014 471.883C270.111 468.304 270.623 464.814 274.517 462.166C275.959 461.185 277.723 460.592 278.96 459.421C280.115 458.328 281.646 456.534 281.42 455.354C281.126 453.818 279.264 451.435 278.071 451.432C274.442 451.421 270.674 451.965 267.225 453.098C264.762 453.908 262.73 456.023 260.496 457.54C255.807 460.726 251.151 461.325 246.514 457.402C245.792 456.791 244.959 456.277 244.107 455.864C240.382 454.061 236.228 455.442 234.343 459.06C232.587 462.429 233.723 466.626 237.38 468.414C240.197 469.79 243.382 470.398 246.372 471.438C248.942 472.332 252.325 473.377 251.13 476.692C250.439 478.609 247.46 480.399 245.221 480.871C242.741 481.394 239.918 480.425 237.268 479.966C232.817 479.196 229.327 480.435 227.464 484.735C224.823 490.833 219.797 493.408 213.7 492.948C207.595 492.488 201.366 491.461 195.577 489.527C186.94 486.641 183.354 476.149 192.651 469.526C199.997 464.294 200.672 458.302 195.57 452.65C192.216 448.936 187.89 448.001 183.533 450.546C181.104 451.965 178.768 453.81 176.94 455.936C173.026 460.489 168.139 463.079 162.315 462.66C146.267 461.503 133.132 468.474 120.046 476.417C113.592 480.334 106.537 483.495 99.4014 485.991C91.6039 488.718 86.952 486.709 82.1114 480.037C79.6655 476.666 76.8533 474.182 72.4566 473.873C68.2747 473.58 66.2797 471.031 66.0459 466.97C65.9272 464.907 65.708 462.838 65.7716 460.779C66.0351 452.253 68.2089 450.158 76.7197 450.638C79.9604 450.821 81.0454 449.397 81.0816 446.515C81.1526 440.875 77.0761 436.184 71.2997 436.49C66.6266 436.738 62.0316 438.351 57.3875 439.286C54.1441 439.94 50.8748 440.967 47.6199 440.957C40.6325 440.933 37.1269 436.25 38.3707 429.313C39.0762 425.379 36.7685 422.653 32.2469 423.118C28.8528 423.468 25.569 424.953 22.2543 425.99C19.086 426.982 16.0083 428.449 12.7709 428.992C7.40371 429.894 2.32207 426.346 0.640227 421.117C-1.03888 415.896 0.50191 412.753 6.24733 409.607C9.77538 407.675 14.2009 406.571 13.7014 400.983C13.6599 400.519 15.965 399.33 17.1568 399.361C22.5568 399.502 25.1517 397.222 25.2355 391.829C25.3886 381.966 26.709 380.221 36.0249 377.212C37.1744 376.84 38.6123 376.27 39.1674 375.343C41.3257 371.739 42.6333 367.397 47.9561 367.176C48.3619 367.159 48.7782 366.278 49.109 365.748C53.2113 359.178 56.1317 358.076 63.5931 360.312C64.5067 360.585 65.4184 361.112 66.326 361.101C67.6323 361.086 69.5824 361.1 70.0696 360.34C70.6451 359.443 70.1896 357.648 69.7373 356.404C69.3859 355.437 68.4228 354.642 67.6134 353.9C61.496 348.29 60.3082 342.578 63.5705 334.209C66.6664 326.267 72.8545 321.522 80.2684 321.439C82.0165 321.419 83.7684 321.564 85.5139 321.502C91.2847 321.297 92.9499 319.051 91.4931 313.562C90.9646 311.571 90.2786 309.598 89.9958 307.57C89.4842 303.901 91.5048 301.465 94.8955 302.66C103.663 305.752 109.487 302.417 115.07 295.864C119.248 290.959 122.223 292.038 124.55 298.228C127.148 305.138 131.689 306.458 136.65 301.745C140.235 298.339 139.943 295.048 136.281 291.616C134.743 290.173 133.949 287.936 132.816 286.06C134.911 285.214 137.084 283.516 139.084 283.701C143.018 284.065 143.202 282.074 143.274 279.224C143.511 269.715 143.552 269.716 153.241 267.985C160.752 266.643 164.4 261.116 162.19 253.886C161.287 250.932 161.919 248.88 164.347 247.334C167.094 245.584 167.949 243.316 167.553 240.057C166.485 231.257 169.664 229.011 177.948 226.888C182.444 225.736 186.613 225.735 190.936 225.135C195.422 224.512 198.755 223.933 200.288 229.157C204.735 229 205.462 225.989 205.916 222.712C207.167 213.681 209.678 212.04 218.231 215.554C225.714 218.629 227.351 216.438 229.169 209.978C230.842 204.033 231.66 197.851 232.968 191.798C233.47 189.477 234.172 187.184 234.986 184.952C236.373 181.15 238.892 179.509 243.145 180.435C248.592 181.621 250.379 180.182 251.067 174.714C251.186 173.77 251.149 172.808 251.229 171.858C251.717 166.008 253.54 164.644 259.248 165.841C266.341 167.328 269.176 165.629 270.894 158.49C271.634 155.414 272.159 152.236 272.32 149.08C272.552 144.54 274.921 143.411 278.939 144.103C281.44 144.535 283.96 144.958 286.488 145.117C289.645 145.315 291.499 144.16 291.513 140.47C291.534 134.858 292.036 134.5 297.178 136.03C300.12 136.906 301.756 135.934 302.835 133.367C303.327 132.197 303.596 130.914 304.205 129.814C305.224 127.973 306.434 126.238 307.564 124.458C309.094 125.661 310.502 127.093 312.191 127.998C313.68 128.796 315.704 129.695 317.077 129.256C318.17 128.906 319.108 126.652 319.26 125.157C319.427 123.508 318.608 121.762 318.237 120.055C317.107 114.85 317.588 109.17 322.383 106.959C326.572 105.028 332.072 105.876 337.001 105.674C337.817 105.641 338.641 106.828 339.514 106.915C341.731 107.136 344.308 107.716 346.088 106.834C347.112 106.327 347.459 103.13 347.081 101.366C346.09 96.7485 346.308 93.2448 351.709 91.6364C352.578 91.3776 353.216 88.8812 353.212 87.4213C353.199 82.7469 354.698 81.3715 359.336 80.947C362.988 80.6128 366.523 79.111 370.176 78.6458C372.173 78.3915 374.306 79.2131 376.378 79.5495C375.675 81.0731 375.132 82.7031 374.216 84.085C373.536 85.1095 372.018 85.6423 371.51 86.6999C370.854 88.0635 370.231 90.8523 370.644 91.0743C372.37 92.002 375.66 93.1909 376.256 92.4874C378.599 89.7219 380.715 86.4609 381.813 83.0309C382.902 79.6309 382.528 75.7866 383.045 72.1728C383.588 68.3788 385.71 65.9254 389.602 64.9216C395.976 63.278 397.808 59.2979 395.272 53.1232C392.66 46.762 395.148 43.6613 402.246 44.3777C405.402 44.6963 408.563 45.0456 411.73 45.1604C416.75 45.3423 420.201 42.9447 422.13 38.3305C423.354 35.4008 424.597 32.4778 425.771 29.5279C427.037 26.3483 429.331 25.2328 432.608 25.9518C433.85 26.2242 435.089 26.5081 436.331 26.7799C443.706 28.394 446.261 27.1409 449.622 20.3464C450.886 17.7912 451.991 15.1096 453.6 12.7841C456.212 9.00956 460.3 7.18072 464.436 8.93043C469.351 11.0095 471.888 9.0012 474.324 5.39392C475.034 4.34264 475.785 3.28835 476.677 2.39537C480.426 -1.35801 485.686 -0.520756 489.005 3.65343C491.392 6.6557 494.311 9.46093 497.526 11.5229C501.626 14.1532 505.798 13.6056 509.773 10.2305C514.27 6.41382 523.376 9.31291 524.62 15.0054C526.107 21.8082 530.21 25.6575 536.393 28.2069C538.316 28.9996 539.847 31.1778 541.1 33.0312C542.287 34.7877 542.875 36.9497 543.954 39.4641C545.197 38.2922 546.031 37.649 546.691 36.8599C550.795 31.9524 552.98 32.0129 556.386 37.2958C557.59 39.1622 558.61 41.1488 559.682 43.0983C561.303 46.0472 563.348 47.8265 567.115 48.0818C569.054 48.2132 570.878 50.5882 572.679 52.043C574.509 53.5214 576.065 55.563 578.129 56.4002C578.797 56.6713 580.632 53.8492 582.043 52.5626C583.564 51.1764 585.443 48.6601 586.758 48.8975C589.269 49.3511 591.579 51.2819 593.803 52.8422C595.388 53.9543 596.473 56.0032 598.165 56.6959C603.793 58.9993 604 59.1783 601.491 64.8598C601.114 65.713 600.771 66.5811 600.44 67.3768C600.766 67.7437 600.983 68.1855 601.175 68.1748C609.65 67.7016 613.503 73.7988 617.793 79.5146C618.597 80.5848 620.935 81.248 622.356 80.9819C629.074 79.724 634.217 82.9074 639.376 86.3325C640.631 87.1656 642.157 88.5725 643.33 88.3727C647.82 87.6078 649.4 89.6745 649.865 93.6973C650.395 98.2889 652.678 101.377 657.674 101.746C660.797 101.978 661.432 103.533 660.952 106.588C659.567 115.413 661.697 117.848 670.426 118.21C675.127 118.405 677.876 120.893 678.745 125.705C679.525 130.024 679.958 134.507 682.675 136.65C687.43 135.386 691.013 134.052 694.71 133.556C698.626 133.031 701.872 136.96 700.629 140.742C699.134 145.287 700.918 147.594 705.063 148.248C711.334 149.238 714.876 153.11 716.981 158.638C718.704 163.162 720.612 166.633 726.627 166.414C731.244 166.245 733.791 169.753 734.263 174.567C735.273 184.86 743.175 193.46 753.405 194.277C756.925 194.558 760.758 192.965 764.209 191.617C770.512 189.155 771.958 189.869 771.593 196.66C771.33 201.564 770.554 206.446 769.887 211.322C768.591 220.805 770.835 224.311 779.644 228.314C781.602 229.204 782.84 232.127 783.902 234.356C784.441 235.489 783.713 237.169 783.8 238.586C783.963 241.263 783.801 246.022 784.655 246.225C787.771 246.969 791.92 247.299 794.457 245.764C800.436 242.147 805.857 240.354 812.042 244.86C812.998 245.557 814.445 245.754 815.69 245.845C819.248 246.106 820.548 248.336 821.058 251.466C821.721 255.539 822.162 259.679 823.233 263.646C825.11 270.602 828.448 272.749 835.197 270.753C840.757 269.109 845.361 268.485 848.523 274.62C848.826 275.209 851.637 275.407 852.288 274.77C856.581 270.566 859.778 269.712 865.024 272.323C867.126 273.37 868.857 275.148 870.931 276.273C874.047 277.964 877.172 279.967 880.548 280.785C888.545 282.721 891.19 289.592 886.099 296.149C885.618 296.767 885.546 297.702 885.284 298.49C886.244 298.45 887.204 298.421 888.163 298.358C888.292 298.349 888.404 298.162 888.533 298.068C897.645 291.454 901.708 291.527 910.918 298.006C912.91 299.407 915.368 300.722 917.709 300.917C921.562 301.24 923.691 303.082 924.378 306.531C926.179 315.577 931.968 319.382 940.747 320.288C944.582 320.683 948.274 322.467 951.229 323.374L951.229 323.374Z" fill="black"/>
</mask>
<g mask="url(#mask0_12_1089)">
<path d="M641.382 327.804C652.138 327.804 659.821 326.323 666.607 328.159C676.256 330.769 685.248 335.817 694.52 339.824C689.738 347.87 685.113 356.014 680.125 363.929C676.224 370.117 670.82 375.554 667.9 382.131C653.576 414.391 624.257 426.306 591.418 415.118C580.862 411.522 567.204 411.314 556.567 414.656C507.313 430.13 458.416 431.251 410.189 412.876C399.698 408.88 385.397 397.894 384.779 389.272C384.006 378.486 392.738 361.885 402.297 356.424C435.118 337.669 445.342 313.64 435.316 276.907C426.962 246.301 436.917 221.668 467.994 206.003C490.221 194.801 505.575 196.61 524.87 213.21C543.241 229.013 565.935 244.98 588.885 249.235C643.682 259.393 654.438 270.694 641.382 327.804L641.382 327.804Z" fill="#0C0C0C"/>
<path d="M371.699 247.519C385.198 263.838 396.732 278.609 409.26 292.484C413.72 297.424 420.183 301.187 426.443 303.748C442.409 310.281 450.209 321.299 445.834 338.288C441.643 354.561 418.627 369.436 404.115 362.847C378.845 351.373 356.2 351.055 331.481 364.643C318.16 371.966 243.099 331.458 237.636 316.698C230.086 296.3 245.784 267.538 270.777 264.297C305.994 259.73 324.999 242.594 331.408 208.006C334.743 190.009 348.906 179.475 366.823 180.817C375.957 181.5 388.029 188.474 392.502 196.224C401.337 211.535 395.535 225.859 380.458 236.11C376.875 238.546 374.855 243.28 371.699 247.519V247.519Z" fill="#0C0C0C"/>
<path d="M221.107 329.865C228.504 350.093 241.616 355.258 260.443 345.358C277.858 336.2 306.274 348.396 316.034 369.216C325.616 389.657 317.3 411.718 294.542 417.03C252.105 426.936 209.547 430.216 169.287 406.515C160.658 401.435 149.272 401.206 140.225 396.631C126.504 389.693 110.522 383.56 101.212 372.344C82.6581 349.994 89.8733 335.207 118.71 329.268C122.048 328.58 125.945 328.606 128.583 326.822C146.628 314.619 164.226 315.743 181.377 330.192C198.806 344.902 203.539 344.979 221.107 329.865Z" fill="#0C0C0C"/>
<path d="M529.511 236.688C457.575 231.82 402.39 205.598 349.676 175.333C338.283 168.792 336.583 145.368 330.417 129.721C345.905 123.697 363.733 109.471 376.465 113.104C425.293 127.036 467.009 115.791 506.933 88.6683C509.573 86.8747 512.449 85.4066 515.29 83.9307C568.656 56.206 588.984 60.7934 612.715 105.886C637.654 153.275 626.472 198.331 581.671 220.567C563.055 229.806 541.502 233.123 529.511 236.688V236.688Z" fill="#0C0C0C"/>
<path d="M839.49 213.786C837.006 223.223 834.827 231.503 832.731 239.47C854.362 254.494 854.305 278.099 830.743 291.275C818.164 298.309 801.771 299.448 786.86 301.172C762.333 304.006 737.637 305.91 712.963 306.729C697.975 307.227 681.638 308.077 668.337 302.726C660.596 299.612 654.092 284.656 653.834 274.85C653.668 268.526 665.354 261.259 672.651 255.605C677.031 252.211 686.836 252.277 687.956 248.784C695.818 224.274 716.644 215.537 736.947 206.032C742.569 203.4 750.956 198.804 754.545 200.967C779.782 216.175 807.262 208.867 833.752 210.878C835.079 210.978 836.326 212.141 839.49 213.786V213.786Z" fill="#0C0C0C"/>
<path d="M911.669 423.94C870.485 417.439 828.405 414.144 788.512 403.013C770.024 397.853 757.321 374.578 739.141 364.85C725.084 357.33 706.48 358.597 690.1 355.029C679.36 352.69 660.135 348.951 660.032 345.396C659.667 332.747 661.889 315.45 670.299 307.946C699.767 281.651 801.595 283.551 833.342 306.917C853.122 321.475 873.779 335.251 895.458 346.699C915.278 357.166 935.702 359.558 955.844 342.644C961.952 337.515 975.371 341.093 985.442 340.683C982.185 349.563 980.981 360.208 975.207 366.923C965.738 377.936 948.036 384.42 962.107 403.443C946.291 412.795 930.475 422.147 914.66 431.499C913.663 428.979 912.666 426.46 911.669 423.94Z" fill="#0C0C0C"/>
<path d="M798.811 312.549C797.214 312.059 794.161 310.953 791.024 310.201C787.288 309.305 783.464 308.071 779.707 308.165C775.701 308.265 773.869 307.203 772.707 303.285C771.493 299.195 769.147 295.45 767.458 291.486C766.888 290.147 766.814 288.597 766.512 287.143C768.179 287.181 770.057 286.748 771.461 287.375C773.316 288.204 774.757 289.922 776.45 291.156C782.239 295.377 784.872 294.876 788.953 289.157C789.806 287.962 791.219 286.526 792.503 286.386C799.318 285.64 806.212 284.641 813.001 285.042C816.373 285.241 820.146 287.717 822.551 290.278C823.39 291.171 820.689 295.421 819.551 298.115C819.292 298.728 818.71 299.204 818.443 299.816C814.235 309.441 809.801 312.591 798.811 312.549V312.549Z" fill="#070707"/>
<path d="M239.097 452.131C230.057 449.219 220.772 447.359 213.494 457.033C216.906 457.943 220.087 458.792 223.566 459.721C221.926 468.051 215 468.878 209.682 468.574C205.093 468.311 199.602 465.293 196.484 461.754C190.182 454.601 185.264 446.236 179.684 438.436C177.495 435.375 174.532 432.759 172.853 429.465C169.583 423.052 173.128 416.934 180.239 417.016C184.526 417.065 188.817 418.708 193.066 419.796C202.469 422.203 211.751 425.195 221.258 427.055C232.452 429.246 241.627 440.833 239.097 452.131Z" fill="#070707"/>
<path d="M456.871 117.7C457.761 116.481 458.775 115.244 459.623 113.902C462.353 109.577 465.867 109.504 469.732 112.102C475.058 115.683 477.333 124.99 474.685 131.717C472.05 138.41 466.802 139.195 460.433 138.752C457.625 138.557 454.722 140.791 451.794 141.009C446.772 141.383 441.071 142.454 436.83 140.576C433.054 138.905 430.567 133.814 428.227 129.814C427.724 128.954 430.265 124.757 431.45 124.736C436.345 124.651 438.237 121.707 440.775 118.244C443.837 114.064 448.325 114.346 456.871 117.7Z" fill="#070707"/>
<path d="M467.225 389.52C457.656 386.926 447.994 384.61 438.604 381.48C436.931 380.922 435.165 376.656 435.69 374.709C436.141 373.036 440.123 370.859 441.992 371.29C448.568 372.81 452.853 370.799 457.118 365.705C462.056 359.806 468.622 362.631 473.709 365.611C480.839 369.79 487.14 374.898 496.186 374.952C500.869 374.98 500.796 378.852 498.072 381.935C496.921 383.238 494.554 385.026 493.511 384.619C484.489 381.099 477.653 385.972 470.482 389.927C469.539 390.447 468.207 390.261 467.054 390.401L467.225 389.52Z" fill="#070707"/>
<path d="M534.851 221.426C533.498 228.685 535.772 230.719 540.954 230.3C543.726 230.076 546.721 229.755 549.279 230.554C551.617 231.285 554.409 233.076 555.294 235.135C555.972 236.713 554.595 240.028 553.095 241.548C544.35 250.414 537.203 251.534 525.574 246.583C522.815 245.408 519.533 245.073 517.22 243.365C515.465 242.068 514.501 239.281 514.021 236.983C513.907 236.434 517.049 234.619 518.83 234.372C524.325 233.612 526.541 230.97 525.681 225.356C525.103 221.576 526.172 217.903 530.793 218.02C532.446 218.062 534.033 220.693 534.851 221.426Z" fill="#070707"/>
<path d="M152.709 460.049C152.567 466.86 146.436 470.485 141.145 466.098C135.272 461.228 129.864 460 122.641 462.571C117.765 464.306 112.478 462.636 110.34 457.4C109.391 455.076 110.185 451.263 111.603 449.02C112.565 447.497 116.178 446.62 118.271 447.058C122.477 447.939 125.939 448.276 128.722 444.239C129.413 443.236 131.002 442.537 132.286 442.31C139.602 441.019 152.863 452.623 152.709 460.049V460.049Z" fill="#070707"/>
<path d="M350.166 187.649C353.144 188.632 355.913 189.121 358.198 190.446C359.801 191.375 361.673 193.426 361.702 195.007C361.727 196.41 359.642 198.392 358.029 199.188C351.278 202.522 344.633 200.508 340.71 192.525C337.737 186.476 333.019 184.381 327.433 182.85C323.531 181.78 320.335 180.403 320.902 175.463C321.475 170.476 325.087 168.275 329.167 168.85C335.972 169.807 342.946 171.195 349.217 173.877C356.104 176.823 353.839 182.338 350.166 187.649H350.166Z" fill="#070707"/>
<path d="M220.974 407.224C220.277 407.224 219.482 407.446 218.9 407.187C215.744 405.782 212.641 404.258 209.52 402.775C212.177 400.794 214.56 397.911 217.543 397.005C225.766 394.507 225.873 394.521 220.779 388.114C217.832 384.407 219.539 381.572 223.598 380.092C229.25 378.03 242.341 382.572 245.687 387.617C249.154 392.843 246.877 397.635 240.735 398.914C238.404 399.4 236.365 401.219 234.148 402.343C229.992 404.449 225.803 406.491 221.628 408.56C221.41 408.115 221.192 407.669 220.974 407.224V407.224Z" fill="#070707"/>
<path d="M381.518 288.566C380.124 288.434 378.567 288.678 377.372 288.13C367.517 283.621 357.798 279.068 346.338 281.056C344.465 281.381 341.764 278.969 339.97 277.269C336.651 274.124 333.361 269.645 337.088 265.89C338.893 264.07 344.661 265.116 348.136 266.313C351.737 267.553 354.735 270.546 357.999 272.77C362.573 275.888 367.033 277.095 373.001 275.833C377.466 274.889 382.831 277.018 387.473 278.678C389.323 279.34 390.306 282.423 391.684 284.404C389.687 285.683 387.784 287.164 385.655 288.162C384.473 288.716 382.913 288.464 381.518 288.566Z" fill="#070707"/>
<path d="M626.129 308.077C620.364 304.701 613.932 301.216 607.896 297.142C606.801 296.402 606.38 292.218 607.273 291.401C611.06 287.935 615.198 284.587 619.783 282.409C621.302 281.688 624.603 284.512 626.989 285.89C628.776 286.923 630.263 288.563 632.129 289.358C636.917 291.398 639.112 294.763 637.958 299.872C636.656 305.635 632.155 307.266 626.129 308.077Z" fill="#070707"/>
<path d="M332.216 367.804C324.245 363.462 317.358 360.51 311.599 356.088C309.861 354.753 310.045 348.681 311.524 345.961C313.321 342.656 317.284 340.393 320.658 338.219C321.194 337.873 324.486 340.095 324.901 341.579C326.359 346.788 330.145 348.927 334.661 350.649C338.171 351.987 342.68 353.678 340.66 358.315C339.119 361.852 335.352 364.418 332.216 367.804Z" fill="#070707"/>
<path d="M682.102 230.007C679.185 230.574 676.285 231.478 673.347 231.627C669.534 231.819 665.476 232.108 661.938 231.015C659.578 230.287 657.94 227.222 655.979 225.202C657.867 223.862 659.67 222.377 661.659 221.208C666.622 218.292 671.391 214.458 676.777 213.045C680.68 212.02 686.344 213.079 689.534 215.466C691.949 217.273 693.206 223.142 692.171 226.277C691.284 228.965 686.417 230.34 683.31 232.296C682.907 231.533 682.505 230.77 682.102 230.007L682.102 230.007Z" fill="#070707"/>
<path d="M876.058 356.747C874.104 356.589 873.602 356.654 873.181 356.499C866.009 353.847 861.222 354.437 861.477 363.964C861.513 365.318 857.898 367.859 855.901 367.934C852.593 368.058 848.849 367.28 846.002 365.643C843.583 364.253 840.275 360.574 840.758 358.873C841.475 356.351 845.082 354.525 847.665 352.692C850.562 350.636 854.316 349.462 856.586 346.914C861.547 341.346 865.194 341.031 870.036 346.412C871.217 347.725 873.584 347.89 875.179 348.93C877.216 350.257 879.024 351.936 880.93 353.463C878.982 354.776 877.033 356.09 876.058 356.747Z" fill="#070707"/>
<path d="M953.697 394.246C952.552 394.184 951.718 394.383 951.175 394.073C943.205 389.522 935.701 384.294 926.608 381.64C923.315 380.679 924.357 376.17 927.989 374.838C930.261 374.005 933.054 374.187 935.553 374.459C941.795 375.138 948.008 376.089 954.222 377.005C959.553 377.791 963.954 380.008 963.579 386.201C963.207 392.34 958.723 394.141 953.697 394.246Z" fill="#070707"/>
<path d="M572.862 289.636C568.967 289.048 566.178 289.218 563.985 288.157C560.746 286.589 556.742 284.75 555.289 281.894C553.983 279.326 562.933 270.142 566.017 270.34C567.833 270.456 570.482 271.523 571.16 272.932C573.605 278.004 576.83 276.895 580.151 274.561C584.056 271.817 587.567 273.34 588.662 276.721C589.456 279.172 588.083 284.146 586.104 285.301C581.856 287.781 576.592 288.519 572.862 289.636Z" fill="#070707"/>
<path d="M396.193 157.724C389.227 155.012 382.147 152.872 375.334 149.394C370.525 146.939 367.028 141.149 369.053 132.28C371.027 123.635 375.693 125.615 379.738 127.891C383.67 130.104 387.386 133.281 391.285 135.663C394.011 137.327 396.849 139.163 399.703 139.499C404.129 140.021 408.109 141.709 408.002 149.73C407.89 158.081 403.158 155.722 399.919 156.252C398.765 156.44 397.59 156.282 396.424 156.282L396.193 157.724V157.724Z" fill="#070707"/>
<path d="M514.663 83.6431C516.562 82.4641 518.949 81.7917 519.955 80.2297C528.785 66.5213 532.847 65.8152 547.088 72.8969C553.91 76.2896 561.97 77.1231 569.33 79.5391C572.115 80.4532 574.508 82.5598 577.08 84.1228C574.448 86.7222 572.087 89.731 569.058 91.7279C567.772 92.576 564.922 91.6972 563.069 90.9194C557.718 88.6732 553.491 88.8171 547.976 92.22C536.99 98.9977 522.862 95.4679 514.663 83.6431Z" fill="#070707"/>
<path d="M618.777 166.557C628.599 151.843 639.129 151.007 649.866 162.086C651.787 164.068 656.078 164.428 659.254 164.373C665.148 164.271 669.306 165.764 669.768 172.321C670.235 178.933 665.647 180.112 660.542 180.329C649.877 180.783 639.235 182.039 631.191 171.903C628.879 168.989 623.527 168.487 618.777 166.557V166.557Z" fill="#070707"/>
<path d="M480.042 412.896C476.441 412.37 472.649 412.344 469.331 411.077C467.969 410.558 467.31 407.408 467.026 405.359C466.948 404.793 469.826 402.922 470.567 403.278C477.341 406.523 482.106 402.128 487.42 399.418C491.374 397.402 496.214 394.825 498.89 400.423C500.356 403.491 500.795 408.743 499.082 411.15C497.461 413.428 492.442 413.89 488.883 413.996C486.057 414.08 483.179 412.419 480.324 411.533C480.23 411.987 480.136 412.442 480.042 412.896L480.042 412.896Z" fill="#070707"/>
<path d="M188.36 264.801C191.736 264.127 195.21 262.622 198.461 263.006C201.941 263.417 206.197 264.79 208.261 267.279C209.944 269.308 210.271 274.915 208.706 276.558C206.785 278.574 202.108 279.058 198.91 278.515C193.71 277.632 188.589 275.721 183.742 273.556C181.339 272.482 179.619 269.876 177.589 267.964C179.979 266.679 182.307 265.255 184.787 264.18C185.767 263.756 187.085 264.111 188.248 264.111C188.286 264.341 188.323 264.571 188.36 264.801V264.801Z" fill="#070707"/>
<path d="M197.827 309.831C204.271 307.796 209.947 306.609 212.011 299.26C213.207 295.003 217.102 297.222 219.806 299.59C222.335 301.804 225.389 303.458 227.736 305.829C229.278 307.386 230.829 309.823 230.729 311.782C230.669 312.943 227.504 314.612 225.571 314.886C219.96 315.68 214.273 316.015 208.604 316.28C204.124 316.49 199.763 316.093 197.827 309.831L197.827 309.831Z" fill="#070707"/>
<path d="M218.869 363.407C210.871 363.645 204.987 363.927 200.901 357.206C199.691 355.217 195.475 355.15 192.739 353.965C190.615 353.046 188.65 351.758 186.614 350.634C188.472 348.996 190.095 346.48 192.237 345.908C196.209 344.848 200.564 344.277 204.603 344.774C206.919 345.058 209.01 347.75 211.047 349.535C212.638 350.931 214.37 352.393 215.357 354.198C216.717 356.685 217.435 359.523 218.869 363.407Z" fill="#070707"/>
<path d="M320.179 242.012C318.33 241.758 316.279 241.921 314.682 241.148C312.525 240.106 309.625 238.669 309.066 236.797C308.504 234.915 309.891 231.853 311.358 230.083C314.789 225.947 325.45 224.116 330.359 226.298C334.941 228.335 335.676 231.484 332.032 234.741C328.646 237.766 324.944 240.438 321.381 243.265C320.98 242.847 320.579 242.429 320.179 242.012Z" fill="#070707"/>
<path d="M682.088 389.701C679.333 388.629 674.404 387.492 670.469 384.865C668.327 383.435 666.243 378.784 667.071 376.833C668.101 374.407 673.026 371.225 674.761 371.955C680.263 374.268 685.817 377.531 689.894 381.814C693.136 385.221 689.516 389.727 682.088 389.701Z" fill="#070707"/>
<path d="M812.405 355.651C811.709 361.258 812.77 368.799 810.061 370.569C806.467 372.916 799.898 371.041 794.668 370.452C789.423 369.86 784.065 369.166 779.118 367.464C775.991 366.388 773.528 363.384 770.767 361.245C773.635 359.509 776.678 356.094 779.337 356.37C786.01 357.062 789.597 356.87 790.21 348.449C790.458 345.047 796.4 339.775 800.106 339.454C805.395 338.996 811.01 342.308 816.486 344.009C815.014 348.206 813.543 352.403 812.405 355.651Z" fill="#070707"/>
<path d="M540.839 342.378C539.744 342.221 537.94 342.384 536.587 341.68C533.924 340.294 531.51 338.426 528.994 336.757C531.08 334.92 533.103 333.003 535.279 331.279C536.346 330.434 538.101 330.248 538.846 329.245C541.544 325.613 544.967 323.441 548.535 326.977C550.792 329.214 553.33 334.264 552.294 336.034C550.56 338.998 546.081 340.366 542.725 342.35C542.382 342.553 541.816 342.378 540.839 342.378Z" fill="#070707"/>
<path d="M699.5 364.419C695.885 363.833 692.078 363.767 688.702 362.527C684.633 361.033 682.992 357.136 685.243 353.53C686.12 352.126 690.242 352.457 692.877 352.507C697 352.586 701.171 352.793 705.214 353.531C708.001 354.039 710.608 355.536 713.295 356.592C711.272 358.944 709.635 361.964 707.1 363.43C705.19 364.534 702.128 363.648 699.58 363.648L699.5 364.419Z" fill="#070707"/>
<path d="M733.895 302.147C729.579 302.557 725.259 303.289 720.948 303.243C718.673 303.219 716.103 302.243 714.297 300.868C713.588 300.328 713.965 296.721 714.968 295.93C716.767 294.509 719.971 292.896 721.596 293.613C725.672 295.41 728.334 294.472 731.704 292.075C733.529 290.776 737.52 290.289 739.055 291.429C740.686 292.64 741.681 296.632 740.919 298.635C740.055 300.903 736.932 302.31 734.79 304.092C734.492 303.444 734.193 302.795 733.895 302.147V302.147Z" fill="#070707"/>
<path d="M575.787 349.756C580.976 349.541 598.097 359.842 597.859 364.965C597.693 368.527 594.828 374.107 592.011 374.961C585.961 376.794 579.057 376.979 572.717 376.168C569.665 375.778 566.074 372.039 564.748 368.949C564.096 367.427 568.242 364.052 569.851 361.302C571.912 357.782 573.605 354.048 575.787 349.756Z" fill="#070707"/>
<path d="M266.342 324.47C270.525 324.758 274.771 324.714 278.863 325.484C280.713 325.832 283.704 327.896 283.63 329.013C283.492 331.107 281.557 334.764 280.268 334.808C274.662 335.001 268.899 334.63 263.46 333.34C261.796 332.945 260.347 329.024 260.117 326.594C260.034 325.717 263.814 324.475 265.831 323.399C266.002 323.756 266.172 324.113 266.342 324.47V324.47Z" fill="#070707"/>
<path d="M377.356 445.51C372.007 443.722 363.626 442.975 358.356 438.535C353.765 434.666 348.942 423.014 350.768 421.124C355.922 415.787 365.295 409.841 371.441 411.201C381.673 413.466 391.325 420.387 400.024 426.939C407.958 432.913 404.901 439.378 396.556 442.379C391.221 444.297 385.203 444.315 377.356 445.51Z" fill="#070707"/>
<path d="M301.346 411.464C296.425 409.633 290.566 407.785 285.056 405.194C283.49 404.457 281.916 401.373 282.215 399.7C282.513 398.039 285.305 395.444 286.761 395.595C295.747 396.527 304.692 397.993 313.527 399.863C313.969 399.956 314.405 406.8 312.839 408.118C310.389 410.179 306.225 410.204 301.346 411.464Z" fill="#070707"/>
<path d="M633.303 414.405C635.644 414.236 638.325 413.253 640.258 414.06C644.739 415.931 648.859 418.668 653.125 421.053C648.306 424.817 643.89 430.786 638.561 431.759C632.558 432.854 625.546 429.974 619.353 427.759C616.63 426.785 614.849 423.18 612.64 420.77C615.228 418.808 617.558 415.911 620.466 415.108C624.515 413.991 628.997 414.441 633.293 414.22L633.303 414.405Z" fill="#070707"/>
<path d="M470.353 200.042C487.246 200.461 495.015 207.086 491.859 218.667C491.216 221.028 489.637 223.905 487.644 224.986C481.046 228.566 459.805 217.764 457.952 210.286C455.962 202.251 458.978 199.76 470.353 200.042V200.042Z" fill="#070707"/>
<path d="M491.69 42.2493C485.811 58.8785 476.361 56.3416 467.132 51.7812C462.191 49.3397 458.118 45.1409 453.653 41.7351C458.967 40.6489 464.309 38.5735 469.589 38.7206C476.568 38.9152 483.498 40.8504 491.69 42.2493V42.2493Z" fill="#070707"/>
<path d="M501.64 282.239C498.86 283.339 496.592 285.145 494.763 284.776C490.569 283.931 486.588 282.025 482.521 280.55C484.626 278.406 486.418 275.752 488.904 274.227C493.645 271.319 497.223 273.173 499.42 278.084C499.881 279.117 500.483 280.087 501.64 282.239V282.239Z" fill="#070707"/>
<path d="M34.169 401.777C46.4881 401.777 58.8268 401.428 71.1072 402.117C73.1798 402.234 75.0009 406.826 76.9383 409.35C74.1561 410.596 71.4323 412.722 68.5798 412.912C61.7854 413.362 54.841 413.536 48.1283 412.597C42.9707 411.876 38.0742 409.288 33.0614 407.531C33.4306 405.613 33.7999 403.695 34.169 401.777V401.777Z" fill="#070707"/>
<path d="M402.512 399.604C393.594 394.264 384.383 389.174 375.787 383.197C374.294 382.159 374.312 376.715 375.642 374.529C376.787 372.646 381.438 371.001 383.432 371.85C393.18 375.999 402.724 380.727 411.92 385.986C413.695 387.001 415.065 392.837 414.074 393.784C411.467 396.275 407.459 397.299 402.512 399.604Z" fill="#070707"/>
<path d="M675.817 261.282C688.625 253.748 699.345 247.441 709.197 241.646C713.646 250.876 717.06 255.578 718.098 260.756C719.223 266.365 720.381 274.817 717.392 277.618C714.258 280.554 705.508 279.947 700.491 277.843C693.133 274.757 686.912 268.962 675.817 261.282Z" fill="#070707"/>
<path d="M414.518 158.873C435.479 158.873 454.697 158.074 473.745 159.518C477.765 159.823 484.207 168.518 483.954 173.035C483.721 177.216 476.638 183.017 471.497 184.587C443.745 193.066 423.806 185.325 414.518 158.873Z" fill="#070707"/>
<path d="M485.567 425.853C492.88 431.69 505.029 436.489 506.548 443.568C510.273 460.939 495.937 466.244 482.308 464.334C471.982 462.887 454.352 455.998 454.114 450.874C453.391 435.3 465.011 427.331 482.154 431.327C483.291 429.503 484.429 427.678 485.567 425.853V425.853Z" fill="#070707"/>
<path d="M434.807 265.445C442.923 258.151 450.575 250.376 459.308 244.106C461.304 242.672 470.116 245.896 470.463 247.899C471.558 254.22 472.396 262.519 469.193 267.247C462.519 277.101 446.182 275.772 434.807 265.445Z" fill="#070707"/>
<path d="M294.234 164.482C301.845 168.326 305.735 175.686 299.887 180.96C294.907 185.45 285.507 185.037 278.062 186.794C278.078 183.452 276.711 178.838 278.383 177.018C282.609 172.42 288.202 169.079 294.234 164.482Z" fill="#070707"/>
<path d="M637.599 269.625C634.394 275.138 628.875 277.569 625.858 274.538C624.313 272.986 623.121 268.498 624.07 267.477C629.397 261.749 633.079 267.999 637.599 269.625Z" fill="#070707"/>
<path d="M432.41 97.4736C424.617 96.3049 420.609 96.684 417.825 95.0186C414.877 93.2557 413.091 89.5477 410.798 86.6893C413.373 84.7316 415.689 82.0115 418.594 81.0205C421.801 79.9265 425.773 79.5579 429.015 80.4007C435.453 82.0741 441.618 84.7955 447.896 87.0836C441.881 91.1197 435.865 95.1557 432.41 97.4736Z" fill="#070707"/>
<path d="M730.995 375.393C723.868 375.626 718.109 375.944 712.361 375.797C711.793 375.782 710.38 372.196 710.928 371.495C713.446 368.277 726.523 369.964 730.995 375.393Z" fill="#070707"/>
<path d="M555.826 461.558C556.211 455.223 560.81 451.618 564.866 454.503C566.799 455.877 567.591 458.857 568.9 461.109C566.744 461.728 564.603 462.777 562.43 462.846C560.226 462.916 557.991 462.019 555.826 461.558V461.558Z" fill="#070707"/>
<path d="M575.026 150.658C568.229 138.501 562.242 130.691 559.858 121.903C559.058 118.956 569.656 109.119 571.269 109.931C581.926 115.297 591.555 122.705 601.518 129.449C594.301 135.227 587.084 141.005 575.026 150.658Z" fill="#070707"/>
<path d="M596.489 201.279C606.045 207.973 612.411 212.433 618.777 216.893C611.094 221.471 603.565 229.288 595.682 229.663C588.635 229.999 581.197 222.125 573.931 217.873C580.743 212.862 587.556 207.85 596.489 201.279Z" fill="#070707"/>
<path d="M684.9 329.108C672.78 332.807 666.078 334.853 659.375 336.899C658.136 332.383 654.851 327.123 656.155 323.533C657.953 318.588 663.22 314.905 667.001 310.681C671.577 315.392 676.152 320.102 684.9 329.108Z" fill="#070707"/>
<path d="M466.124 412.028C463.074 414.449 461.196 417.118 459.38 417.076C457.228 417.027 455.13 414.641 453.009 413.268C455.006 411.348 456.732 408.61 459.105 407.82C460.497 407.357 462.921 409.995 466.124 412.028Z" fill="#070707"/>
<path d="M960.978 356.732C965.676 354.92 970.373 353.109 975.484 351.139C975.798 357.702 970.678 359.922 960.978 356.732Z" fill="#070707"/>
</g>
</svg>
