<svg xmlns="http://www.w3.org/2000/svg" viewBox="0 0 36.8 12"><g fill-rule="evenodd" clip-rule="evenodd"><path d="M2.9 0H0v10.1h3c2.9 0 4.9-1.6 4.9-5.1s-2-5-5-5zm2.6 5c0 2.4-1.1 3.3-2.7 3.3h-.4V1.8h.4c1.6 0 2.7.8 2.7 3.2zm3-5h2.4l.3 5.4v2.5h.1c.1-.9.3-1.7.5-2.5l.7-2.8H14l.7 2.8c.2.8.4 1.6.5 2.5h.1c0-.9 0-1.7.1-2.5l.3-5.4H18l-1.3 10.1h-2.5L13.5 7c-.1-.6-.3-1.3-.3-1.9-.1.6-.2 1.3-.3 1.9l-.6 3.1H9.9L8.5 0m10.4 0h2.5l1 3.6.3 1.4h.1l.4-1.4 1-3.6h2.5v10.1h-2V7c0-1.1.2-3.6.3-4.7L24.1 5l-.8 2.4h-1.1L21.4 5l-.7-2.7c.1 1.1.3 3.5.3 4.7v3.1h-1.9L18.9 0" fill="#191919"/><path d="M29.6 12h7.2v-1.9h-7.2V12z" fill="#fbdb1c"/></g></svg>