<svg width="254" height="63" viewBox="0 0 254 63" fill="none" xmlns="http://www.w3.org/2000/svg">
<path d="M71.7674 49.761C71.9551 49.4565 71.9965 49.2393 71.9965 49.2393V46.9389C72.0366 46.6006 71.9965 46.3723 71.9965 46.3723C71.9965 46.3723 71.9118 45.6223 71.0265 44.922V44.6195C71.0596 44.3401 71.0265 44.1518 71.0265 44.1518C71.0265 44.1518 70.9889 43.824 70.6881 43.423V37.5068C71.246 37.2435 71.8168 36.9152 72.3977 36.5099L72.1292 33.5723C72.1326 33.567 72.1366 33.5622 72.1399 33.557C72.7702 32.5535 72.0252 32.3815 72.0252 32.3815L72.0211 32.3897L70.7108 18.0527C70.9386 17.9753 71.1519 17.8928 71.3289 17.7992C71.8017 17.5489 71.9619 17.0042 71.6809 16.5488C71.3654 16.0376 70.8286 15.6006 70.2392 15.3706C69.1099 14.93 67.8525 14.7342 66.6595 14.7055V12.7109C68.5151 12.5453 69.9703 10.9875 69.9703 9.08786V3.63947C69.9703 1.62944 68.3417 0 66.3329 0C64.324 0 62.6954 1.62943 62.6954 3.63947V9.08785C62.6954 10.9875 64.1505 12.5453 66.0061 12.7109V14.7044C64.6258 14.7416 63.3878 14.9982 62.6172 15.3515C61.8592 15.6991 61.3817 16.2474 61.2231 16.7182C61.0508 17.2295 61.3895 17.6912 61.7242 17.8746C61.8876 17.9641 62.0918 18.0428 62.3127 18.1163L61.3378 32.239L61.3374 32.2381C60.5964 32.5803 61.2438 33.489 61.2508 33.4987L61.0509 36.3953C61.0509 36.3953 61.5116 36.7972 62.3212 37.2425V43.3182C61.9275 43.765 61.8489 44.1518 61.8489 44.1518C61.8489 44.1518 61.8159 44.328 61.8489 44.5923V44.9769C61.017 45.661 60.8789 46.3723 60.8789 46.3723C60.8789 46.3723 60.8389 46.5858 60.8789 46.906V49.1246C60.8789 49.1246 60.9349 49.3764 61.1655 49.7227V55.26C61.1655 55.26 60.6192 55.8641 60.6874 56.7668C60.7403 57.4657 61.1706 58.0805 61.7781 58.4296C62.5732 58.8867 64.157 59.5983 66.6093 59.5409C69.0357 59.484 69.8689 59.3153 71.1408 58.4912C71.6145 58.1843 71.9011 57.802 72.1327 57.274C72.3622 56.7509 72.369 56.0341 71.7674 55.3746V49.761L71.7674 49.761ZM67.6507 38.3688V42.0424C67.3126 42.0031 66.9414 41.979 66.5324 41.9745C66.0957 41.9696 65.7087 41.9936 65.3489 42.0317V38.2984C66.0535 38.4145 66.8253 38.4536 67.6507 38.3688ZM70.2296 42.9575C69.8121 42.6261 69.1777 42.3082 68.2143 42.1273V38.2916C68.8596 38.1825 69.533 37.9953 70.2296 37.7071V42.9575ZM63.3053 9.04429V3.70396C63.3053 2.0309 64.6608 0.674639 66.3329 0.674639C68.005 0.674639 69.3605 2.0309 69.3605 3.70396V9.04429C69.3605 10.7173 68.0049 12.0736 66.3329 12.0736C64.6608 12.0736 63.3053 10.7173 63.3053 9.04429ZM64.7854 38.1894V42.1111C63.8578 42.2781 63.2162 42.5783 62.7796 42.902V37.4789C63.3369 37.7483 64.0119 38.0108 64.7854 38.1894Z" fill="#1E09B1"/>
<path d="M18.0868 41.1212V58.7932H0V48.5533L3.01835 47.9635V33.3823L0 32.7925V22.5526H18.0868L25.6793 36.4731L33.2019 22.5526H51.312V32.7925L48.2937 33.3823V47.9635L51.312 48.5533V58.7932H33.2019V41.1212L25.6793 54.1451L18.0868 41.1212Z" fill="#1E09B1"/>
<path d="M92.0326 41.8149V49.2942L94.8856 49.8133V59.251H80.6904V49.8369L83.5201 49.2943V35.8692L80.6904 35.3265V26.0305H97.7153L109.058 43.9384V35.9164L106.228 35.3265V26.0305H120.401V35.3265L117.571 35.8692V49.2943L120.401 49.8369V59.251H103.375L92.0326 41.8149Z" fill="#1E09B1"/>
<path d="M145.231 41.0418L151.762 39.6497V46.374L145.231 44.9584V50.1727C146.174 50.1727 147.085 50.1059 147.966 49.972C148.846 49.8386 149.664 49.6536 150.419 49.4177C151.173 49.1817 151.865 48.9068 152.494 48.5919C153.122 48.2775 153.665 47.9394 154.12 47.5773H157.351V59.6575H128.205V50.2435L131.035 49.7008V36.3229L128.205 35.7803V26.437H157.351V38.5172H154.12C153.665 38.1715 153.122 37.8412 152.494 37.5262C151.865 37.2118 151.173 36.9364 150.419 36.7004C149.664 36.4645 148.846 36.2758 147.966 36.1342C147.085 35.9926 146.174 35.9218 145.231 35.9218V41.0418Z" fill="#1E09B1"/>
<path d="M254 59.8613H239.899C239.458 59.0437 239.003 58.1745 238.531 57.2541C238.059 56.3341 237.603 55.3707 237.163 54.3639C236.723 53.3575 236.31 52.3194 235.925 51.2495C235.54 50.18 235.214 49.0788 234.947 47.9463H234.168V59.8613H217.143V50.4473L219.973 49.9046V36.4796L217.143 35.9369V26.6408H236.456C239.018 26.6408 241.231 26.7511 243.094 26.9711C244.957 27.1917 246.537 27.5138 247.834 27.9385C249.13 28.3632 250.18 28.8785 250.982 29.484C251.783 30.0895 252.408 30.7737 252.856 31.5365C253.305 32.2997 253.607 33.1374 253.764 34.0494C253.921 34.9618 254 35.9292 254 36.9514C254 37.9896 253.902 38.9333 253.705 39.7827C253.509 40.6321 253.159 41.4107 252.656 42.1186C252.153 42.8264 251.465 43.4751 250.592 44.0652C249.72 44.6548 248.608 45.2094 247.256 45.7285C247.539 46.2947 247.959 46.967 248.517 47.7459C249.075 48.5242 249.685 49.3187 250.345 50.1286C251.005 50.939 251.661 51.7214 252.314 52.4764C252.966 53.2314 253.528 53.8766 254 54.4111V59.8613V59.8613ZM234.168 41.5523C235.033 41.5523 235.815 41.5091 236.515 41.4227C237.214 41.3362 237.812 41.1475 238.307 40.8564C238.802 40.5653 239.183 40.1366 239.45 39.5704C239.718 39.0041 239.851 38.2414 239.851 37.2818C239.851 36.338 239.718 35.583 239.45 35.0167C239.183 34.4505 238.802 34.0141 238.307 33.7071C237.812 33.4007 237.214 33.2 236.515 33.1056C235.815 33.0112 235.033 32.964 234.168 32.964V41.5523V41.5523Z" fill="#1E09B1"/>
<path d="M205.018 36.2637C205.002 36.7356 204.994 37.1958 204.994 37.6439V42.587C204.994 45.7332 204.561 48.4266 203.697 50.6678C202.832 52.9095 201.661 55.764 200.184 57.1951C198.706 58.6266 197.046 59.5871 194.975 59.5871C192.973 59.5871 190.655 59.543 188.423 59.543C185.845 59.543 183.794 59.5871 181.408 59.5538C179.229 59.5233 177.235 58.6224 175.577 57.1834C173.918 55.7439 172.614 52.8899 171.662 50.6561C170.711 48.4229 170.236 45.7332 170.236 42.587V36.2637L167.406 35.7211V26.425H185.823V35.7211L182.993 36.2637V40.2159C182.993 40.6013 182.997 40.959 183.005 41.2893C183.012 41.6196 183.017 41.9067 183.017 42.1506V42.6341C183.017 42.9963 183.024 43.4167 183.04 43.8966C183.056 44.3764 183.119 44.8719 183.229 45.3827C183.339 45.8941 183.508 46.3975 183.736 46.8928C183.964 47.3885 184.286 47.833 184.703 48.226C185.119 48.6194 185.646 48.9377 186.282 49.1816C186.919 49.4255 187.709 49.5472 188.652 49.5472C189.596 49.5472 190.393 49.4255 191.046 49.1816C191.698 48.9378 192.233 48.6154 192.649 48.214C193.066 47.8132 193.392 47.3612 193.628 46.8575C193.864 46.3543 194.032 45.8469 194.135 45.3356C194.237 44.8247 194.3 44.3292 194.324 43.8494C194.347 43.3695 194.359 42.9491 194.359 42.587V42.0562C194.359 41.8123 194.355 41.5292 194.347 41.2068C194.339 40.8845 194.336 40.5382 194.336 40.1687V36.2637L191.506 35.7211V26.425H207.871V35.7211L205.018 36.2637H205.018Z" fill="#1E09B1"/>
<path d="M171.882 49.2568H167.269V46.8134H164.827V54.0416H167.269V51.734H171.882V49.2568Z" fill="#1E09B1"/>
<path d="M207.072 47.4238V49.935H202.663V52.2426H207.072V54.652H209.616V47.4238H207.072Z" fill="#1E09B1"/>
<path d="M174.606 62.4408C171.156 62.4408 168.348 59.6318 168.348 56.1794C168.348 52.727 171.156 49.9183 174.606 49.9183C178.056 49.9183 180.864 52.727 180.864 56.1794C180.864 59.6318 178.056 62.4408 174.606 62.4408Z" fill="#1E09B1"/>
<path d="M174.606 50.1726C177.917 50.1726 180.61 52.8673 180.61 56.1795C180.61 59.4917 177.917 62.1864 174.606 62.1864C171.296 62.1864 168.603 59.4917 168.603 56.1795C168.603 52.8673 171.296 50.1726 174.606 50.1726ZM174.606 49.664C171.01 49.664 168.094 52.5811 168.094 56.1795C168.094 59.7779 171.01 62.695 174.606 62.695C178.202 62.695 181.118 59.7779 181.118 56.1795C181.118 52.5811 178.202 49.664 174.606 49.664Z" fill="white"/>
<path d="M199.44 62.7455C202.896 62.7455 205.698 59.9423 205.698 56.4844C205.698 53.0265 202.896 50.2233 199.44 50.2233C195.984 50.2233 193.183 53.0265 193.183 56.4844C193.183 59.9423 195.984 62.7455 199.44 62.7455Z" fill="#1E09B1"/>
<path d="M199.441 50.4776C202.751 50.4776 205.444 53.1722 205.444 56.4845C205.444 59.7967 202.751 62.4913 199.441 62.4913C196.13 62.4913 193.437 59.7967 193.437 56.4845C193.437 53.1722 196.13 50.4776 199.441 50.4776ZM199.441 49.9689C195.844 49.9689 192.929 52.886 192.929 56.4845C192.929 60.0829 195.844 63 199.441 63C203.037 63 205.953 60.0829 205.953 56.4845C205.953 52.886 203.037 49.9689 199.441 49.9689Z" fill="white"/>
</svg>
