<?xml version="1.0" encoding="utf-8"?>
<!-- Generator: Adobe Illustrator 26.2.1, SVG Export Plug-In . SVG Version: 6.00 Build 0)  -->
<svg version="1.1" id="Calque_1" xmlns="http://www.w3.org/2000/svg" xmlns:xlink="http://www.w3.org/1999/xlink" x="0px" y="0px"
	 viewBox="0 0 254 63" style="enable-background:new 0 0 254 63;" xml:space="preserve">
<style type="text/css">
	.st0{fill:#1E09B1;}
	.st1{fill:#FFFFFF;}
</style>
<path class="st0" d="M71.8,49.8c0.2-0.3,0.2-0.5,0.2-0.5v-2.3c0-0.3,0-0.6,0-0.6s-0.1-0.8-1-1.5v-0.3c0-0.3,0-0.5,0-0.5
	s0-0.3-0.3-0.7v-5.9c0.6-0.3,1.1-0.6,1.7-1l-0.3-2.9c0,0,0,0,0,0c0.6-1-0.1-1.2-0.1-1.2l0,0l-1.3-14.3c0.2-0.1,0.4-0.2,0.6-0.3
	c0.5-0.3,0.6-0.8,0.4-1.3c-0.3-0.5-0.9-0.9-1.4-1.2c-1.1-0.4-2.4-0.6-3.6-0.7v-2C68.5,12.5,70,11,70,9.1V3.6c0-2-1.6-3.6-3.6-3.6
	c-2,0-3.6,1.6-3.6,3.6v5.4c0,1.9,1.5,3.5,3.3,3.6v2c-1.4,0-2.6,0.3-3.4,0.6c-0.8,0.3-1.2,0.9-1.4,1.4c-0.2,0.5,0.2,1,0.5,1.2
	c0.2,0.1,0.4,0.2,0.6,0.2l-1,14.1l0,0c-0.7,0.3-0.1,1.3-0.1,1.3l-0.2,2.9c0,0,0.5,0.4,1.3,0.8v6.1c-0.4,0.4-0.5,0.8-0.5,0.8
	s0,0.2,0,0.4V45c-0.8,0.7-1,1.4-1,1.4s0,0.2,0,0.5v2.2c0,0,0.1,0.3,0.3,0.6v5.5c0,0-0.5,0.6-0.5,1.5c0.1,0.7,0.5,1.3,1.1,1.7
	c0.8,0.5,2.4,1.2,4.8,1.1c2.4-0.1,3.3-0.2,4.5-1c0.5-0.3,0.8-0.7,1-1.2c0.2-0.5,0.2-1.2-0.4-1.9V49.8L71.8,49.8z M67.7,38.4V42
	c-0.3,0-0.7-0.1-1.1-0.1c-0.4,0-0.8,0-1.2,0.1v-3.7C66.1,38.4,66.8,38.5,67.7,38.4z M70.2,43c-0.4-0.3-1.1-0.6-2-0.8v-3.8
	c0.6-0.1,1.3-0.3,2-0.6V43z M63.3,9V3.7c0-1.7,1.4-3,3-3c1.7,0,3,1.4,3,3V9c0,1.7-1.4,3-3,3C64.7,12.1,63.3,10.7,63.3,9z M64.8,38.2
	v3.9c-0.9,0.2-1.6,0.5-2,0.8v-5.4C63.3,37.7,64,38,64.8,38.2z"/>
<path class="st0" d="M18.1,41.1v17.7H0V48.6L3,48V33.4l-3-0.6V22.6h18.1l7.6,13.9l7.5-13.9h18.1v10.2l-3,0.6V48l3,0.6v10.2H33.2
	V41.1l-7.5,13L18.1,41.1z"/>
<path class="st0" d="M92,41.8v7.5l2.9,0.5v9.4H80.7v-9.4l2.8-0.5V35.9l-2.8-0.5V26h17l11.3,17.9v-8l-2.8-0.6V26h14.2v9.3l-2.8,0.5
	v13.4l2.8,0.5v9.4h-17L92,41.8z"/>
<path class="st0" d="M145.2,41l6.5-1.4v6.7l-6.5-1.4v5.2c0.9,0,1.9-0.1,2.7-0.2c0.9-0.1,1.7-0.3,2.5-0.6c0.8-0.2,1.4-0.5,2.1-0.8
	c0.6-0.3,1.2-0.7,1.6-1h3.2v12.1h-29.1v-9.4l2.8-0.5V36.3l-2.8-0.5v-9.3h29.1v12.1h-3.2c-0.5-0.3-1-0.7-1.6-1
	c-0.6-0.3-1.3-0.6-2.1-0.8c-0.8-0.2-1.6-0.4-2.5-0.6c-0.9-0.1-1.8-0.2-2.7-0.2V41z"/>
<path class="st0" d="M254,59.9h-14.1c-0.4-0.8-0.9-1.7-1.4-2.6c-0.5-0.9-0.9-1.9-1.4-2.9c-0.4-1-0.9-2-1.2-3.1
	c-0.4-1.1-0.7-2.2-1-3.3h-0.8v11.9h-17v-9.4l2.8-0.5V36.5l-2.8-0.5v-9.3h19.3c2.6,0,4.8,0.1,6.6,0.3c1.9,0.2,3.4,0.5,4.7,1
	c1.3,0.4,2.3,0.9,3.1,1.5c0.8,0.6,1.4,1.3,1.9,2.1c0.4,0.8,0.8,1.6,0.9,2.5c0.2,0.9,0.2,1.9,0.2,2.9c0,1-0.1,2-0.3,2.8
	c-0.2,0.8-0.5,1.6-1,2.3c-0.5,0.7-1.2,1.4-2.1,1.9c-0.9,0.6-2,1.1-3.3,1.7c0.3,0.6,0.7,1.2,1.3,2c0.6,0.8,1.2,1.6,1.8,2.4
	c0.7,0.8,1.3,1.6,2,2.3c0.7,0.8,1.2,1.4,1.7,1.9V59.9L254,59.9z M234.2,41.6c0.9,0,1.6,0,2.3-0.1c0.7-0.1,1.3-0.3,1.8-0.6
	c0.5-0.3,0.9-0.7,1.1-1.3c0.3-0.6,0.4-1.3,0.4-2.3c0-0.9-0.1-1.7-0.4-2.3c-0.3-0.6-0.6-1-1.1-1.3c-0.5-0.3-1.1-0.5-1.8-0.6
	c-0.7-0.1-1.5-0.1-2.3-0.1V41.6L234.2,41.6z"/>
<path class="st0" d="M205,36.3c0,0.5,0,0.9,0,1.4v4.9c0,3.1-0.4,5.8-1.3,8.1c-0.9,2.2-2,5.1-3.5,6.5c-1.5,1.4-3.1,2.4-5.2,2.4
	c-2,0-4.3,0-6.6,0c-2.6,0-4.6,0-7,0c-2.2,0-4.2-0.9-5.8-2.4c-1.7-1.4-3-4.3-3.9-6.5c-1-2.2-1.4-4.9-1.4-8.1v-6.3l-2.8-0.5v-9.3h18.4
	v9.3l-2.8,0.5v4c0,0.4,0,0.7,0,1.1c0,0.3,0,0.6,0,0.9v0.5c0,0.4,0,0.8,0,1.3c0,0.5,0.1,1,0.2,1.5c0.1,0.5,0.3,1,0.5,1.5
	c0.2,0.5,0.6,0.9,1,1.3c0.4,0.4,0.9,0.7,1.6,1c0.6,0.2,1.4,0.4,2.4,0.4c0.9,0,1.7-0.1,2.4-0.4c0.7-0.2,1.2-0.6,1.6-1
	c0.4-0.4,0.7-0.9,1-1.4c0.2-0.5,0.4-1,0.5-1.5c0.1-0.5,0.2-1,0.2-1.5c0-0.5,0-0.9,0-1.3v-0.5c0-0.2,0-0.5,0-0.8c0-0.3,0-0.7,0-1
	v-3.9l-2.8-0.5v-9.3h16.4v9.3L205,36.3L205,36.3z"/>
<path class="st0" d="M171.9,49.3h-4.6v-2.4h-2.4V54h2.4v-2.3h4.6V49.3z"/>
<path class="st0" d="M207.1,47.4v2.5h-4.4v2.3h4.4v2.4h2.5v-7.2H207.1z"/>
<path class="st0" d="M174.6,62.4c-3.4,0-6.3-2.8-6.3-6.3s2.8-6.3,6.3-6.3s6.3,2.8,6.3,6.3S178.1,62.4,174.6,62.4z"/>
<path class="st1" d="M174.6,50.2c3.3,0,6,2.7,6,6c0,3.3-2.7,6-6,6c-3.3,0-6-2.7-6-6C168.6,52.9,171.3,50.2,174.6,50.2z M174.6,49.7
	c-3.6,0-6.5,2.9-6.5,6.5s2.9,6.5,6.5,6.5c3.6,0,6.5-2.9,6.5-6.5S178.2,49.7,174.6,49.7z"/>
<path class="st0" d="M199.4,62.7c3.5,0,6.3-2.8,6.3-6.3c0-3.5-2.8-6.3-6.3-6.3c-3.5,0-6.3,2.8-6.3,6.3
	C193.2,59.9,196,62.7,199.4,62.7z"/>
<path class="st1" d="M199.4,50.5c3.3,0,6,2.7,6,6c0,3.3-2.7,6-6,6c-3.3,0-6-2.7-6-6C193.4,53.2,196.1,50.5,199.4,50.5z M199.4,50
	c-3.6,0-6.5,2.9-6.5,6.5c0,3.6,2.9,6.5,6.5,6.5c3.6,0,6.5-2.9,6.5-6.5C206,52.9,203,50,199.4,50z"/>
</svg>
