<svg width="36" height="36" viewBox="0 0 36 36" fill="none" xmlns="http://www.w3.org/2000/svg">
<rect width="2.84427" height="45.6757" rx="1" transform="matrix(0.711022 0.703169 -0.711022 0.703169 33.4877 0.882263)" fill="black"/>
<path fill-rule="evenodd" clip-rule="evenodd" d="M22.4482 10.7999V2.22455C22.4482 0.286471 20.1136 -0.72142 18.6769 0.597274L9.98495 8.57382C9.7776 8.76467 9.50496 8.87094 9.22171 8.8713H3.36723C2.47418 8.8713 1.61771 9.22214 0.986238 9.84665C0.35476 10.4711 0 11.3182 0 12.2013V23.3015C0 24.1846 0.35476 25.0316 0.986238 25.6561C1.61771 26.2806 2.47418 26.6315 3.36723 26.6315H6.43976L22.4482 10.7999ZM11.137 27.986L18.6769 34.9055C20.1136 36.222 22.4482 35.2163 22.4482 33.2782V16.7998L11.137 27.986Z" fill="black"/>
</svg>
