<svg width="36" height="36" viewBox="0 0 36 36" fill="none" xmlns="http://www.w3.org/2000/svg">
<path d="M22.2002 2.22455C22.2002 0.286471 19.8914 -0.72142 18.4706 0.597274L9.87466 8.57382C9.66961 8.76467 9.39998 8.87094 9.11985 8.8713H3.33003C2.44685 8.8713 1.59985 9.22214 0.975345 9.84665C0.350842 10.4711 0 11.3182 0 12.2013V23.3015C0 24.1846 0.350842 25.0316 0.975345 25.6561C1.59985 26.2806 2.44685 26.6315 3.33003 26.6315H9.11763C9.39746 26.6313 9.66705 26.7367 9.87244 26.9268L18.4706 34.9055C19.8914 36.222 22.2002 35.2163 22.2002 33.2782V2.22455ZM29.4242 5.82321C29.5329 5.72612 29.6597 5.65141 29.7973 5.60333C29.935 5.55524 30.0807 5.53474 30.2262 5.54299C30.3718 5.55123 30.5143 5.58807 30.6456 5.65138C30.7769 5.7147 30.8944 5.80326 30.9915 5.91201C33.9035 9.16808 35.5134 13.3831 35.5134 17.7514C35.5134 22.1197 33.9035 26.3347 30.9915 29.5908C30.8947 29.7009 30.7771 29.7908 30.6453 29.8552C30.5136 29.9197 30.3704 29.9573 30.2241 29.9661C30.0777 29.9749 29.931 29.9545 29.7926 29.9063C29.6541 29.8581 29.5265 29.7829 29.4173 29.6851C29.308 29.5873 29.2193 29.4688 29.1561 29.3365C29.0929 29.2041 29.0565 29.0606 29.0491 28.9142C29.0417 28.7677 29.0634 28.6212 29.1129 28.4832C29.1624 28.3452 29.2388 28.2184 29.3376 28.11C31.8858 25.2609 33.2945 21.5726 33.2945 17.7503C33.2945 13.9279 31.8858 10.2396 29.3376 7.39055C29.1413 7.17122 29.0401 6.88288 29.0563 6.58895C29.0725 6.29502 29.2049 6.01958 29.4242 5.82321ZM26.8157 24.2627C26.6892 24.19 26.5784 24.0931 26.4894 23.9776C26.4005 23.862 26.3352 23.73 26.2972 23.5892C26.2593 23.4484 26.2495 23.3015 26.2683 23.1569C26.2872 23.0123 26.3344 22.8728 26.4072 22.7465C27.2844 21.2279 27.7463 19.5051 27.7463 17.7514C27.7463 15.9977 27.2844 14.2749 26.4072 12.7563C26.3269 12.63 26.2729 12.4887 26.2486 12.341C26.2243 12.1933 26.2302 12.0422 26.2658 11.8968C26.3014 11.7514 26.3661 11.6147 26.4559 11.4949C26.5457 11.3751 26.6588 11.2748 26.7884 11.1998C26.918 11.1249 27.0615 11.077 27.2101 11.0589C27.3587 11.0409 27.5094 11.0531 27.6532 11.0948C27.797 11.1365 27.9308 11.2069 28.0467 11.3017C28.1626 11.3964 28.2581 11.5137 28.3275 11.6463C29.3999 13.5022 29.9648 15.6077 29.9651 17.7511C29.9655 19.8945 29.4015 22.0002 28.3297 23.8565C28.1825 24.1108 27.9405 24.2964 27.6567 24.3725C27.3728 24.4487 27.0704 24.4092 26.8157 24.2627Z" fill="black"/>
</svg>
