<svg width="538" height="403" viewBox="0 0 538 403" fill="none" xmlns="http://www.w3.org/2000/svg">
<path d="M49.9871 392.652C75.6373 404.302 102.79 399.277 129.238 400.931C173.913 403.723 219.237 403.227 262.473 382.914C310.149 360.514 357.663 313.985 405.842 332.637C434.208 343.619 458.573 376.277 486.478 390.55C492.686 393.725 499.338 395.958 505.551 392.819C515.999 387.539 522.341 368.84 526.532 350.926C543.167 279.819 541.626 195.839 522.42 126.836C517.589 109.482 511.543 92.7337 503.002 80.7983C497.207 72.6993 490.462 67.0897 483.691 61.9528C401.762 -0.206123 309.763 -1.62973 220.885 6.51713C185.265 9.78211 149.458 14.4897 114.894 30.2287C80.3308 45.9678 46.8007 73.3776 20.8759 117.187C15.4534 126.35 10.297 136.423 7.23423 148.59C3.62317 162.934 3.17934 179.089 2.79155 194.805C1.88769 231.437 0.983829 268.069 0.079964 304.7C-0.0677275 310.686 -0.178582 316.99 1.36256 322.31C2.58097 326.516 4.69793 329.618 6.75737 332.596C16.0478 346.032 25.3383 359.468 34.6287 372.904C34.6287 372.904 45.8546 390.775 49.9871 392.652H49.9871Z" fill="#593623"/>
<mask id="mask0_12_1073" style="mask-type:alpha" maskUnits="userSpaceOnUse" x="0" y="0" width="538" height="400">
<path d="M49.9871 389.652C75.6373 401.302 102.79 396.277 129.238 397.931C173.913 400.723 219.237 400.227 262.473 379.914C310.149 357.514 357.663 310.985 405.842 329.637C434.208 340.619 458.573 373.277 486.478 387.55C492.686 390.725 499.338 392.958 505.551 389.819C515.999 384.539 522.341 365.84 526.532 347.926C543.167 276.819 541.626 192.839 522.42 123.836C517.589 106.482 511.543 89.7337 503.002 77.7983C497.207 69.6993 490.462 64.0897 483.691 58.9528C401.762 -3.20612 309.763 -4.62973 220.885 3.51713C185.265 6.78211 149.458 11.4897 114.894 27.2287C80.3308 42.9678 46.8007 70.3776 20.8759 114.187C15.4533 123.35 10.297 133.423 7.2342 145.59C3.62314 159.934 3.17931 176.089 2.79153 191.805C1.88767 228.437 0.983806 265.069 0.0799411 301.7C-0.0677504 307.686 -0.178605 313.99 1.36254 319.31C2.58095 323.516 4.6979 326.618 6.75735 329.596C16.0478 343.032 25.3382 356.468 34.6287 369.904C34.6287 369.904 45.8546 387.775 49.9871 389.652H49.9871Z" fill="#593623"/>
</mask>
<g mask="url(#mask0_12_1073)">
<path d="M99.6126 87.3283C104.761 86.6564 109.504 82.3139 114.085 78.0571C124.603 68.2817 135.121 58.5063 145.64 48.7309C149.21 64.2054 150.754 81.1613 150.115 97.8622C149.713 108.364 149.331 121.847 154.688 126.21C158.494 129.311 163.156 124.987 165.35 118.618C167.545 112.249 167.895 104.456 168.189 96.9928L169.653 59.7906C169.797 56.1369 170.036 52.1106 171.538 49.6211C172.842 47.4603 174.75 47.0577 176.52 46.761C203.467 42.2438 230.415 37.7266 257.362 33.2094C258.4 33.0355 259.577 32.942 260.336 34.2187C261.064 35.4427 261.117 37.4653 261.007 39.2411C260.408 48.866 256.644 56.7557 254.342 65.5214C252.041 74.287 251.792 86.7642 256.461 91.6689C258.517 93.8296 261.084 93.9134 263.408 92.9514C271.672 89.53 277.15 72.0885 274.484 57.6852C279.472 61.0512 284.459 64.4173 289.447 67.7833C290.667 68.6068 291.954 69.4445 293.244 69.0988C297.223 68.0325 297.675 57.9884 296.553 51.0776C295.431 44.1668 294.087 35.3774 297.216 30.8548C299.278 27.8759 302.259 28.5724 304.866 29.425C323.925 35.6584 342.983 41.8917 362.041 48.1252C375.309 52.4647 388.725 56.8843 401.041 66.7202C404.245 69.279 407.482 72.3784 409.52 77.4871C411.681 82.9058 412.197 89.7993 413.145 96.2365C415.452 111.899 420.732 126.109 427.911 135.981C434.587 145.16 442.68 150.498 449.561 159.18C456.264 167.637 461.654 179.057 468.287 187.688C475.694 197.328 484.396 203.17 492.978 208.9L520.619 227.354C522.922 228.892 525.765 230.282 527.626 227.409C529.317 224.798 529.206 220.113 528.839 216.172C526.339 189.346 518.637 164.99 510.025 142.576C464.219 23.3472 387.587 -56.2678 306.987 -68.3648C240.864 -78.289 173.193 -42.6463 119.93 27.82C112.461 37.7022 105.274 48.2699 98.4191 59.4879C96.226 63.0771 88.8916 71.9713 89.0012 77.8777C89.1533 86.0683 95.9841 87.8018 99.6126 87.3283V87.3283Z" fill="#72422C"/>
<path d="M83.7315 147.861C97.8131 156.427 108.447 177.497 122.006 188.431C134.606 198.592 150.35 200.9 158.653 220.663C153.364 229.789 145.353 233.54 138.243 230.218C130.536 226.618 124.651 215.882 118.542 206.739C98.7361 177.093 70.6293 161.19 46.4766 177.55C37.8376 183.402 29.4345 194.716 27.6088 210.912C27.1498 214.984 27.2808 219.829 29.0758 222.466C30.144 224.035 31.5799 224.478 32.9451 224.865L52.1435 230.321C45.0096 240.475 36.3251 247.109 27.2908 249.306C25.0642 264.059 23.9534 283.785 31.5371 290.823C35.1793 294.203 39.5534 293.029 43.6202 292.053C59.515 288.241 77.0904 289.644 89.5596 307.681C95.7024 316.567 100.488 329.293 107.965 333.854C111.749 336.162 115.839 336.089 119.837 335.991L173.814 334.665C176.186 334.607 178.826 334.728 180.531 337.68C183.067 342.072 181.779 350.342 178.916 354.034C176.052 357.726 172.299 358.123 168.772 358.388C131.454 361.187 92.1827 363.26 58.9958 332.608C55.1549 329.061 51.2021 324.99 46.8796 325.077C42.557 325.164 37.9353 331.478 38.5572 339.129C39.06 345.314 42.5119 349.148 45.6855 351.765C65.2015 367.854 87.2157 370.51 108.663 372.921C201.787 383.386 294.911 393.85 388.035 404.315C401.163 405.791 415.204 407.869 425.481 422.553C407.602 448.346 381.687 440.592 359.116 432.965C279.898 406.198 198.649 397.8 118.348 410.608C98.9889 413.696 79.4479 418.004 60.198 413.204C40.9481 408.405 21.5885 393.128 10.4807 364.602C1.67679 341.994 -1.07523 312.183 3.19768 285.713C4.73075 276.215 7.12171 267.064 7.70201 257.233C8.08784 250.697 7.65553 244.108 7.47116 237.544C6.25721 194.32 16.4774 150.507 34.5072 121.643C40.3837 112.235 49.1244 104.178 55.7777 111.752L69.441 88.178C69.7871 103.258 64.4756 117.313 57.6414 126.167C52.5986 132.699 46.6811 135.534 41.3997 140.791C54.6058 148.332 69.9845 139.498 83.7314 147.861L83.7315 147.861Z" fill="#4D2A17"/>
<path d="M260.68 186.913C255.963 180.124 248.926 179.007 243.614 184.205C241.347 186.424 239.219 190.586 239.729 195.117C240.276 199.976 243.435 202.209 246.181 202.877C251.392 204.143 256.797 202.754 261.598 198.916C264.341 196.723 267.243 192.432 266.73 187.137C266.17 181.368 262.106 179.359 258.833 179.434C253.966 179.547 249.115 181.557 244.716 185.284" fill="#74412C"/>
<path d="M326.077 77.5307C320.95 70.8922 313.508 70.6171 308.232 76.8711C305.164 80.5075 302.766 87.8231 304.576 93.5554C305.599 96.7963 307.664 98.4981 309.672 99.4777C318.475 103.773 328.61 97.0378 333.709 83.5034C334.063 82.5645 334.406 81.5253 334.391 80.3934C334.366 78.5708 333.446 77.2253 332.557 76.3345C326.108 69.8749 318.029 73.7683 311.218 78.9036" fill="#74412C"/>
<path d="M379.806 50.5691C381.535 56.6389 386.116 61.2766 382.845 66.5891C382.236 67.5775 381.497 68.2707 380.719 68.746C377.561 70.6764 373.872 71.2634 370.842 68.5788C368.56 66.5578 372.128 54.8748 375.393 49.6342C376.564 47.7546 378.396 47.651 379.466 49.7136C379.601 49.9743 379.718 50.2592 379.806 50.5691H379.806Z" fill="#74412C"/>
<path d="M405.314 299.266C402.337 295.871 399.084 292.344 395.563 292.8C392.041 293.256 388.637 299.869 390.08 305.631C390.904 308.919 392.945 310.689 394.921 311.381C398.266 312.553 401.853 311.326 404.72 308.031C406.597 305.874 408.289 301.833 407.424 298.154C406.852 295.717 405.293 294.393 403.815 294.346C402.337 294.299 400.916 295.289 399.559 296.336" fill="#74412C"/>
<path d="M333.636 358.267L325.435 367.088C324.542 368.048 323.608 369.082 323.107 370.716C322.392 373.049 322.783 376.107 323.747 378.134C324.711 380.161 326.139 381.306 327.576 381.996C333.801 384.982 340.97 379.658 344.182 369.662C344.484 368.721 344.762 367.633 344.606 366.584C344.408 365.245 343.6 364.539 342.863 364.11C339.065 361.898 334.767 362.585 331.248 365.969" fill="#74412C"/>
<path d="M209.566 342.061L199.643 345.766C198.195 346.307 196.579 347.055 195.835 349.342C195.306 350.967 195.365 353.026 195.708 354.803C196.805 360.485 200.308 363.449 203.599 364.668C210.443 367.203 217.829 364.668 223.662 357.781C224.764 356.481 225.907 354.728 225.981 352.371C226.093 348.827 223.833 346.708 221.911 345.82C217.698 343.874 213.28 343.363 208.962 344.322" fill="#74412C"/>
<path d="M105.429 250.174C102.625 241.567 92.93 250.451 87.5709 253.165C86.0574 253.931 85.9486 257.081 84.7454 258.894C83.5422 260.706 82.7535 263.676 83.2027 266.372C83.6424 269.011 85.0875 270.661 86.4863 271.81C92.273 276.565 99.2006 276.65 105.023 272.039C106.475 270.89 108.006 269.111 108.278 266.314C108.534 263.68 108.073 257.156 106.413 259.42C107.241 252.657 105.784 254.856 104.517 252.59C104.339 251.934 105.634 250.803 105.429 250.174Z" fill="#71432C"/>
</g>
</svg>
